G04 #@! TF.GenerationSoftware,KiCad,Pcbnew,(5.1.10)-1*
G04 #@! TF.CreationDate,2021-10-03T18:26:13+02:00*
G04 #@! TF.ProjectId,LED Strip clock,4c454420-5374-4726-9970-20636c6f636b,V1.0*
G04 #@! TF.SameCoordinates,Original*
G04 #@! TF.FileFunction,Soldermask,Bot*
G04 #@! TF.FilePolarity,Negative*
%FSLAX46Y46*%
G04 Gerber Fmt 4.6, Leading zero omitted, Abs format (unit mm)*
G04 Created by KiCad (PCBNEW (5.1.10)-1) date 2021-10-03 18:26:13*
%MOMM*%
%LPD*%
G01*
G04 APERTURE LIST*
%ADD10O,1.700000X1.700000*%
%ADD11R,1.700000X1.700000*%
%ADD12C,2.100000*%
%ADD13R,2.100000X2.100000*%
%ADD14O,1.600000X2.400000*%
%ADD15R,1.600000X2.400000*%
%ADD16C,2.000000*%
%ADD17R,2.000000X2.000000*%
%ADD18O,2.400000X1.600000*%
%ADD19R,2.400000X1.600000*%
%ADD20C,3.200000*%
%ADD21R,3.500000X3.500000*%
%ADD22C,2.010000*%
%ADD23C,1.600000*%
%ADD24R,1.600000X1.600000*%
%ADD25R,2.200000X2.200000*%
%ADD26O,2.200000X2.200000*%
%ADD27O,2.000000X1.600000*%
G04 APERTURE END LIST*
D10*
X129540000Y-132080000D03*
X127000000Y-132080000D03*
X124460000Y-132080000D03*
X121920000Y-132080000D03*
X119380000Y-132080000D03*
X116840000Y-132080000D03*
X114300000Y-132080000D03*
X111760000Y-132080000D03*
X109220000Y-132080000D03*
X106680000Y-132080000D03*
X104140000Y-132080000D03*
X101600000Y-132080000D03*
X99060000Y-132080000D03*
X96520000Y-132080000D03*
X93980000Y-132080000D03*
X91440000Y-132080000D03*
X88900000Y-132080000D03*
D11*
X86360000Y-132080000D03*
D12*
X217485000Y-50800000D03*
D13*
X197485000Y-50800000D03*
D14*
X179070000Y-43180000D03*
X181610000Y-43180000D03*
X184150000Y-43180000D03*
X186690000Y-43180000D03*
X189230000Y-43180000D03*
X189230000Y-58420000D03*
X186690000Y-58420000D03*
X184150000Y-58420000D03*
X181610000Y-58420000D03*
D15*
X179070000Y-58420000D03*
D14*
X176530000Y-58420000D03*
X173990000Y-58420000D03*
X171450000Y-58420000D03*
X168910000Y-58420000D03*
X166370000Y-58420000D03*
X166370000Y-43180000D03*
X168910000Y-43180000D03*
X171450000Y-43180000D03*
X173990000Y-43180000D03*
D15*
X176530000Y-43180000D03*
D16*
X195660000Y-86360000D03*
D17*
X200660000Y-86360000D03*
D16*
X172800000Y-86360000D03*
D17*
X177800000Y-86360000D03*
D18*
X213360000Y-81280000D03*
X205740000Y-104140000D03*
X213360000Y-83820000D03*
X205740000Y-101600000D03*
X213360000Y-86360000D03*
X205740000Y-99060000D03*
X213360000Y-88900000D03*
X205740000Y-96520000D03*
X213360000Y-91440000D03*
X205740000Y-93980000D03*
X213360000Y-93980000D03*
X205740000Y-91440000D03*
X213360000Y-96520000D03*
X205740000Y-88900000D03*
X213360000Y-99060000D03*
X205740000Y-86360000D03*
X213360000Y-101600000D03*
X205740000Y-83820000D03*
X213360000Y-104140000D03*
D19*
X205740000Y-81280000D03*
D18*
X190500000Y-81280000D03*
X182880000Y-104140000D03*
X190500000Y-83820000D03*
X182880000Y-101600000D03*
X190500000Y-86360000D03*
X182880000Y-99060000D03*
X190500000Y-88900000D03*
X182880000Y-96520000D03*
X190500000Y-91440000D03*
X182880000Y-93980000D03*
X190500000Y-93980000D03*
X182880000Y-91440000D03*
X190500000Y-96520000D03*
X182880000Y-88900000D03*
X190500000Y-99060000D03*
X182880000Y-86360000D03*
X190500000Y-101600000D03*
X182880000Y-83820000D03*
X190500000Y-104140000D03*
D19*
X182880000Y-81280000D03*
D10*
X219710000Y-76200000D03*
X217170000Y-76200000D03*
X214630000Y-76200000D03*
X212090000Y-76200000D03*
X209550000Y-76200000D03*
X207010000Y-76200000D03*
X204470000Y-76200000D03*
X201930000Y-76200000D03*
D11*
X199390000Y-76200000D03*
D10*
X196850000Y-76200000D03*
X194310000Y-76200000D03*
X191770000Y-76200000D03*
X189230000Y-76200000D03*
X186690000Y-76200000D03*
X184150000Y-76200000D03*
X181610000Y-76200000D03*
X179070000Y-76200000D03*
D11*
X176530000Y-76200000D03*
D17*
X132080000Y-86360000D03*
D16*
X127080000Y-86360000D03*
D20*
X86360000Y-142240000D03*
X218440000Y-142240000D03*
X218440000Y-35560000D03*
X86360000Y-35560000D03*
D18*
X167640000Y-81280000D03*
X160020000Y-104140000D03*
X167640000Y-83820000D03*
X160020000Y-101600000D03*
X167640000Y-86360000D03*
X160020000Y-99060000D03*
X167640000Y-88900000D03*
X160020000Y-96520000D03*
X167640000Y-91440000D03*
X160020000Y-93980000D03*
X167640000Y-93980000D03*
X160020000Y-91440000D03*
X167640000Y-96520000D03*
X160020000Y-88900000D03*
X167640000Y-99060000D03*
X160020000Y-86360000D03*
X167640000Y-101600000D03*
X160020000Y-83820000D03*
X167640000Y-104140000D03*
D19*
X160020000Y-81280000D03*
D11*
X153670000Y-76200000D03*
D10*
X156210000Y-76200000D03*
X158750000Y-76200000D03*
X161290000Y-76200000D03*
X163830000Y-76200000D03*
X166370000Y-76200000D03*
X168910000Y-76200000D03*
X171450000Y-76200000D03*
X173990000Y-76200000D03*
D11*
X130810000Y-76200000D03*
D10*
X133350000Y-76200000D03*
X135890000Y-76200000D03*
X138430000Y-76200000D03*
X140970000Y-76200000D03*
X143510000Y-76200000D03*
X146050000Y-76200000D03*
X148590000Y-76200000D03*
X151130000Y-76200000D03*
D11*
X107950000Y-76200000D03*
D10*
X110490000Y-76200000D03*
X113030000Y-76200000D03*
X115570000Y-76200000D03*
X118110000Y-76200000D03*
X120650000Y-76200000D03*
X123190000Y-76200000D03*
X125730000Y-76200000D03*
X128270000Y-76200000D03*
D11*
X85090000Y-76200000D03*
D10*
X87630000Y-76200000D03*
X90170000Y-76200000D03*
X92710000Y-76200000D03*
X95250000Y-76200000D03*
X97790000Y-76200000D03*
X100330000Y-76200000D03*
X102870000Y-76200000D03*
X105410000Y-76200000D03*
D15*
X153670000Y-58420000D03*
D14*
X156210000Y-58420000D03*
X158750000Y-58420000D03*
X161290000Y-58420000D03*
X163830000Y-58420000D03*
X163830000Y-43180000D03*
X161290000Y-43180000D03*
X158750000Y-43180000D03*
X156210000Y-43180000D03*
X153670000Y-43180000D03*
D15*
X151130000Y-43180000D03*
D14*
X148590000Y-43180000D03*
X146050000Y-43180000D03*
X143510000Y-43180000D03*
X140970000Y-43180000D03*
X140970000Y-58420000D03*
X143510000Y-58420000D03*
X146050000Y-58420000D03*
X148590000Y-58420000D03*
X151130000Y-58420000D03*
D15*
X128270000Y-58420000D03*
D14*
X130810000Y-58420000D03*
X133350000Y-58420000D03*
X135890000Y-58420000D03*
X138430000Y-58420000D03*
X138430000Y-43180000D03*
X135890000Y-43180000D03*
X133350000Y-43180000D03*
X130810000Y-43180000D03*
X128270000Y-43180000D03*
D15*
X115570000Y-58420000D03*
D14*
X118110000Y-58420000D03*
X120650000Y-58420000D03*
X123190000Y-58420000D03*
X125730000Y-58420000D03*
X125730000Y-43180000D03*
X123190000Y-43180000D03*
X120650000Y-43180000D03*
X118110000Y-43180000D03*
X115570000Y-43180000D03*
D21*
X100330000Y-50800000D03*
G36*
G01*
X92830000Y-51800000D02*
X92830000Y-49800000D01*
G75*
G02*
X93580000Y-49050000I750000J0D01*
G01*
X95080000Y-49050000D01*
G75*
G02*
X95830000Y-49800000I0J-750000D01*
G01*
X95830000Y-51800000D01*
G75*
G02*
X95080000Y-52550000I-750000J0D01*
G01*
X93580000Y-52550000D01*
G75*
G02*
X92830000Y-51800000I0J750000D01*
G01*
G37*
G36*
G01*
X95580000Y-56375000D02*
X95580000Y-54625000D01*
G75*
G02*
X96455000Y-53750000I875000J0D01*
G01*
X98205000Y-53750000D01*
G75*
G02*
X99080000Y-54625000I0J-875000D01*
G01*
X99080000Y-56375000D01*
G75*
G02*
X98205000Y-57250000I-875000J0D01*
G01*
X96455000Y-57250000D01*
G75*
G02*
X95580000Y-56375000I0J875000D01*
G01*
G37*
D22*
X102235000Y-38735000D03*
X97135000Y-37535000D03*
D23*
X168910000Y-122650000D03*
D24*
X168910000Y-120650000D03*
D23*
X135890000Y-122650000D03*
D24*
X135890000Y-120650000D03*
D23*
X217456000Y-121920000D03*
D24*
X219456000Y-121920000D03*
D23*
X201644000Y-121920000D03*
D24*
X199644000Y-121920000D03*
D17*
X109220000Y-86360000D03*
D16*
X104220000Y-86360000D03*
D25*
X204470000Y-134620000D03*
D26*
X214630000Y-134620000D03*
D18*
X99060000Y-81280000D03*
X91440000Y-104140000D03*
X99060000Y-83820000D03*
X91440000Y-101600000D03*
X99060000Y-86360000D03*
X91440000Y-99060000D03*
X99060000Y-88900000D03*
X91440000Y-96520000D03*
X99060000Y-91440000D03*
X91440000Y-93980000D03*
X99060000Y-93980000D03*
X91440000Y-91440000D03*
X99060000Y-96520000D03*
X91440000Y-88900000D03*
X99060000Y-99060000D03*
X91440000Y-86360000D03*
X99060000Y-101600000D03*
X91440000Y-83820000D03*
X99060000Y-104140000D03*
D19*
X91440000Y-81280000D03*
D27*
X140970000Y-138430000D03*
X140970000Y-135890000D03*
X140970000Y-133350000D03*
X140970000Y-130810000D03*
X140970000Y-128270000D03*
X140970000Y-125730000D03*
X140970000Y-123190000D03*
X140970000Y-120650000D03*
X163830000Y-120650000D03*
X163830000Y-123190000D03*
X163830000Y-125730000D03*
X163830000Y-128270000D03*
X163830000Y-130810000D03*
X163830000Y-133350000D03*
D17*
X163830000Y-138430000D03*
D27*
X163830000Y-135890000D03*
D18*
X190500000Y-115570000D03*
X182880000Y-138430000D03*
X190500000Y-118110000D03*
X182880000Y-135890000D03*
X190500000Y-120650000D03*
X182880000Y-133350000D03*
X190500000Y-123190000D03*
X182880000Y-130810000D03*
X190500000Y-125730000D03*
X182880000Y-128270000D03*
X190500000Y-128270000D03*
X182880000Y-125730000D03*
X190500000Y-130810000D03*
X182880000Y-123190000D03*
X190500000Y-133350000D03*
X182880000Y-120650000D03*
X190500000Y-135890000D03*
X182880000Y-118110000D03*
X190500000Y-138430000D03*
D19*
X182880000Y-115570000D03*
D18*
X144780000Y-81280000D03*
X137160000Y-104140000D03*
X144780000Y-83820000D03*
X137160000Y-101600000D03*
X144780000Y-86360000D03*
X137160000Y-99060000D03*
X144780000Y-88900000D03*
X137160000Y-96520000D03*
X144780000Y-91440000D03*
X137160000Y-93980000D03*
X144780000Y-93980000D03*
X137160000Y-91440000D03*
X144780000Y-96520000D03*
X137160000Y-88900000D03*
X144780000Y-99060000D03*
X137160000Y-86360000D03*
X144780000Y-101600000D03*
X137160000Y-83820000D03*
X144780000Y-104140000D03*
D19*
X137160000Y-81280000D03*
D18*
X121920000Y-81280000D03*
X114300000Y-104140000D03*
X121920000Y-83820000D03*
X114300000Y-101600000D03*
X121920000Y-86360000D03*
X114300000Y-99060000D03*
X121920000Y-88900000D03*
X114300000Y-96520000D03*
X121920000Y-91440000D03*
X114300000Y-93980000D03*
X121920000Y-93980000D03*
X114300000Y-91440000D03*
X121920000Y-96520000D03*
X114300000Y-88900000D03*
X121920000Y-99060000D03*
X114300000Y-86360000D03*
X121920000Y-101600000D03*
X114300000Y-83820000D03*
X121920000Y-104140000D03*
D19*
X114300000Y-81280000D03*
M02*
