%FSLAX45Y45*%
G04 Gerber Fmt 4.5, Leading zero omitted, Abs format (unit mm)*
G04 Created by KiCad (PCBNEW (5.1.10)-1) date 2021-10-03 18:26:28*
%MOMM*%
%LPD*%
G01*
G04 APERTURE LIST*
%TA.AperFunction,Profile*%
%ADD10C,0.050000*%
%TD*%
%ADD11C,0.200000*%
%ADD12C,0.300000*%
G04 APERTURE END LIST*
D10*
X8128000Y-3556000D02*
G75*
G02*
X8636000Y-3048000I508000J0D01*
G01*
X21844000Y-3048000D02*
G75*
G02*
X22352000Y-3556000I0J-508000D01*
G01*
X22352000Y-14224000D02*
G75*
G02*
X21844000Y-14732000I-508000J0D01*
G01*
X8636000Y-14732000D02*
G75*
G02*
X8128000Y-14224000I0J508000D01*
G01*
X8128000Y-14224000D02*
X8128000Y-3556000D01*
X21844000Y-14732000D02*
X8636000Y-14732000D01*
X22352000Y-3556000D02*
X22352000Y-14224000D01*
X8636000Y-3048000D02*
X21844000Y-3048000D01*
D11*
X8768400Y-11029000D02*
X8808400Y-11069000D01*
X8808400Y-11029000D02*
X8768400Y-11069000D01*
X8793800Y-8616000D02*
X8833800Y-8656000D01*
X8833800Y-8616000D02*
X8793800Y-8656000D01*
X8859099Y-12948499D02*
X8899099Y-12988499D01*
X8899099Y-12948499D02*
X8859099Y-12988499D01*
X8870000Y-6965000D02*
X8910000Y-7005000D01*
X8910000Y-6965000D02*
X8870000Y-7005000D01*
X8946200Y-11029000D02*
X8986200Y-11069000D01*
X8986200Y-11029000D02*
X8946200Y-11069000D01*
X9124000Y-6965000D02*
X9164000Y-7005000D01*
X9164000Y-6965000D02*
X9124000Y-7005000D01*
X9301800Y-11029000D02*
X9341800Y-11069000D01*
X9341800Y-11029000D02*
X9301800Y-11069000D01*
X9327200Y-6863400D02*
X9367200Y-6903400D01*
X9367200Y-6863400D02*
X9327200Y-6903400D01*
X9378000Y-6965001D02*
X9418000Y-7005001D01*
X9418000Y-6965001D02*
X9378000Y-7005001D01*
X9403400Y-12045000D02*
X9443400Y-12085000D01*
X9443400Y-12045000D02*
X9403400Y-12085000D01*
X9454200Y-6787200D02*
X9494200Y-6827200D01*
X9494200Y-6787200D02*
X9454200Y-6827200D01*
X9505000Y-11029000D02*
X9545000Y-11069000D01*
X9545000Y-11029000D02*
X9505000Y-11069000D01*
X9523001Y-6911578D02*
X9563001Y-6951578D01*
X9563001Y-6911578D02*
X9523001Y-6951578D01*
X9632000Y-7228498D02*
X9672000Y-7268498D01*
X9672000Y-7228498D02*
X9632000Y-7268498D01*
X9720900Y-6774500D02*
X9760900Y-6814500D01*
X9760900Y-6774500D02*
X9720900Y-6814500D01*
X9803523Y-6981610D02*
X9843523Y-7021610D01*
X9843523Y-6981610D02*
X9803523Y-7021610D01*
X9810271Y-6881837D02*
X9850271Y-6921837D01*
X9850271Y-6881837D02*
X9810271Y-6921837D01*
X9886000Y-7108730D02*
X9926000Y-7148730D01*
X9926000Y-7108730D02*
X9886000Y-7148730D01*
X9886001Y-7273499D02*
X9926001Y-7313499D01*
X9926001Y-7273499D02*
X9886001Y-7313499D01*
X10076500Y-5682300D02*
X10116500Y-5722300D01*
X10116500Y-5682300D02*
X10076500Y-5722300D01*
X10114600Y-3370900D02*
X10154600Y-3410900D01*
X10154600Y-3370900D02*
X10114600Y-3410900D01*
X10114600Y-6888800D02*
X10154600Y-6928800D01*
X10154600Y-6888800D02*
X10114600Y-6928800D01*
X10125953Y-6678577D02*
X10165953Y-6718577D01*
X10165953Y-6678577D02*
X10125953Y-6718577D01*
X10140000Y-6990400D02*
X10180000Y-7030400D01*
X10180000Y-6990400D02*
X10140000Y-7030400D01*
X10140000Y-7295200D02*
X10180000Y-7335200D01*
X10180000Y-7295200D02*
X10140000Y-7335200D01*
X10140000Y-7955600D02*
X10180000Y-7995600D01*
X10180000Y-7955600D02*
X10140000Y-7995600D01*
X10178100Y-4399600D02*
X10218100Y-4439600D01*
X10218100Y-4399600D02*
X10178100Y-4439600D01*
X10254300Y-5834700D02*
X10294300Y-5874700D01*
X10294300Y-5834700D02*
X10254300Y-5874700D01*
X10267000Y-12400600D02*
X10307000Y-12440600D01*
X10307000Y-12400600D02*
X10267000Y-12440600D01*
X10279700Y-3548700D02*
X10319700Y-3588700D01*
X10319700Y-3548700D02*
X10279700Y-3588700D01*
X10279700Y-7815900D02*
X10319700Y-7855900D01*
X10319700Y-7815900D02*
X10279700Y-7855900D01*
X10317800Y-6126800D02*
X10357800Y-6166800D01*
X10357800Y-6126800D02*
X10317800Y-6166800D01*
X10330500Y-4221800D02*
X10370500Y-4261800D01*
X10370500Y-4221800D02*
X10330500Y-4261800D01*
X10355402Y-6936743D02*
X10395402Y-6976743D01*
X10395402Y-6936743D02*
X10355402Y-6976743D01*
X10394000Y-11892600D02*
X10434000Y-11932600D01*
X10434000Y-11892600D02*
X10394000Y-11932600D01*
X10521000Y-12299000D02*
X10561000Y-12339000D01*
X10561000Y-12299000D02*
X10521000Y-12339000D01*
X10571800Y-11079800D02*
X10611800Y-11119800D01*
X10611800Y-11079800D02*
X10571800Y-11119800D01*
X10673400Y-5872800D02*
X10713400Y-5912800D01*
X10713400Y-5872800D02*
X10673400Y-5912800D01*
X10724200Y-11079800D02*
X10764200Y-11119800D01*
X10764200Y-11079800D02*
X10724200Y-11119800D01*
X10775000Y-6101400D02*
X10815000Y-6141400D01*
X10815000Y-6101400D02*
X10775000Y-6141400D01*
X10775000Y-7418501D02*
X10815000Y-7458501D01*
X10815000Y-7418501D02*
X10775000Y-7458501D01*
X10787700Y-4907600D02*
X10827700Y-4947600D01*
X10827700Y-4907600D02*
X10787700Y-4947600D01*
X10851200Y-5860100D02*
X10891200Y-5900100D01*
X10891200Y-5860100D02*
X10851200Y-5900100D01*
X10863900Y-7879400D02*
X10903900Y-7919400D01*
X10903900Y-7879400D02*
X10863900Y-7919400D01*
X10902000Y-7269800D02*
X10942000Y-7309800D01*
X10942000Y-7269800D02*
X10902000Y-7309800D01*
X10914700Y-5187000D02*
X10954700Y-5227000D01*
X10954700Y-5187000D02*
X10914700Y-5227000D01*
X11003600Y-11079800D02*
X11043600Y-11119800D01*
X11043600Y-11079800D02*
X11003600Y-11119800D01*
X11029000Y-11892600D02*
X11069000Y-11932600D01*
X11069000Y-11892600D02*
X11029000Y-11932600D01*
X11146000Y-12299000D02*
X11186000Y-12339000D01*
X11186000Y-12299000D02*
X11146000Y-12339000D01*
X11156002Y-7269800D02*
X11196002Y-7309800D01*
X11196002Y-7269800D02*
X11156002Y-7309800D01*
X11206800Y-11079800D02*
X11246800Y-11119800D01*
X11246800Y-11079800D02*
X11206800Y-11119800D01*
X11219500Y-9974900D02*
X11259500Y-10014900D01*
X11259500Y-9974900D02*
X11219500Y-10014900D01*
X11224941Y-6930102D02*
X11264941Y-6970102D01*
X11264941Y-6930102D02*
X11224941Y-6970102D01*
X11283000Y-12210100D02*
X11323000Y-12250100D01*
X11323000Y-12210100D02*
X11283000Y-12250100D01*
X11308400Y-11918000D02*
X11348400Y-11958000D01*
X11348400Y-11918000D02*
X11308400Y-11958000D01*
X11308400Y-13594400D02*
X11348400Y-13634400D01*
X11348400Y-13594400D02*
X11308400Y-13634400D01*
X11384600Y-5682300D02*
X11424600Y-5722300D01*
X11424600Y-5682300D02*
X11384600Y-5722300D01*
X11393671Y-6683521D02*
X11433671Y-6723521D01*
X11433671Y-6683521D02*
X11393671Y-6723521D01*
X11405970Y-6828522D02*
X11445970Y-6868522D01*
X11445970Y-6828522D02*
X11405970Y-6868522D01*
X11410000Y-6050600D02*
X11450000Y-6090600D01*
X11450000Y-6050600D02*
X11410000Y-6090600D01*
X11410000Y-12680000D02*
X11450000Y-12720000D01*
X11450000Y-12680000D02*
X11410000Y-12720000D01*
X11410668Y-6928413D02*
X11450668Y-6968413D01*
X11450668Y-6928413D02*
X11410668Y-6968413D01*
X11426498Y-6567502D02*
X11466498Y-6607502D01*
X11466498Y-6567502D02*
X11426498Y-6607502D01*
X11473500Y-11879900D02*
X11513500Y-11919900D01*
X11513500Y-11879900D02*
X11473500Y-11919900D01*
X11487019Y-12616217D02*
X11527019Y-12656217D01*
X11527019Y-12616217D02*
X11487019Y-12656217D01*
X11537000Y-13696000D02*
X11577000Y-13736000D01*
X11577000Y-13696000D02*
X11537000Y-13736000D01*
X11575100Y-12045000D02*
X11615100Y-12085000D01*
X11615100Y-12045000D02*
X11575100Y-12085000D01*
X11587800Y-11079800D02*
X11627800Y-11119800D01*
X11627800Y-11079800D02*
X11587800Y-11119800D01*
X11613200Y-6914200D02*
X11653200Y-6954200D01*
X11653200Y-6914200D02*
X11613200Y-6954200D01*
X11635506Y-6710722D02*
X11675506Y-6750722D01*
X11675506Y-6710722D02*
X11635506Y-6750722D01*
X11638600Y-12299000D02*
X11678600Y-12339000D01*
X11678600Y-12299000D02*
X11638600Y-12339000D01*
X11664000Y-7269800D02*
X11704000Y-7309800D01*
X11704000Y-7269800D02*
X11664000Y-7309800D01*
X11664000Y-12553000D02*
X11704000Y-12593000D01*
X11704000Y-12553000D02*
X11664000Y-12593000D01*
X11761000Y-6929750D02*
X11801000Y-6969750D01*
X11801000Y-6929750D02*
X11761000Y-6969750D01*
X11778300Y-9949500D02*
X11818300Y-9989500D01*
X11818300Y-9949500D02*
X11778300Y-9989500D01*
X11791000Y-11079800D02*
X11831000Y-11119800D01*
X11831000Y-11079800D02*
X11791000Y-11119800D01*
X11918000Y-7371400D02*
X11958000Y-7411400D01*
X11958000Y-7371400D02*
X11918000Y-7411400D01*
X11943400Y-6761800D02*
X11983400Y-6801800D01*
X11983400Y-6761800D02*
X11943400Y-6801800D01*
X12032300Y-4056700D02*
X12072300Y-4096700D01*
X12072300Y-4056700D02*
X12032300Y-4096700D01*
X12045000Y-3561400D02*
X12085000Y-3601400D01*
X12085000Y-3561400D02*
X12045000Y-3601400D01*
X12045000Y-11791000D02*
X12085000Y-11831000D01*
X12085000Y-11791000D02*
X12045000Y-11831000D01*
X12045000Y-12553000D02*
X12085000Y-12593000D01*
X12085000Y-12553000D02*
X12045000Y-12593000D01*
X12057700Y-3282000D02*
X12097700Y-3322000D01*
X12097700Y-3282000D02*
X12057700Y-3322000D01*
X12088401Y-6785476D02*
X12128401Y-6825476D01*
X12128401Y-6785476D02*
X12088401Y-6825476D01*
X12121200Y-6380800D02*
X12161200Y-6420800D01*
X12161200Y-6380800D02*
X12121200Y-6420800D01*
X12257698Y-7416739D02*
X12297698Y-7456739D01*
X12297698Y-7416739D02*
X12257698Y-7456739D01*
X12426000Y-6841996D02*
X12466000Y-6881996D01*
X12466000Y-6841996D02*
X12426000Y-6881996D01*
X12553000Y-11105200D02*
X12593000Y-11145200D01*
X12593000Y-11105200D02*
X12553000Y-11145200D01*
X12607499Y-6550954D02*
X12647499Y-6590954D01*
X12647499Y-6550954D02*
X12607499Y-6590954D01*
X12666303Y-6796081D02*
X12706303Y-6836081D01*
X12706303Y-6796081D02*
X12666303Y-6836081D01*
X12781600Y-6965000D02*
X12821600Y-7005000D01*
X12821600Y-6965000D02*
X12781600Y-7005000D01*
X12807000Y-11105200D02*
X12847000Y-11145200D01*
X12847000Y-11105200D02*
X12807000Y-11145200D01*
X12908600Y-6824277D02*
X12948600Y-6864277D01*
X12948600Y-6824277D02*
X12908600Y-6864277D01*
X12935783Y-6920513D02*
X12975783Y-6960513D01*
X12975783Y-6920513D02*
X12935783Y-6960513D01*
X13040114Y-6918714D02*
X13080114Y-6958714D01*
X13080114Y-6918714D02*
X13040114Y-6958714D01*
X13137200Y-4005900D02*
X13177200Y-4045900D01*
X13177200Y-4005900D02*
X13137200Y-4045900D01*
X13162600Y-12400600D02*
X13202600Y-12440600D01*
X13202600Y-12400600D02*
X13162600Y-12440600D01*
X13162600Y-12807000D02*
X13202600Y-12847000D01*
X13202600Y-12807000D02*
X13162600Y-12847000D01*
X13188000Y-6631202D02*
X13228000Y-6671202D01*
X13228000Y-6631202D02*
X13188000Y-6671202D01*
X13327700Y-3282000D02*
X13367700Y-3322000D01*
X13367700Y-3282000D02*
X13327700Y-3322000D01*
X13327700Y-3548700D02*
X13367700Y-3588700D01*
X13367700Y-3548700D02*
X13327700Y-3588700D01*
X13340400Y-11791000D02*
X13380400Y-11831000D01*
X13380400Y-11791000D02*
X13340400Y-11831000D01*
X13442000Y-4831400D02*
X13482000Y-4871400D01*
X13482000Y-4831400D02*
X13442000Y-4871400D01*
X13569000Y-12730800D02*
X13609000Y-12770800D01*
X13609000Y-12730800D02*
X13569000Y-12770800D01*
X13569000Y-6914200D02*
X13609000Y-6954200D01*
X13609000Y-6914200D02*
X13569000Y-6954200D01*
X13670600Y-12647595D02*
X13710600Y-12687595D01*
X13710600Y-12647595D02*
X13670600Y-12687595D01*
X13694212Y-6575481D02*
X13734212Y-6615481D01*
X13734212Y-6575481D02*
X13694212Y-6615481D01*
X13696000Y-6050600D02*
X13736000Y-6090600D01*
X13736000Y-6050600D02*
X13696000Y-6090600D01*
X13696000Y-6711000D02*
X13736000Y-6751000D01*
X13736000Y-6711000D02*
X13696000Y-6751000D01*
X13696000Y-6885101D02*
X13736000Y-6925101D01*
X13736000Y-6885101D02*
X13696000Y-6925101D01*
X13848400Y-11143300D02*
X13888400Y-11183300D01*
X13888400Y-11143300D02*
X13848400Y-11183300D01*
X13950000Y-6634800D02*
X13990000Y-6674800D01*
X13990000Y-6634800D02*
X13950000Y-6674800D01*
X14077000Y-9949500D02*
X14117000Y-9989500D01*
X14117000Y-9949500D02*
X14077000Y-9989500D01*
X14115100Y-11130600D02*
X14155100Y-11170600D01*
X14155100Y-11130600D02*
X14115100Y-11170600D01*
X14191300Y-6545900D02*
X14231300Y-6585900D01*
X14231300Y-6545900D02*
X14191300Y-6585900D01*
X14204000Y-6660200D02*
X14244000Y-6700200D01*
X14244000Y-6660200D02*
X14204000Y-6700200D01*
X14229400Y-13696000D02*
X14269400Y-13736000D01*
X14269400Y-13696000D02*
X14229400Y-13736000D01*
X14597700Y-4056700D02*
X14637700Y-4096700D01*
X14637700Y-4056700D02*
X14597700Y-4096700D01*
X14610400Y-3269300D02*
X14650400Y-3309300D01*
X14650400Y-3269300D02*
X14610400Y-3309300D01*
X14610400Y-3574100D02*
X14650400Y-3614100D01*
X14650400Y-3574100D02*
X14610400Y-3614100D01*
X14686600Y-6736400D02*
X14726600Y-6776400D01*
X14726600Y-6736400D02*
X14686600Y-6776400D01*
X14839000Y-6914200D02*
X14879000Y-6954200D01*
X14879000Y-6914200D02*
X14839000Y-6954200D01*
X14889800Y-4831400D02*
X14929800Y-4871400D01*
X14929800Y-4831400D02*
X14889800Y-4871400D01*
X15220000Y-6761800D02*
X15260000Y-6801800D01*
X15260000Y-6761800D02*
X15220000Y-6801800D01*
X15220000Y-6914200D02*
X15260000Y-6954200D01*
X15260000Y-6914200D02*
X15220000Y-6954200D01*
X15270800Y-7269800D02*
X15310800Y-7309800D01*
X15310800Y-7269800D02*
X15270800Y-7309800D01*
X15334300Y-5593400D02*
X15374300Y-5633400D01*
X15374300Y-5593400D02*
X15334300Y-5633400D01*
X15347000Y-6914200D02*
X15387000Y-6954200D01*
X15387000Y-6914200D02*
X15347000Y-6954200D01*
X15474000Y-4679000D02*
X15514000Y-4719000D01*
X15514000Y-4679000D02*
X15474000Y-4719000D01*
X15601000Y-5593400D02*
X15641000Y-5633400D01*
X15641000Y-5593400D02*
X15601000Y-5633400D01*
X15601000Y-6886996D02*
X15641000Y-6926996D01*
X15641000Y-6886996D02*
X15601000Y-6926996D01*
X15728000Y-4806000D02*
X15768000Y-4846000D01*
X15768000Y-4806000D02*
X15728000Y-4846000D01*
X15728000Y-4958400D02*
X15768000Y-4998400D01*
X15768000Y-4958400D02*
X15728000Y-4998400D01*
X15740700Y-7396800D02*
X15780700Y-7436800D01*
X15780700Y-7396800D02*
X15740700Y-7436800D01*
X15855000Y-3548700D02*
X15895000Y-3588700D01*
X15895000Y-3548700D02*
X15855000Y-3588700D01*
X15855000Y-4069400D02*
X15895000Y-4109400D01*
X15895000Y-4069400D02*
X15855000Y-4109400D01*
X15867700Y-3256600D02*
X15907700Y-3296600D01*
X15907700Y-3256600D02*
X15867700Y-3296600D01*
X15982000Y-4679000D02*
X16022000Y-4719000D01*
X16022000Y-4679000D02*
X15982000Y-4719000D01*
X15982000Y-7422200D02*
X16022000Y-7462200D01*
X16022000Y-7422200D02*
X15982000Y-7462200D01*
X16109000Y-4679000D02*
X16149000Y-4719000D01*
X16149000Y-4679000D02*
X16109000Y-4719000D01*
X16134400Y-11791000D02*
X16174400Y-11831000D01*
X16174400Y-11791000D02*
X16134400Y-11831000D01*
X16134400Y-12426000D02*
X16174400Y-12466000D01*
X16174400Y-12426000D02*
X16134400Y-12466000D01*
X16236000Y-4958400D02*
X16276000Y-4998400D01*
X16276000Y-4958400D02*
X16236000Y-4998400D01*
X16236000Y-6838000D02*
X16276000Y-6878000D01*
X16276000Y-6838000D02*
X16236000Y-6878000D01*
X16363000Y-6914200D02*
X16403000Y-6954200D01*
X16403000Y-6914200D02*
X16363000Y-6954200D01*
X16363000Y-11283000D02*
X16403000Y-11323000D01*
X16403000Y-11283000D02*
X16363000Y-11323000D01*
X16490000Y-4806000D02*
X16530000Y-4846000D01*
X16530000Y-4806000D02*
X16490000Y-4846000D01*
X16490000Y-6761800D02*
X16530000Y-6801800D01*
X16530000Y-6761800D02*
X16490000Y-6801800D01*
X16490000Y-7409500D02*
X16530000Y-7449500D01*
X16530000Y-7409500D02*
X16490000Y-7449500D01*
X16604300Y-5568000D02*
X16644300Y-5608000D01*
X16644300Y-5568000D02*
X16604300Y-5608000D01*
X16680500Y-12299000D02*
X16720500Y-12339000D01*
X16720500Y-12299000D02*
X16680500Y-12339000D01*
X16680500Y-13442000D02*
X16720500Y-13482000D01*
X16720500Y-13442000D02*
X16680500Y-13482000D01*
X16744000Y-6812600D02*
X16784000Y-6852600D01*
X16784000Y-6812600D02*
X16744000Y-6852600D01*
X16744466Y-6685134D02*
X16784466Y-6725134D01*
X16784466Y-6685134D02*
X16744466Y-6725134D01*
X16871000Y-6914200D02*
X16911000Y-6954200D01*
X16911000Y-6914200D02*
X16871000Y-6954200D01*
X17023400Y-6482400D02*
X17063400Y-6522400D01*
X17063400Y-6482400D02*
X17023400Y-6522400D01*
X17135353Y-6605701D02*
X17175353Y-6645701D01*
X17175353Y-6605701D02*
X17135353Y-6645701D01*
X17138264Y-6758101D02*
X17178264Y-6798101D01*
X17178264Y-6758101D02*
X17138264Y-6798101D01*
X17175800Y-3282000D02*
X17215800Y-3322000D01*
X17215800Y-3282000D02*
X17175800Y-3322000D01*
X17175800Y-3536000D02*
X17215800Y-3576000D01*
X17215800Y-3536000D02*
X17175800Y-3576000D01*
X17315500Y-5428300D02*
X17355500Y-5468300D01*
X17355500Y-5428300D02*
X17315500Y-5468300D01*
X17506000Y-6609399D02*
X17546000Y-6649399D01*
X17546000Y-6609399D02*
X17506000Y-6649399D01*
X17506000Y-12553000D02*
X17546000Y-12593000D01*
X17546000Y-12553000D02*
X17506000Y-12593000D01*
X17506000Y-12807000D02*
X17546000Y-12847000D01*
X17546000Y-12807000D02*
X17506000Y-12847000D01*
X17687499Y-6914613D02*
X17727499Y-6954613D01*
X17727499Y-6914613D02*
X17687499Y-6954613D01*
X17760000Y-11537000D02*
X17800000Y-11577000D01*
X17800000Y-11537000D02*
X17760000Y-11577000D01*
X17760000Y-13315000D02*
X17800000Y-13355000D01*
X17800000Y-13315000D02*
X17760000Y-13355000D01*
X17887000Y-12299000D02*
X17927000Y-12339000D01*
X17927000Y-12299000D02*
X17887000Y-12339000D01*
X17887000Y-13061000D02*
X17927000Y-13101000D01*
X17927000Y-13061000D02*
X17887000Y-13101000D01*
X17950500Y-13315000D02*
X17990500Y-13355000D01*
X17990500Y-13315000D02*
X17950500Y-13355000D01*
X17950500Y-13442000D02*
X17990500Y-13482000D01*
X17990500Y-13442000D02*
X17950500Y-13482000D01*
X17990433Y-6848103D02*
X18030433Y-6888103D01*
X18030433Y-6848103D02*
X17990433Y-6888103D01*
X18014000Y-6584000D02*
X18054000Y-6624000D01*
X18054000Y-6584000D02*
X18014000Y-6624000D01*
X18242600Y-6558600D02*
X18282600Y-6598600D01*
X18282600Y-6558600D02*
X18242600Y-6598600D01*
X18268000Y-7409500D02*
X18308000Y-7449500D01*
X18308000Y-7409500D02*
X18268000Y-7449500D01*
X18338420Y-6504586D02*
X18378420Y-6544586D01*
X18378420Y-6504586D02*
X18338420Y-6544586D01*
X18407700Y-3561400D02*
X18447700Y-3601400D01*
X18447700Y-3561400D02*
X18407700Y-3601400D01*
X18420400Y-6711000D02*
X18460400Y-6751000D01*
X18460400Y-6711000D02*
X18420400Y-6751000D01*
X18433391Y-6473270D02*
X18473391Y-6513270D01*
X18473391Y-6473270D02*
X18433391Y-6513270D01*
X18458500Y-3256600D02*
X18498500Y-3296600D01*
X18498500Y-3256600D02*
X18458500Y-3296600D01*
X18496600Y-12807000D02*
X18536600Y-12847000D01*
X18536600Y-12807000D02*
X18496600Y-12847000D01*
X18522000Y-6812600D02*
X18562000Y-6852600D01*
X18562000Y-6812600D02*
X18522000Y-6852600D01*
X18610900Y-5415600D02*
X18650900Y-5455600D01*
X18650900Y-5415600D02*
X18610900Y-5455600D01*
X18649000Y-9936800D02*
X18689000Y-9976800D01*
X18689000Y-9936800D02*
X18649000Y-9976800D01*
X18649000Y-11537000D02*
X18689000Y-11577000D01*
X18689000Y-11537000D02*
X18649000Y-11577000D01*
X18649000Y-11791000D02*
X18689000Y-11831000D01*
X18689000Y-11791000D02*
X18649000Y-11831000D01*
X18750600Y-7396800D02*
X18790600Y-7436800D01*
X18790600Y-7396800D02*
X18750600Y-7436800D01*
X18750600Y-11283000D02*
X18790600Y-11323000D01*
X18790600Y-11283000D02*
X18750600Y-11323000D01*
X18776000Y-6839508D02*
X18816000Y-6879508D01*
X18816000Y-6839508D02*
X18776000Y-6879508D01*
X18776000Y-6739506D02*
X18816000Y-6779506D01*
X18816000Y-6739506D02*
X18776000Y-6779506D01*
X19004600Y-6641023D02*
X19044600Y-6681023D01*
X19044600Y-6641023D02*
X19004600Y-6681023D01*
X19011416Y-6541255D02*
X19051416Y-6581255D01*
X19051416Y-6541255D02*
X19011416Y-6581255D01*
X19119609Y-6546915D02*
X19159609Y-6586915D01*
X19159609Y-6546915D02*
X19119609Y-6586915D01*
X19134946Y-6931302D02*
X19174946Y-6971302D01*
X19174946Y-6931302D02*
X19134946Y-6971302D01*
X19195100Y-3980500D02*
X19235100Y-4020500D01*
X19235100Y-3980500D02*
X19195100Y-4020500D01*
X19245900Y-11130600D02*
X19285900Y-11170600D01*
X19285900Y-11130600D02*
X19245900Y-11170600D01*
X19271300Y-5390200D02*
X19311300Y-5430200D01*
X19311300Y-5390200D02*
X19271300Y-5430200D01*
X19284000Y-11524300D02*
X19324000Y-11564300D01*
X19324000Y-11524300D02*
X19284000Y-11564300D01*
X19289533Y-6351096D02*
X19329533Y-6391096D01*
X19329533Y-6351096D02*
X19289533Y-6391096D01*
X19385600Y-12095800D02*
X19425600Y-12135800D01*
X19425600Y-12095800D02*
X19385600Y-12135800D01*
X19461800Y-5212400D02*
X19501800Y-5252400D01*
X19501800Y-5212400D02*
X19461800Y-5252400D01*
X19461800Y-11130600D02*
X19501800Y-11170600D01*
X19501800Y-11130600D02*
X19461800Y-11170600D01*
X19487200Y-3993200D02*
X19527200Y-4033200D01*
X19527200Y-3993200D02*
X19487200Y-4033200D01*
X19525658Y-6726903D02*
X19565658Y-6766903D01*
X19565658Y-6726903D02*
X19525658Y-6766903D01*
X19563400Y-11714800D02*
X19603400Y-11754800D01*
X19603400Y-11714800D02*
X19563400Y-11754800D01*
X19563400Y-11892600D02*
X19603400Y-11932600D01*
X19603400Y-11892600D02*
X19563400Y-11932600D01*
X19601500Y-12857800D02*
X19641500Y-12897800D01*
X19641500Y-12857800D02*
X19601500Y-12897800D01*
X19614200Y-10140000D02*
X19654200Y-10180000D01*
X19654200Y-10140000D02*
X19614200Y-10180000D01*
X19699898Y-10267000D02*
X19739898Y-10307000D01*
X19739898Y-10267000D02*
X19699898Y-10307000D01*
X19715800Y-13569000D02*
X19755800Y-13609000D01*
X19755800Y-13569000D02*
X19715800Y-13609000D01*
X19792000Y-6126800D02*
X19832000Y-6166800D01*
X19832000Y-6126800D02*
X19792000Y-6166800D01*
X19792000Y-12680000D02*
X19832000Y-12720000D01*
X19832000Y-12680000D02*
X19792000Y-12720000D01*
X19817400Y-12857800D02*
X19857400Y-12897800D01*
X19857400Y-12857800D02*
X19817400Y-12897800D01*
X19868200Y-6533200D02*
X19908200Y-6573200D01*
X19908200Y-6533200D02*
X19868200Y-6573200D01*
X19868200Y-9759000D02*
X19908200Y-9799000D01*
X19908200Y-9759000D02*
X19868200Y-9799000D01*
X19868200Y-12553000D02*
X19908200Y-12593000D01*
X19908200Y-12553000D02*
X19868200Y-12593000D01*
X19931700Y-11130600D02*
X19971700Y-11170600D01*
X19971700Y-11130600D02*
X19931700Y-11170600D01*
X19995200Y-6761800D02*
X20035200Y-6801800D01*
X20035200Y-6761800D02*
X19995200Y-6801800D01*
X20071400Y-7396800D02*
X20111400Y-7436800D01*
X20111400Y-7396800D02*
X20071400Y-7436800D01*
X20223800Y-6609401D02*
X20263800Y-6649401D01*
X20263800Y-6609401D02*
X20223800Y-6649401D01*
X20325400Y-7409500D02*
X20365400Y-7449500D01*
X20365400Y-7409500D02*
X20325400Y-7449500D01*
X20477800Y-6761800D02*
X20517800Y-6801800D01*
X20517800Y-6761800D02*
X20477800Y-6801800D01*
X20579400Y-6596700D02*
X20619400Y-6636700D01*
X20619400Y-6596700D02*
X20579400Y-6636700D01*
X20579400Y-7396800D02*
X20619400Y-7436800D01*
X20619400Y-7396800D02*
X20579400Y-7436800D01*
X20797867Y-6580301D02*
X20837867Y-6620301D01*
X20837867Y-6580301D02*
X20797867Y-6620301D01*
X20820700Y-7409500D02*
X20860700Y-7449500D01*
X20860700Y-7409500D02*
X20820700Y-7449500D01*
X20833400Y-11283000D02*
X20873400Y-11323000D01*
X20873400Y-11283000D02*
X20833400Y-11323000D01*
X20935000Y-6838000D02*
X20975000Y-6878000D01*
X20975000Y-6838000D02*
X20935000Y-6878000D01*
X20985800Y-6495100D02*
X21025800Y-6535100D01*
X21025800Y-6495100D02*
X20985800Y-6535100D01*
X21062000Y-6863400D02*
X21102000Y-6903400D01*
X21102000Y-6863400D02*
X21062000Y-6903400D01*
X21062000Y-7396800D02*
X21102000Y-7436800D01*
X21102000Y-7396800D02*
X21062000Y-7436800D01*
X21239800Y-6406200D02*
X21279800Y-6446200D01*
X21279800Y-6406200D02*
X21239800Y-6446200D01*
X21328700Y-6850700D02*
X21368700Y-6890700D01*
X21368700Y-6850700D02*
X21328700Y-6890700D01*
X21354100Y-7409500D02*
X21394100Y-7449500D01*
X21394100Y-7409500D02*
X21354100Y-7449500D01*
X21443000Y-6609400D02*
X21483000Y-6649400D01*
X21483000Y-6609400D02*
X21443000Y-6649400D01*
X21595400Y-7409500D02*
X21635400Y-7449500D01*
X21635400Y-7409500D02*
X21595400Y-7449500D01*
X21697000Y-6685600D02*
X21737000Y-6725600D01*
X21737000Y-6685600D02*
X21697000Y-6725600D01*
X21798600Y-10800400D02*
X21838600Y-10840400D01*
X21838600Y-10800400D02*
X21798600Y-10840400D01*
X21900200Y-13010200D02*
X21940200Y-13050200D01*
X21940200Y-13010200D02*
X21900200Y-13050200D01*
X22103400Y-10800400D02*
X22143400Y-10840400D01*
X22143400Y-10800400D02*
X22103400Y-10840400D01*
X22128800Y-13264200D02*
X22168800Y-13304200D01*
X22168800Y-13264200D02*
X22128800Y-13304200D01*
X8676000Y-12065000D02*
G75*
G03*
X8676000Y-12065000I-40000J0D01*
G01*
X9184000Y-8128000D02*
G75*
G03*
X9184000Y-8128000I-40000J0D01*
G01*
X9184000Y-8382000D02*
G75*
G03*
X9184000Y-8382000I-40000J0D01*
G01*
X9184000Y-8636000D02*
G75*
G03*
X9184000Y-8636000I-40000J0D01*
G01*
X9184000Y-8890000D02*
G75*
G03*
X9184000Y-8890000I-40000J0D01*
G01*
X9184000Y-9144000D02*
G75*
G03*
X9184000Y-9144000I-40000J0D01*
G01*
X9184000Y-9398000D02*
G75*
G03*
X9184000Y-9398000I-40000J0D01*
G01*
X9184000Y-9652000D02*
G75*
G03*
X9184000Y-9652000I-40000J0D01*
G01*
X9184000Y-9906000D02*
G75*
G03*
X9184000Y-9906000I-40000J0D01*
G01*
X9184000Y-10160000D02*
G75*
G03*
X9184000Y-10160000I-40000J0D01*
G01*
X9184000Y-10414000D02*
G75*
G03*
X9184000Y-10414000I-40000J0D01*
G01*
X9565000Y-9525000D02*
G75*
G03*
X9565000Y-9525000I-40000J0D01*
G01*
X9692000Y-10414000D02*
G75*
G03*
X9692000Y-10414000I-40000J0D01*
G01*
X9946000Y-8128000D02*
G75*
G03*
X9946000Y-8128000I-40000J0D01*
G01*
X9946000Y-8382000D02*
G75*
G03*
X9946000Y-8382000I-40000J0D01*
G01*
X9946000Y-8636000D02*
G75*
G03*
X9946000Y-8636000I-40000J0D01*
G01*
X9946000Y-8890000D02*
G75*
G03*
X9946000Y-8890000I-40000J0D01*
G01*
X9946000Y-9144000D02*
G75*
G03*
X9946000Y-9144000I-40000J0D01*
G01*
X9946000Y-9398000D02*
G75*
G03*
X9946000Y-9398000I-40000J0D01*
G01*
X9946000Y-9652000D02*
G75*
G03*
X9946000Y-9652000I-40000J0D01*
G01*
X9946000Y-9906000D02*
G75*
G03*
X9946000Y-9906000I-40000J0D01*
G01*
X9946000Y-10160000D02*
G75*
G03*
X9946000Y-10160000I-40000J0D01*
G01*
X9946000Y-10414000D02*
G75*
G03*
X9946000Y-10414000I-40000J0D01*
G01*
X10454000Y-9906000D02*
G75*
G03*
X10454000Y-9906000I-40000J0D01*
G01*
X10962000Y-9906000D02*
G75*
G03*
X10962000Y-9906000I-40000J0D01*
G01*
X11089000Y-5588000D02*
G75*
G03*
X11089000Y-5588000I-40000J0D01*
G01*
X11089000Y-5778500D02*
G75*
G03*
X11089000Y-5778500I-40000J0D01*
G01*
X11089000Y-5969000D02*
G75*
G03*
X11089000Y-5969000I-40000J0D01*
G01*
X11470000Y-8128000D02*
G75*
G03*
X11470000Y-8128000I-40000J0D01*
G01*
X11470000Y-8382000D02*
G75*
G03*
X11470000Y-8382000I-40000J0D01*
G01*
X11470000Y-8636000D02*
G75*
G03*
X11470000Y-8636000I-40000J0D01*
G01*
X11470000Y-8890000D02*
G75*
G03*
X11470000Y-8890000I-40000J0D01*
G01*
X11470000Y-9144000D02*
G75*
G03*
X11470000Y-9144000I-40000J0D01*
G01*
X11470000Y-9398000D02*
G75*
G03*
X11470000Y-9398000I-40000J0D01*
G01*
X11470000Y-9652000D02*
G75*
G03*
X11470000Y-9652000I-40000J0D01*
G01*
X11470000Y-9906000D02*
G75*
G03*
X11470000Y-9906000I-40000J0D01*
G01*
X11470000Y-10160000D02*
G75*
G03*
X11470000Y-10160000I-40000J0D01*
G01*
X11470000Y-10414000D02*
G75*
G03*
X11470000Y-10414000I-40000J0D01*
G01*
X11851000Y-9525000D02*
G75*
G03*
X11851000Y-9525000I-40000J0D01*
G01*
X11978000Y-10414000D02*
G75*
G03*
X11978000Y-10414000I-40000J0D01*
G01*
X12232000Y-8128000D02*
G75*
G03*
X12232000Y-8128000I-40000J0D01*
G01*
X12232000Y-8382000D02*
G75*
G03*
X12232000Y-8382000I-40000J0D01*
G01*
X12232000Y-8636000D02*
G75*
G03*
X12232000Y-8636000I-40000J0D01*
G01*
X12232000Y-8890000D02*
G75*
G03*
X12232000Y-8890000I-40000J0D01*
G01*
X12232000Y-9144000D02*
G75*
G03*
X12232000Y-9144000I-40000J0D01*
G01*
X12232000Y-9398000D02*
G75*
G03*
X12232000Y-9398000I-40000J0D01*
G01*
X12232000Y-9652000D02*
G75*
G03*
X12232000Y-9652000I-40000J0D01*
G01*
X12232000Y-9906000D02*
G75*
G03*
X12232000Y-9906000I-40000J0D01*
G01*
X12232000Y-10160000D02*
G75*
G03*
X12232000Y-10160000I-40000J0D01*
G01*
X12232000Y-10414000D02*
G75*
G03*
X12232000Y-10414000I-40000J0D01*
G01*
X12232000Y-12065000D02*
G75*
G03*
X12232000Y-12065000I-40000J0D01*
G01*
X12740000Y-9398000D02*
G75*
G03*
X12740000Y-9398000I-40000J0D01*
G01*
X12994000Y-9906000D02*
G75*
G03*
X12994000Y-9906000I-40000J0D01*
G01*
X13375000Y-9906000D02*
G75*
G03*
X13375000Y-9906000I-40000J0D01*
G01*
X13629000Y-12065000D02*
G75*
G03*
X13629000Y-12065000I-40000J0D01*
G01*
X13629000Y-12265000D02*
G75*
G03*
X13629000Y-12265000I-40000J0D01*
G01*
X13756000Y-8128000D02*
G75*
G03*
X13756000Y-8128000I-40000J0D01*
G01*
X13756000Y-8382000D02*
G75*
G03*
X13756000Y-8382000I-40000J0D01*
G01*
X13756000Y-8636000D02*
G75*
G03*
X13756000Y-8636000I-40000J0D01*
G01*
X13756000Y-8890000D02*
G75*
G03*
X13756000Y-8890000I-40000J0D01*
G01*
X13756000Y-9144000D02*
G75*
G03*
X13756000Y-9144000I-40000J0D01*
G01*
X13756000Y-9398000D02*
G75*
G03*
X13756000Y-9398000I-40000J0D01*
G01*
X13756000Y-9652000D02*
G75*
G03*
X13756000Y-9652000I-40000J0D01*
G01*
X13756000Y-9906000D02*
G75*
G03*
X13756000Y-9906000I-40000J0D01*
G01*
X13756000Y-10160000D02*
G75*
G03*
X13756000Y-10160000I-40000J0D01*
G01*
X13756000Y-10414000D02*
G75*
G03*
X13756000Y-10414000I-40000J0D01*
G01*
X14137000Y-9525000D02*
G75*
G03*
X14137000Y-9525000I-40000J0D01*
G01*
X14264000Y-10414000D02*
G75*
G03*
X14264000Y-10414000I-40000J0D01*
G01*
X14518000Y-8128000D02*
G75*
G03*
X14518000Y-8128000I-40000J0D01*
G01*
X14518000Y-8382000D02*
G75*
G03*
X14518000Y-8382000I-40000J0D01*
G01*
X14518000Y-8636000D02*
G75*
G03*
X14518000Y-8636000I-40000J0D01*
G01*
X14518000Y-8890000D02*
G75*
G03*
X14518000Y-8890000I-40000J0D01*
G01*
X14518000Y-9144000D02*
G75*
G03*
X14518000Y-9144000I-40000J0D01*
G01*
X14518000Y-9398000D02*
G75*
G03*
X14518000Y-9398000I-40000J0D01*
G01*
X14518000Y-9652000D02*
G75*
G03*
X14518000Y-9652000I-40000J0D01*
G01*
X14518000Y-9906000D02*
G75*
G03*
X14518000Y-9906000I-40000J0D01*
G01*
X14518000Y-10160000D02*
G75*
G03*
X14518000Y-10160000I-40000J0D01*
G01*
X14518000Y-10414000D02*
G75*
G03*
X14518000Y-10414000I-40000J0D01*
G01*
X15026000Y-9906000D02*
G75*
G03*
X15026000Y-9906000I-40000J0D01*
G01*
X15534000Y-11303000D02*
G75*
G03*
X15534000Y-11303000I-40000J0D01*
G01*
X15534000Y-12065000D02*
G75*
G03*
X15534000Y-12065000I-40000J0D01*
G01*
X15661000Y-9906000D02*
G75*
G03*
X15661000Y-9906000I-40000J0D01*
G01*
X16042000Y-8128000D02*
G75*
G03*
X16042000Y-8128000I-40000J0D01*
G01*
X16042000Y-8382000D02*
G75*
G03*
X16042000Y-8382000I-40000J0D01*
G01*
X16042000Y-8636000D02*
G75*
G03*
X16042000Y-8636000I-40000J0D01*
G01*
X16042000Y-8890000D02*
G75*
G03*
X16042000Y-8890000I-40000J0D01*
G01*
X16042000Y-9144000D02*
G75*
G03*
X16042000Y-9144000I-40000J0D01*
G01*
X16042000Y-9398000D02*
G75*
G03*
X16042000Y-9398000I-40000J0D01*
G01*
X16042000Y-9652000D02*
G75*
G03*
X16042000Y-9652000I-40000J0D01*
G01*
X16042000Y-9906000D02*
G75*
G03*
X16042000Y-9906000I-40000J0D01*
G01*
X16042000Y-10160000D02*
G75*
G03*
X16042000Y-10160000I-40000J0D01*
G01*
X16042000Y-10414000D02*
G75*
G03*
X16042000Y-10414000I-40000J0D01*
G01*
X16423000Y-9525000D02*
G75*
G03*
X16423000Y-9525000I-40000J0D01*
G01*
X16550000Y-10414000D02*
G75*
G03*
X16550000Y-10414000I-40000J0D01*
G01*
X16804000Y-8128000D02*
G75*
G03*
X16804000Y-8128000I-40000J0D01*
G01*
X16804000Y-8382000D02*
G75*
G03*
X16804000Y-8382000I-40000J0D01*
G01*
X16804000Y-8636000D02*
G75*
G03*
X16804000Y-8636000I-40000J0D01*
G01*
X16804000Y-8890000D02*
G75*
G03*
X16804000Y-8890000I-40000J0D01*
G01*
X16804000Y-9144000D02*
G75*
G03*
X16804000Y-9144000I-40000J0D01*
G01*
X16804000Y-9398000D02*
G75*
G03*
X16804000Y-9398000I-40000J0D01*
G01*
X16804000Y-9652000D02*
G75*
G03*
X16804000Y-9652000I-40000J0D01*
G01*
X16804000Y-9906000D02*
G75*
G03*
X16804000Y-9906000I-40000J0D01*
G01*
X16804000Y-10160000D02*
G75*
G03*
X16804000Y-10160000I-40000J0D01*
G01*
X16804000Y-10414000D02*
G75*
G03*
X16804000Y-10414000I-40000J0D01*
G01*
X16931000Y-12065000D02*
G75*
G03*
X16931000Y-12065000I-40000J0D01*
G01*
X16931000Y-12265000D02*
G75*
G03*
X16931000Y-12265000I-40000J0D01*
G01*
X17312000Y-9906000D02*
G75*
G03*
X17312000Y-9906000I-40000J0D01*
G01*
X17947000Y-9906000D02*
G75*
G03*
X17947000Y-9906000I-40000J0D01*
G01*
X18328000Y-8128000D02*
G75*
G03*
X18328000Y-8128000I-40000J0D01*
G01*
X18328000Y-8382000D02*
G75*
G03*
X18328000Y-8382000I-40000J0D01*
G01*
X18328000Y-8636000D02*
G75*
G03*
X18328000Y-8636000I-40000J0D01*
G01*
X18328000Y-8890000D02*
G75*
G03*
X18328000Y-8890000I-40000J0D01*
G01*
X18328000Y-9144000D02*
G75*
G03*
X18328000Y-9144000I-40000J0D01*
G01*
X18328000Y-9398000D02*
G75*
G03*
X18328000Y-9398000I-40000J0D01*
G01*
X18328000Y-9652000D02*
G75*
G03*
X18328000Y-9652000I-40000J0D01*
G01*
X18328000Y-9906000D02*
G75*
G03*
X18328000Y-9906000I-40000J0D01*
G01*
X18328000Y-10160000D02*
G75*
G03*
X18328000Y-10160000I-40000J0D01*
G01*
X18328000Y-10414000D02*
G75*
G03*
X18328000Y-10414000I-40000J0D01*
G01*
X18328000Y-11557000D02*
G75*
G03*
X18328000Y-11557000I-40000J0D01*
G01*
X18328000Y-11811000D02*
G75*
G03*
X18328000Y-11811000I-40000J0D01*
G01*
X18328000Y-12065000D02*
G75*
G03*
X18328000Y-12065000I-40000J0D01*
G01*
X18328000Y-12319000D02*
G75*
G03*
X18328000Y-12319000I-40000J0D01*
G01*
X18328000Y-12573000D02*
G75*
G03*
X18328000Y-12573000I-40000J0D01*
G01*
X18328000Y-12827000D02*
G75*
G03*
X18328000Y-12827000I-40000J0D01*
G01*
X18328000Y-13081000D02*
G75*
G03*
X18328000Y-13081000I-40000J0D01*
G01*
X18328000Y-13335000D02*
G75*
G03*
X18328000Y-13335000I-40000J0D01*
G01*
X18328000Y-13589000D02*
G75*
G03*
X18328000Y-13589000I-40000J0D01*
G01*
X18328000Y-13843000D02*
G75*
G03*
X18328000Y-13843000I-40000J0D01*
G01*
X18709000Y-9525000D02*
G75*
G03*
X18709000Y-9525000I-40000J0D01*
G01*
X18836000Y-10414000D02*
G75*
G03*
X18836000Y-10414000I-40000J0D01*
G01*
X19090000Y-8128000D02*
G75*
G03*
X19090000Y-8128000I-40000J0D01*
G01*
X19090000Y-8382000D02*
G75*
G03*
X19090000Y-8382000I-40000J0D01*
G01*
X19090000Y-8636000D02*
G75*
G03*
X19090000Y-8636000I-40000J0D01*
G01*
X19090000Y-8890000D02*
G75*
G03*
X19090000Y-8890000I-40000J0D01*
G01*
X19090000Y-9144000D02*
G75*
G03*
X19090000Y-9144000I-40000J0D01*
G01*
X19090000Y-9398000D02*
G75*
G03*
X19090000Y-9398000I-40000J0D01*
G01*
X19090000Y-9652000D02*
G75*
G03*
X19090000Y-9652000I-40000J0D01*
G01*
X19090000Y-9906000D02*
G75*
G03*
X19090000Y-9906000I-40000J0D01*
G01*
X19090000Y-10160000D02*
G75*
G03*
X19090000Y-10160000I-40000J0D01*
G01*
X19090000Y-10414000D02*
G75*
G03*
X19090000Y-10414000I-40000J0D01*
G01*
X19090000Y-11557000D02*
G75*
G03*
X19090000Y-11557000I-40000J0D01*
G01*
X19090000Y-11811000D02*
G75*
G03*
X19090000Y-11811000I-40000J0D01*
G01*
X19090000Y-12065000D02*
G75*
G03*
X19090000Y-12065000I-40000J0D01*
G01*
X19090000Y-12319000D02*
G75*
G03*
X19090000Y-12319000I-40000J0D01*
G01*
X19090000Y-12573000D02*
G75*
G03*
X19090000Y-12573000I-40000J0D01*
G01*
X19090000Y-12827000D02*
G75*
G03*
X19090000Y-12827000I-40000J0D01*
G01*
X19090000Y-13081000D02*
G75*
G03*
X19090000Y-13081000I-40000J0D01*
G01*
X19090000Y-13335000D02*
G75*
G03*
X19090000Y-13335000I-40000J0D01*
G01*
X19090000Y-13589000D02*
G75*
G03*
X19090000Y-13589000I-40000J0D01*
G01*
X19090000Y-13843000D02*
G75*
G03*
X19090000Y-13843000I-40000J0D01*
G01*
X19598000Y-9906000D02*
G75*
G03*
X19598000Y-9906000I-40000J0D01*
G01*
X20004400Y-12192000D02*
G75*
G03*
X20004400Y-12192000I-40000J0D01*
G01*
X20204400Y-12192000D02*
G75*
G03*
X20204400Y-12192000I-40000J0D01*
G01*
X20233000Y-9906000D02*
G75*
G03*
X20233000Y-9906000I-40000J0D01*
G01*
X20614000Y-8128000D02*
G75*
G03*
X20614000Y-8128000I-40000J0D01*
G01*
X20614000Y-8382000D02*
G75*
G03*
X20614000Y-8382000I-40000J0D01*
G01*
X20614000Y-8636000D02*
G75*
G03*
X20614000Y-8636000I-40000J0D01*
G01*
X20614000Y-8890000D02*
G75*
G03*
X20614000Y-8890000I-40000J0D01*
G01*
X20614000Y-9144000D02*
G75*
G03*
X20614000Y-9144000I-40000J0D01*
G01*
X20614000Y-9398000D02*
G75*
G03*
X20614000Y-9398000I-40000J0D01*
G01*
X20614000Y-9652000D02*
G75*
G03*
X20614000Y-9652000I-40000J0D01*
G01*
X20614000Y-9906000D02*
G75*
G03*
X20614000Y-9906000I-40000J0D01*
G01*
X20614000Y-10160000D02*
G75*
G03*
X20614000Y-10160000I-40000J0D01*
G01*
X20614000Y-10414000D02*
G75*
G03*
X20614000Y-10414000I-40000J0D01*
G01*
X20995000Y-9525000D02*
G75*
G03*
X20995000Y-9525000I-40000J0D01*
G01*
X21122000Y-10414000D02*
G75*
G03*
X21122000Y-10414000I-40000J0D01*
G01*
X21376000Y-8128000D02*
G75*
G03*
X21376000Y-8128000I-40000J0D01*
G01*
X21376000Y-8382000D02*
G75*
G03*
X21376000Y-8382000I-40000J0D01*
G01*
X21376000Y-8636000D02*
G75*
G03*
X21376000Y-8636000I-40000J0D01*
G01*
X21376000Y-8890000D02*
G75*
G03*
X21376000Y-8890000I-40000J0D01*
G01*
X21376000Y-9144000D02*
G75*
G03*
X21376000Y-9144000I-40000J0D01*
G01*
X21376000Y-9398000D02*
G75*
G03*
X21376000Y-9398000I-40000J0D01*
G01*
X21376000Y-9652000D02*
G75*
G03*
X21376000Y-9652000I-40000J0D01*
G01*
X21376000Y-9906000D02*
G75*
G03*
X21376000Y-9906000I-40000J0D01*
G01*
X21376000Y-10160000D02*
G75*
G03*
X21376000Y-10160000I-40000J0D01*
G01*
X21376000Y-10414000D02*
G75*
G03*
X21376000Y-10414000I-40000J0D01*
G01*
X21757000Y-11303000D02*
G75*
G03*
X21757000Y-11303000I-40000J0D01*
G01*
X21785600Y-12192000D02*
G75*
G03*
X21785600Y-12192000I-40000J0D01*
G01*
X21985600Y-12192000D02*
G75*
G03*
X21985600Y-12192000I-40000J0D01*
G01*
X8509000Y-7570000D02*
X8509000Y-7670000D01*
X8459000Y-7620000D02*
X8559000Y-7620000D01*
X8636000Y-13158000D02*
X8636000Y-13258000D01*
X8586000Y-13208000D02*
X8686000Y-13208000D01*
X8763000Y-7570000D02*
X8763000Y-7670000D01*
X8713000Y-7620000D02*
X8813000Y-7620000D01*
X8890000Y-13158000D02*
X8890000Y-13258000D01*
X8840000Y-13208000D02*
X8940000Y-13208000D01*
X9017000Y-7570000D02*
X9017000Y-7670000D01*
X8967000Y-7620000D02*
X9067000Y-7620000D01*
X9144000Y-13158000D02*
X9144000Y-13258000D01*
X9094000Y-13208000D02*
X9194000Y-13208000D01*
X9271000Y-7570000D02*
X9271000Y-7670000D01*
X9221000Y-7620000D02*
X9321000Y-7620000D01*
X9398000Y-13158000D02*
X9398000Y-13258000D01*
X9348000Y-13208000D02*
X9448000Y-13208000D01*
X9433000Y-5030000D02*
X9433000Y-5130000D01*
X9383000Y-5080000D02*
X9483000Y-5080000D01*
X9393000Y-4980000D02*
X9393000Y-5180000D01*
X9473000Y-4980000D02*
X9473000Y-5180000D01*
X9393000Y-5180000D02*
G75*
G03*
X9473000Y-5180000I40000J0D01*
G01*
X9473000Y-4980000D02*
G75*
G03*
X9393000Y-4980000I-40000J0D01*
G01*
X9525000Y-7570000D02*
X9525000Y-7670000D01*
X9475000Y-7620000D02*
X9575000Y-7620000D01*
X9652000Y-13158000D02*
X9652000Y-13258000D01*
X9602000Y-13208000D02*
X9702000Y-13208000D01*
X9733000Y-5500000D02*
X9733000Y-5600000D01*
X9683000Y-5550000D02*
X9783000Y-5550000D01*
X9633000Y-5590000D02*
X9833000Y-5590000D01*
X9633000Y-5510000D02*
X9833000Y-5510000D01*
X9833000Y-5590000D02*
G75*
G03*
X9833000Y-5510000I0J40000D01*
G01*
X9633000Y-5510000D02*
G75*
G03*
X9633000Y-5590000I0J-40000D01*
G01*
X9779000Y-7570000D02*
X9779000Y-7670000D01*
X9729000Y-7620000D02*
X9829000Y-7620000D01*
X9906000Y-13158000D02*
X9906000Y-13258000D01*
X9856000Y-13208000D02*
X9956000Y-13208000D01*
X10033000Y-5030000D02*
X10033000Y-5130000D01*
X9983000Y-5080000D02*
X10083000Y-5080000D01*
X9993000Y-4980000D02*
X9993000Y-5180000D01*
X10073000Y-4980000D02*
X10073000Y-5180000D01*
X9993000Y-5180000D02*
G75*
G03*
X10073000Y-5180000I40000J0D01*
G01*
X10073000Y-4980000D02*
G75*
G03*
X9993000Y-4980000I-40000J0D01*
G01*
X10033000Y-7570000D02*
X10033000Y-7670000D01*
X9983000Y-7620000D02*
X10083000Y-7620000D01*
X10160000Y-13158000D02*
X10160000Y-13258000D01*
X10110000Y-13208000D02*
X10210000Y-13208000D01*
X10287000Y-7570000D02*
X10287000Y-7670000D01*
X10237000Y-7620000D02*
X10337000Y-7620000D01*
X10414000Y-13158000D02*
X10414000Y-13258000D01*
X10364000Y-13208000D02*
X10464000Y-13208000D01*
X10422000Y-8586000D02*
X10422000Y-8686000D01*
X10372000Y-8636000D02*
X10472000Y-8636000D01*
X10541000Y-7570000D02*
X10541000Y-7670000D01*
X10491000Y-7620000D02*
X10591000Y-7620000D01*
X10668000Y-13158000D02*
X10668000Y-13258000D01*
X10618000Y-13208000D02*
X10718000Y-13208000D01*
X10795000Y-7570000D02*
X10795000Y-7670000D01*
X10745000Y-7620000D02*
X10845000Y-7620000D01*
X10922000Y-8586000D02*
X10922000Y-8686000D01*
X10872000Y-8636000D02*
X10972000Y-8636000D01*
X10922000Y-13158000D02*
X10922000Y-13258000D01*
X10872000Y-13208000D02*
X10972000Y-13208000D01*
X11049000Y-7570000D02*
X11049000Y-7670000D01*
X10999000Y-7620000D02*
X11099000Y-7620000D01*
X11176000Y-13158000D02*
X11176000Y-13258000D01*
X11126000Y-13208000D02*
X11226000Y-13208000D01*
X11303000Y-7570000D02*
X11303000Y-7670000D01*
X11253000Y-7620000D02*
X11353000Y-7620000D01*
X11430000Y-13158000D02*
X11430000Y-13258000D01*
X11380000Y-13208000D02*
X11480000Y-13208000D01*
X11557000Y-4268000D02*
X11557000Y-4368000D01*
X11507000Y-4318000D02*
X11607000Y-4318000D01*
X11557000Y-5792000D02*
X11557000Y-5892000D01*
X11507000Y-5842000D02*
X11607000Y-5842000D01*
X11557000Y-7570000D02*
X11557000Y-7670000D01*
X11507000Y-7620000D02*
X11607000Y-7620000D01*
X11684000Y-13158000D02*
X11684000Y-13258000D01*
X11634000Y-13208000D02*
X11734000Y-13208000D01*
X11811000Y-4268000D02*
X11811000Y-4368000D01*
X11761000Y-4318000D02*
X11861000Y-4318000D01*
X11811000Y-5792000D02*
X11811000Y-5892000D01*
X11761000Y-5842000D02*
X11861000Y-5842000D01*
X11811000Y-7570000D02*
X11811000Y-7670000D01*
X11761000Y-7620000D02*
X11861000Y-7620000D01*
X11938000Y-13158000D02*
X11938000Y-13258000D01*
X11888000Y-13208000D02*
X11988000Y-13208000D01*
X12065000Y-4268000D02*
X12065000Y-4368000D01*
X12015000Y-4318000D02*
X12115000Y-4318000D01*
X12065000Y-5792000D02*
X12065000Y-5892000D01*
X12015000Y-5842000D02*
X12115000Y-5842000D01*
X12065000Y-7570000D02*
X12065000Y-7670000D01*
X12015000Y-7620000D02*
X12115000Y-7620000D01*
X12192000Y-13158000D02*
X12192000Y-13258000D01*
X12142000Y-13208000D02*
X12242000Y-13208000D01*
X12319000Y-4268000D02*
X12319000Y-4368000D01*
X12269000Y-4318000D02*
X12369000Y-4318000D01*
X12319000Y-5792000D02*
X12319000Y-5892000D01*
X12269000Y-5842000D02*
X12369000Y-5842000D01*
X12319000Y-7570000D02*
X12319000Y-7670000D01*
X12269000Y-7620000D02*
X12369000Y-7620000D01*
X12446000Y-13158000D02*
X12446000Y-13258000D01*
X12396000Y-13208000D02*
X12496000Y-13208000D01*
X12573000Y-4268000D02*
X12573000Y-4368000D01*
X12523000Y-4318000D02*
X12623000Y-4318000D01*
X12573000Y-5792000D02*
X12573000Y-5892000D01*
X12523000Y-5842000D02*
X12623000Y-5842000D01*
X12573000Y-7570000D02*
X12573000Y-7670000D01*
X12523000Y-7620000D02*
X12623000Y-7620000D01*
X12700000Y-13158000D02*
X12700000Y-13258000D01*
X12650000Y-13208000D02*
X12750000Y-13208000D01*
X12708000Y-8586000D02*
X12708000Y-8686000D01*
X12658000Y-8636000D02*
X12758000Y-8636000D01*
X12827000Y-4268000D02*
X12827000Y-4368000D01*
X12777000Y-4318000D02*
X12877000Y-4318000D01*
X12827000Y-5792000D02*
X12827000Y-5892000D01*
X12777000Y-5842000D02*
X12877000Y-5842000D01*
X12827000Y-7570000D02*
X12827000Y-7670000D01*
X12777000Y-7620000D02*
X12877000Y-7620000D01*
X12954000Y-13158000D02*
X12954000Y-13258000D01*
X12904000Y-13208000D02*
X13004000Y-13208000D01*
X13081000Y-4268000D02*
X13081000Y-4368000D01*
X13031000Y-4318000D02*
X13131000Y-4318000D01*
X13081000Y-5792000D02*
X13081000Y-5892000D01*
X13031000Y-5842000D02*
X13131000Y-5842000D01*
X13081000Y-7570000D02*
X13081000Y-7670000D01*
X13031000Y-7620000D02*
X13131000Y-7620000D01*
X13208000Y-8586000D02*
X13208000Y-8686000D01*
X13158000Y-8636000D02*
X13258000Y-8636000D01*
X13335000Y-4268000D02*
X13335000Y-4368000D01*
X13285000Y-4318000D02*
X13385000Y-4318000D01*
X13335000Y-5792000D02*
X13335000Y-5892000D01*
X13285000Y-5842000D02*
X13385000Y-5842000D01*
X13335000Y-7570000D02*
X13335000Y-7670000D01*
X13285000Y-7620000D02*
X13385000Y-7620000D01*
X13589000Y-4268000D02*
X13589000Y-4368000D01*
X13539000Y-4318000D02*
X13639000Y-4318000D01*
X13589000Y-5792000D02*
X13589000Y-5892000D01*
X13539000Y-5842000D02*
X13639000Y-5842000D01*
X13589000Y-7570000D02*
X13589000Y-7670000D01*
X13539000Y-7620000D02*
X13639000Y-7620000D01*
X13843000Y-4268000D02*
X13843000Y-4368000D01*
X13793000Y-4318000D02*
X13893000Y-4318000D01*
X13843000Y-5792000D02*
X13843000Y-5892000D01*
X13793000Y-5842000D02*
X13893000Y-5842000D01*
X13843000Y-7570000D02*
X13843000Y-7670000D01*
X13793000Y-7620000D02*
X13893000Y-7620000D01*
X14097000Y-4268000D02*
X14097000Y-4368000D01*
X14047000Y-4318000D02*
X14147000Y-4318000D01*
X14097000Y-5792000D02*
X14097000Y-5892000D01*
X14047000Y-5842000D02*
X14147000Y-5842000D01*
X14097000Y-7570000D02*
X14097000Y-7670000D01*
X14047000Y-7620000D02*
X14147000Y-7620000D01*
X14097000Y-12015000D02*
X14097000Y-12115000D01*
X14047000Y-12065000D02*
X14147000Y-12065000D01*
X14097000Y-12269000D02*
X14097000Y-12369000D01*
X14047000Y-12319000D02*
X14147000Y-12319000D01*
X14097000Y-12523000D02*
X14097000Y-12623000D01*
X14047000Y-12573000D02*
X14147000Y-12573000D01*
X14097000Y-12777000D02*
X14097000Y-12877000D01*
X14047000Y-12827000D02*
X14147000Y-12827000D01*
X14097000Y-13031000D02*
X14097000Y-13131000D01*
X14047000Y-13081000D02*
X14147000Y-13081000D01*
X14097000Y-13285000D02*
X14097000Y-13385000D01*
X14047000Y-13335000D02*
X14147000Y-13335000D01*
X14097000Y-13539000D02*
X14097000Y-13639000D01*
X14047000Y-13589000D02*
X14147000Y-13589000D01*
X14097000Y-13793000D02*
X14097000Y-13893000D01*
X14047000Y-13843000D02*
X14147000Y-13843000D01*
X14351000Y-4268000D02*
X14351000Y-4368000D01*
X14301000Y-4318000D02*
X14401000Y-4318000D01*
X14351000Y-5792000D02*
X14351000Y-5892000D01*
X14301000Y-5842000D02*
X14401000Y-5842000D01*
X14351000Y-7570000D02*
X14351000Y-7670000D01*
X14301000Y-7620000D02*
X14401000Y-7620000D01*
X14605000Y-4268000D02*
X14605000Y-4368000D01*
X14555000Y-4318000D02*
X14655000Y-4318000D01*
X14605000Y-5792000D02*
X14605000Y-5892000D01*
X14555000Y-5842000D02*
X14655000Y-5842000D01*
X14605000Y-7570000D02*
X14605000Y-7670000D01*
X14555000Y-7620000D02*
X14655000Y-7620000D01*
X14859000Y-4268000D02*
X14859000Y-4368000D01*
X14809000Y-4318000D02*
X14909000Y-4318000D01*
X14859000Y-5792000D02*
X14859000Y-5892000D01*
X14809000Y-5842000D02*
X14909000Y-5842000D01*
X14859000Y-7570000D02*
X14859000Y-7670000D01*
X14809000Y-7620000D02*
X14909000Y-7620000D01*
X15113000Y-4268000D02*
X15113000Y-4368000D01*
X15063000Y-4318000D02*
X15163000Y-4318000D01*
X15113000Y-5792000D02*
X15113000Y-5892000D01*
X15063000Y-5842000D02*
X15163000Y-5842000D01*
X15113000Y-7570000D02*
X15113000Y-7670000D01*
X15063000Y-7620000D02*
X15163000Y-7620000D01*
X15367000Y-4268000D02*
X15367000Y-4368000D01*
X15317000Y-4318000D02*
X15417000Y-4318000D01*
X15367000Y-5792000D02*
X15367000Y-5892000D01*
X15317000Y-5842000D02*
X15417000Y-5842000D01*
X15367000Y-7570000D02*
X15367000Y-7670000D01*
X15317000Y-7620000D02*
X15417000Y-7620000D01*
X15621000Y-4268000D02*
X15621000Y-4368000D01*
X15571000Y-4318000D02*
X15671000Y-4318000D01*
X15621000Y-5792000D02*
X15621000Y-5892000D01*
X15571000Y-5842000D02*
X15671000Y-5842000D01*
X15621000Y-7570000D02*
X15621000Y-7670000D01*
X15571000Y-7620000D02*
X15671000Y-7620000D01*
X15875000Y-4268000D02*
X15875000Y-4368000D01*
X15825000Y-4318000D02*
X15925000Y-4318000D01*
X15875000Y-5792000D02*
X15875000Y-5892000D01*
X15825000Y-5842000D02*
X15925000Y-5842000D01*
X15875000Y-7570000D02*
X15875000Y-7670000D01*
X15825000Y-7620000D02*
X15925000Y-7620000D01*
X16129000Y-4268000D02*
X16129000Y-4368000D01*
X16079000Y-4318000D02*
X16179000Y-4318000D01*
X16129000Y-5792000D02*
X16129000Y-5892000D01*
X16079000Y-5842000D02*
X16179000Y-5842000D01*
X16129000Y-7570000D02*
X16129000Y-7670000D01*
X16079000Y-7620000D02*
X16179000Y-7620000D01*
X16383000Y-4268000D02*
X16383000Y-4368000D01*
X16333000Y-4318000D02*
X16433000Y-4318000D01*
X16383000Y-5792000D02*
X16383000Y-5892000D01*
X16333000Y-5842000D02*
X16433000Y-5842000D01*
X16383000Y-7570000D02*
X16383000Y-7670000D01*
X16333000Y-7620000D02*
X16433000Y-7620000D01*
X16383000Y-12015000D02*
X16383000Y-12115000D01*
X16333000Y-12065000D02*
X16433000Y-12065000D01*
X16383000Y-12269000D02*
X16383000Y-12369000D01*
X16333000Y-12319000D02*
X16433000Y-12319000D01*
X16383000Y-12523000D02*
X16383000Y-12623000D01*
X16333000Y-12573000D02*
X16433000Y-12573000D01*
X16383000Y-12777000D02*
X16383000Y-12877000D01*
X16333000Y-12827000D02*
X16433000Y-12827000D01*
X16383000Y-13031000D02*
X16383000Y-13131000D01*
X16333000Y-13081000D02*
X16433000Y-13081000D01*
X16383000Y-13285000D02*
X16383000Y-13385000D01*
X16333000Y-13335000D02*
X16433000Y-13335000D01*
X16383000Y-13539000D02*
X16383000Y-13639000D01*
X16333000Y-13589000D02*
X16433000Y-13589000D01*
X16383000Y-13793000D02*
X16383000Y-13893000D01*
X16333000Y-13843000D02*
X16433000Y-13843000D01*
X16637000Y-4268000D02*
X16637000Y-4368000D01*
X16587000Y-4318000D02*
X16687000Y-4318000D01*
X16637000Y-5792000D02*
X16637000Y-5892000D01*
X16587000Y-5842000D02*
X16687000Y-5842000D01*
X16637000Y-7570000D02*
X16637000Y-7670000D01*
X16587000Y-7620000D02*
X16687000Y-7620000D01*
X16891000Y-4268000D02*
X16891000Y-4368000D01*
X16841000Y-4318000D02*
X16941000Y-4318000D01*
X16891000Y-5792000D02*
X16891000Y-5892000D01*
X16841000Y-5842000D02*
X16941000Y-5842000D01*
X16891000Y-7570000D02*
X16891000Y-7670000D01*
X16841000Y-7620000D02*
X16941000Y-7620000D01*
X17145000Y-4268000D02*
X17145000Y-4368000D01*
X17095000Y-4318000D02*
X17195000Y-4318000D01*
X17145000Y-5792000D02*
X17145000Y-5892000D01*
X17095000Y-5842000D02*
X17195000Y-5842000D01*
X17145000Y-7570000D02*
X17145000Y-7670000D01*
X17095000Y-7620000D02*
X17195000Y-7620000D01*
X17280000Y-8586000D02*
X17280000Y-8686000D01*
X17230000Y-8636000D02*
X17330000Y-8636000D01*
X17399000Y-4268000D02*
X17399000Y-4368000D01*
X17349000Y-4318000D02*
X17449000Y-4318000D01*
X17399000Y-5792000D02*
X17399000Y-5892000D01*
X17349000Y-5842000D02*
X17449000Y-5842000D01*
X17399000Y-7570000D02*
X17399000Y-7670000D01*
X17349000Y-7620000D02*
X17449000Y-7620000D01*
X17653000Y-4268000D02*
X17653000Y-4368000D01*
X17603000Y-4318000D02*
X17703000Y-4318000D01*
X17653000Y-5792000D02*
X17653000Y-5892000D01*
X17603000Y-5842000D02*
X17703000Y-5842000D01*
X17653000Y-7570000D02*
X17653000Y-7670000D01*
X17603000Y-7620000D02*
X17703000Y-7620000D01*
X17780000Y-8586000D02*
X17780000Y-8686000D01*
X17730000Y-8636000D02*
X17830000Y-8636000D01*
X17907000Y-4268000D02*
X17907000Y-4368000D01*
X17857000Y-4318000D02*
X17957000Y-4318000D01*
X17907000Y-5792000D02*
X17907000Y-5892000D01*
X17857000Y-5842000D02*
X17957000Y-5842000D01*
X17907000Y-7570000D02*
X17907000Y-7670000D01*
X17857000Y-7620000D02*
X17957000Y-7620000D01*
X18161000Y-4268000D02*
X18161000Y-4368000D01*
X18111000Y-4318000D02*
X18211000Y-4318000D01*
X18161000Y-5792000D02*
X18161000Y-5892000D01*
X18111000Y-5842000D02*
X18211000Y-5842000D01*
X18161000Y-7570000D02*
X18161000Y-7670000D01*
X18111000Y-7620000D02*
X18211000Y-7620000D01*
X18415000Y-4268000D02*
X18415000Y-4368000D01*
X18365000Y-4318000D02*
X18465000Y-4318000D01*
X18415000Y-5792000D02*
X18415000Y-5892000D01*
X18365000Y-5842000D02*
X18465000Y-5842000D01*
X18415000Y-7570000D02*
X18415000Y-7670000D01*
X18365000Y-7620000D02*
X18465000Y-7620000D01*
X18669000Y-4268000D02*
X18669000Y-4368000D01*
X18619000Y-4318000D02*
X18719000Y-4318000D01*
X18669000Y-5792000D02*
X18669000Y-5892000D01*
X18619000Y-5842000D02*
X18719000Y-5842000D01*
X18669000Y-7570000D02*
X18669000Y-7670000D01*
X18619000Y-7620000D02*
X18719000Y-7620000D01*
X18923000Y-4268000D02*
X18923000Y-4368000D01*
X18873000Y-4318000D02*
X18973000Y-4318000D01*
X18923000Y-5792000D02*
X18923000Y-5892000D01*
X18873000Y-5842000D02*
X18973000Y-5842000D01*
X18923000Y-7570000D02*
X18923000Y-7670000D01*
X18873000Y-7620000D02*
X18973000Y-7620000D01*
X19177000Y-7570000D02*
X19177000Y-7670000D01*
X19127000Y-7620000D02*
X19227000Y-7620000D01*
X19431000Y-7570000D02*
X19431000Y-7670000D01*
X19381000Y-7620000D02*
X19481000Y-7620000D01*
X19566000Y-8586000D02*
X19566000Y-8686000D01*
X19516000Y-8636000D02*
X19616000Y-8636000D01*
X19685000Y-7570000D02*
X19685000Y-7670000D01*
X19635000Y-7620000D02*
X19735000Y-7620000D01*
X19939000Y-7570000D02*
X19939000Y-7670000D01*
X19889000Y-7620000D02*
X19989000Y-7620000D01*
X20066000Y-8586000D02*
X20066000Y-8686000D01*
X20016000Y-8636000D02*
X20116000Y-8636000D01*
X20193000Y-7570000D02*
X20193000Y-7670000D01*
X20143000Y-7620000D02*
X20243000Y-7620000D01*
X20447000Y-7570000D02*
X20447000Y-7670000D01*
X20397000Y-7620000D02*
X20497000Y-7620000D01*
X20701000Y-7570000D02*
X20701000Y-7670000D01*
X20651000Y-7620000D02*
X20751000Y-7620000D01*
X20955000Y-7570000D02*
X20955000Y-7670000D01*
X20905000Y-7620000D02*
X21005000Y-7620000D01*
X21209000Y-7570000D02*
X21209000Y-7670000D01*
X21159000Y-7620000D02*
X21259000Y-7620000D01*
X21463000Y-7570000D02*
X21463000Y-7670000D01*
X21413000Y-7620000D02*
X21513000Y-7620000D01*
X21717000Y-7570000D02*
X21717000Y-7670000D01*
X21667000Y-7620000D02*
X21767000Y-7620000D01*
X21971000Y-7570000D02*
X21971000Y-7670000D01*
X21921000Y-7620000D02*
X22021000Y-7620000D01*
X9749209Y-3789209D02*
X9749209Y-3717791D01*
X9677791Y-3717791D01*
X9677791Y-3789209D01*
X9749209Y-3789209D01*
X10259209Y-3909209D02*
X10259209Y-3837791D01*
X10187791Y-3837791D01*
X10187791Y-3909209D01*
X10259209Y-3909209D01*
X20447000Y-13517000D02*
X20502000Y-13462000D01*
X20447000Y-13407000D01*
X20392000Y-13462000D01*
X20447000Y-13517000D01*
X21463000Y-13517000D02*
X21518000Y-13462000D01*
X21463000Y-13407000D01*
X21408000Y-13462000D01*
X21463000Y-13517000D01*
X19683500Y-5015000D02*
X19813500Y-5145000D01*
X19813500Y-5015000D02*
X19683500Y-5145000D01*
X19813500Y-5080000D02*
G75*
G03*
X19813500Y-5080000I-65000J0D01*
G01*
X21683500Y-5015000D02*
X21813500Y-5145000D01*
X21813500Y-5015000D02*
X21683500Y-5145000D01*
X21813500Y-5080000D02*
G75*
G03*
X21813500Y-5080000I-65000J0D01*
G01*
D12*
X8411928Y-15200214D02*
X8411928Y-14900214D01*
X8483357Y-14900214D01*
X8526214Y-14914500D01*
X8554786Y-14943071D01*
X8569071Y-14971643D01*
X8583357Y-15028786D01*
X8583357Y-15071643D01*
X8569071Y-15128786D01*
X8554786Y-15157357D01*
X8526214Y-15185929D01*
X8483357Y-15200214D01*
X8411928Y-15200214D01*
X8711928Y-15200214D02*
X8711928Y-15000214D01*
X8711928Y-15057357D02*
X8726214Y-15028786D01*
X8740500Y-15014500D01*
X8769071Y-15000214D01*
X8797643Y-15000214D01*
X8897643Y-15200214D02*
X8897643Y-15000214D01*
X8897643Y-14900214D02*
X8883357Y-14914500D01*
X8897643Y-14928786D01*
X8911928Y-14914500D01*
X8897643Y-14900214D01*
X8897643Y-14928786D01*
X9083357Y-15200214D02*
X9054786Y-15185929D01*
X9040500Y-15157357D01*
X9040500Y-14900214D01*
X9240500Y-15200214D02*
X9211928Y-15185929D01*
X9197643Y-15157357D01*
X9197643Y-14900214D01*
X9583357Y-15200214D02*
X9583357Y-14900214D01*
X9683357Y-15114500D01*
X9783357Y-14900214D01*
X9783357Y-15200214D01*
X10054786Y-15200214D02*
X10054786Y-15043071D01*
X10040500Y-15014500D01*
X10011928Y-15000214D01*
X9954786Y-15000214D01*
X9926214Y-15014500D01*
X10054786Y-15185929D02*
X10026214Y-15200214D01*
X9954786Y-15200214D01*
X9926214Y-15185929D01*
X9911928Y-15157357D01*
X9911928Y-15128786D01*
X9926214Y-15100214D01*
X9954786Y-15085929D01*
X10026214Y-15085929D01*
X10054786Y-15071643D01*
X10197643Y-15000214D02*
X10197643Y-15300214D01*
X10197643Y-15014500D02*
X10226214Y-15000214D01*
X10283357Y-15000214D01*
X10311928Y-15014500D01*
X10326214Y-15028786D01*
X10340500Y-15057357D01*
X10340500Y-15143071D01*
X10326214Y-15171643D01*
X10311928Y-15185929D01*
X10283357Y-15200214D01*
X10226214Y-15200214D01*
X10197643Y-15185929D01*
X10469071Y-15171643D02*
X10483357Y-15185929D01*
X10469071Y-15200214D01*
X10454786Y-15185929D01*
X10469071Y-15171643D01*
X10469071Y-15200214D01*
X10469071Y-15014500D02*
X10483357Y-15028786D01*
X10469071Y-15043071D01*
X10454786Y-15028786D01*
X10469071Y-15014500D01*
X10469071Y-15043071D01*
X8085500Y-15674500D02*
X8125500Y-15714500D01*
X8125500Y-15674500D02*
X8085500Y-15714500D01*
X8469071Y-15530214D02*
X8497643Y-15530214D01*
X8526214Y-15544500D01*
X8540500Y-15558786D01*
X8554786Y-15587357D01*
X8569071Y-15644500D01*
X8569071Y-15715929D01*
X8554786Y-15773071D01*
X8540500Y-15801643D01*
X8526214Y-15815929D01*
X8497643Y-15830214D01*
X8469071Y-15830214D01*
X8440500Y-15815929D01*
X8426214Y-15801643D01*
X8411928Y-15773071D01*
X8397643Y-15715929D01*
X8397643Y-15644500D01*
X8411928Y-15587357D01*
X8426214Y-15558786D01*
X8440500Y-15544500D01*
X8469071Y-15530214D01*
X8697643Y-15801643D02*
X8711928Y-15815929D01*
X8697643Y-15830214D01*
X8683357Y-15815929D01*
X8697643Y-15801643D01*
X8697643Y-15830214D01*
X8969071Y-15630214D02*
X8969071Y-15830214D01*
X8897643Y-15515929D02*
X8826214Y-15730214D01*
X9011928Y-15730214D01*
X9183357Y-15530214D02*
X9211928Y-15530214D01*
X9240500Y-15544500D01*
X9254786Y-15558786D01*
X9269071Y-15587357D01*
X9283357Y-15644500D01*
X9283357Y-15715929D01*
X9269071Y-15773071D01*
X9254786Y-15801643D01*
X9240500Y-15815929D01*
X9211928Y-15830214D01*
X9183357Y-15830214D01*
X9154786Y-15815929D01*
X9140500Y-15801643D01*
X9126214Y-15773071D01*
X9111928Y-15715929D01*
X9111928Y-15644500D01*
X9126214Y-15587357D01*
X9140500Y-15558786D01*
X9154786Y-15544500D01*
X9183357Y-15530214D01*
X9469071Y-15530214D02*
X9497643Y-15530214D01*
X9526214Y-15544500D01*
X9540500Y-15558786D01*
X9554786Y-15587357D01*
X9569071Y-15644500D01*
X9569071Y-15715929D01*
X9554786Y-15773071D01*
X9540500Y-15801643D01*
X9526214Y-15815929D01*
X9497643Y-15830214D01*
X9469071Y-15830214D01*
X9440500Y-15815929D01*
X9426214Y-15801643D01*
X9411928Y-15773071D01*
X9397643Y-15715929D01*
X9397643Y-15644500D01*
X9411928Y-15587357D01*
X9426214Y-15558786D01*
X9440500Y-15544500D01*
X9469071Y-15530214D01*
X9697643Y-15830214D02*
X9697643Y-15630214D01*
X9697643Y-15658786D02*
X9711928Y-15644500D01*
X9740500Y-15630214D01*
X9783357Y-15630214D01*
X9811928Y-15644500D01*
X9826214Y-15673071D01*
X9826214Y-15830214D01*
X9826214Y-15673071D02*
X9840500Y-15644500D01*
X9869071Y-15630214D01*
X9911928Y-15630214D01*
X9940500Y-15644500D01*
X9954786Y-15673071D01*
X9954786Y-15830214D01*
X10097643Y-15830214D02*
X10097643Y-15630214D01*
X10097643Y-15658786D02*
X10111928Y-15644500D01*
X10140500Y-15630214D01*
X10183357Y-15630214D01*
X10211928Y-15644500D01*
X10226214Y-15673071D01*
X10226214Y-15830214D01*
X10226214Y-15673071D02*
X10240500Y-15644500D01*
X10269071Y-15630214D01*
X10311928Y-15630214D01*
X10340500Y-15644500D01*
X10354786Y-15673071D01*
X10354786Y-15830214D01*
X10940500Y-15515929D02*
X10683357Y-15901643D01*
X11326214Y-15530214D02*
X11354786Y-15530214D01*
X11383357Y-15544500D01*
X11397643Y-15558786D01*
X11411928Y-15587357D01*
X11426214Y-15644500D01*
X11426214Y-15715929D01*
X11411928Y-15773071D01*
X11397643Y-15801643D01*
X11383357Y-15815929D01*
X11354786Y-15830214D01*
X11326214Y-15830214D01*
X11297643Y-15815929D01*
X11283357Y-15801643D01*
X11269071Y-15773071D01*
X11254786Y-15715929D01*
X11254786Y-15644500D01*
X11269071Y-15587357D01*
X11283357Y-15558786D01*
X11297643Y-15544500D01*
X11326214Y-15530214D01*
X11554786Y-15801643D02*
X11569071Y-15815929D01*
X11554786Y-15830214D01*
X11540500Y-15815929D01*
X11554786Y-15801643D01*
X11554786Y-15830214D01*
X11754786Y-15530214D02*
X11783357Y-15530214D01*
X11811928Y-15544500D01*
X11826214Y-15558786D01*
X11840500Y-15587357D01*
X11854786Y-15644500D01*
X11854786Y-15715929D01*
X11840500Y-15773071D01*
X11826214Y-15801643D01*
X11811928Y-15815929D01*
X11783357Y-15830214D01*
X11754786Y-15830214D01*
X11726214Y-15815929D01*
X11711928Y-15801643D01*
X11697643Y-15773071D01*
X11683357Y-15715929D01*
X11683357Y-15644500D01*
X11697643Y-15587357D01*
X11711928Y-15558786D01*
X11726214Y-15544500D01*
X11754786Y-15530214D01*
X12140500Y-15830214D02*
X11969071Y-15830214D01*
X12054786Y-15830214D02*
X12054786Y-15530214D01*
X12026214Y-15573071D01*
X11997643Y-15601643D01*
X11969071Y-15615929D01*
X12411928Y-15530214D02*
X12269071Y-15530214D01*
X12254786Y-15673071D01*
X12269071Y-15658786D01*
X12297643Y-15644500D01*
X12369071Y-15644500D01*
X12397643Y-15658786D01*
X12411928Y-15673071D01*
X12426214Y-15701643D01*
X12426214Y-15773071D01*
X12411928Y-15801643D01*
X12397643Y-15815929D01*
X12369071Y-15830214D01*
X12297643Y-15830214D01*
X12269071Y-15815929D01*
X12254786Y-15801643D01*
X12526214Y-15530214D02*
X12726214Y-15530214D01*
X12597643Y-15830214D01*
X12826214Y-15530214D02*
X12826214Y-15587357D01*
X12940500Y-15530214D02*
X12940500Y-15587357D01*
X13383357Y-15944500D02*
X13369071Y-15930214D01*
X13340500Y-15887357D01*
X13326214Y-15858786D01*
X13311928Y-15815929D01*
X13297643Y-15744500D01*
X13297643Y-15687357D01*
X13311928Y-15615929D01*
X13326214Y-15573071D01*
X13340500Y-15544500D01*
X13369071Y-15501643D01*
X13383357Y-15487357D01*
X13483357Y-15558786D02*
X13497643Y-15544500D01*
X13526214Y-15530214D01*
X13597643Y-15530214D01*
X13626214Y-15544500D01*
X13640500Y-15558786D01*
X13654786Y-15587357D01*
X13654786Y-15615929D01*
X13640500Y-15658786D01*
X13469071Y-15830214D01*
X13654786Y-15830214D01*
X13911928Y-15630214D02*
X13911928Y-15830214D01*
X13840500Y-15515929D02*
X13769071Y-15730214D01*
X13954786Y-15730214D01*
X14226214Y-15830214D02*
X14054786Y-15830214D01*
X14140500Y-15830214D02*
X14140500Y-15530214D01*
X14111928Y-15573071D01*
X14083357Y-15601643D01*
X14054786Y-15615929D01*
X14583357Y-15830214D02*
X14583357Y-15530214D01*
X14711928Y-15830214D02*
X14711928Y-15673071D01*
X14697643Y-15644500D01*
X14669071Y-15630214D01*
X14626214Y-15630214D01*
X14597643Y-15644500D01*
X14583357Y-15658786D01*
X14897643Y-15830214D02*
X14869071Y-15815929D01*
X14854786Y-15801643D01*
X14840500Y-15773071D01*
X14840500Y-15687357D01*
X14854786Y-15658786D01*
X14869071Y-15644500D01*
X14897643Y-15630214D01*
X14940500Y-15630214D01*
X14969071Y-15644500D01*
X14983357Y-15658786D01*
X14997643Y-15687357D01*
X14997643Y-15773071D01*
X14983357Y-15801643D01*
X14969071Y-15815929D01*
X14940500Y-15830214D01*
X14897643Y-15830214D01*
X15169071Y-15830214D02*
X15140500Y-15815929D01*
X15126214Y-15787357D01*
X15126214Y-15530214D01*
X15397643Y-15815929D02*
X15369071Y-15830214D01*
X15311928Y-15830214D01*
X15283357Y-15815929D01*
X15269071Y-15787357D01*
X15269071Y-15673071D01*
X15283357Y-15644500D01*
X15311928Y-15630214D01*
X15369071Y-15630214D01*
X15397643Y-15644500D01*
X15411928Y-15673071D01*
X15411928Y-15701643D01*
X15269071Y-15730214D01*
X15526214Y-15815929D02*
X15554786Y-15830214D01*
X15611928Y-15830214D01*
X15640500Y-15815929D01*
X15654786Y-15787357D01*
X15654786Y-15773071D01*
X15640500Y-15744500D01*
X15611928Y-15730214D01*
X15569071Y-15730214D01*
X15540500Y-15715929D01*
X15526214Y-15687357D01*
X15526214Y-15673071D01*
X15540500Y-15644500D01*
X15569071Y-15630214D01*
X15611928Y-15630214D01*
X15640500Y-15644500D01*
X15754786Y-15944500D02*
X15769071Y-15930214D01*
X15797643Y-15887357D01*
X15811928Y-15858786D01*
X15826214Y-15815929D01*
X15840500Y-15744500D01*
X15840500Y-15687357D01*
X15826214Y-15615929D01*
X15811928Y-15573071D01*
X15797643Y-15544500D01*
X15769071Y-15501643D01*
X15754786Y-15487357D01*
X8125500Y-16090500D02*
G75*
G03*
X8125500Y-16090500I-40000J0D01*
G01*
X8469071Y-15926214D02*
X8497643Y-15926214D01*
X8526214Y-15940500D01*
X8540500Y-15954786D01*
X8554786Y-15983357D01*
X8569071Y-16040500D01*
X8569071Y-16111929D01*
X8554786Y-16169071D01*
X8540500Y-16197643D01*
X8526214Y-16211929D01*
X8497643Y-16226214D01*
X8469071Y-16226214D01*
X8440500Y-16211929D01*
X8426214Y-16197643D01*
X8411928Y-16169071D01*
X8397643Y-16111929D01*
X8397643Y-16040500D01*
X8411928Y-15983357D01*
X8426214Y-15954786D01*
X8440500Y-15940500D01*
X8469071Y-15926214D01*
X8697643Y-16197643D02*
X8711928Y-16211929D01*
X8697643Y-16226214D01*
X8683357Y-16211929D01*
X8697643Y-16197643D01*
X8697643Y-16226214D01*
X8883357Y-16054786D02*
X8854786Y-16040500D01*
X8840500Y-16026214D01*
X8826214Y-15997643D01*
X8826214Y-15983357D01*
X8840500Y-15954786D01*
X8854786Y-15940500D01*
X8883357Y-15926214D01*
X8940500Y-15926214D01*
X8969071Y-15940500D01*
X8983357Y-15954786D01*
X8997643Y-15983357D01*
X8997643Y-15997643D01*
X8983357Y-16026214D01*
X8969071Y-16040500D01*
X8940500Y-16054786D01*
X8883357Y-16054786D01*
X8854786Y-16069071D01*
X8840500Y-16083357D01*
X8826214Y-16111929D01*
X8826214Y-16169071D01*
X8840500Y-16197643D01*
X8854786Y-16211929D01*
X8883357Y-16226214D01*
X8940500Y-16226214D01*
X8969071Y-16211929D01*
X8983357Y-16197643D01*
X8997643Y-16169071D01*
X8997643Y-16111929D01*
X8983357Y-16083357D01*
X8969071Y-16069071D01*
X8940500Y-16054786D01*
X9183357Y-15926214D02*
X9211928Y-15926214D01*
X9240500Y-15940500D01*
X9254786Y-15954786D01*
X9269071Y-15983357D01*
X9283357Y-16040500D01*
X9283357Y-16111929D01*
X9269071Y-16169071D01*
X9254786Y-16197643D01*
X9240500Y-16211929D01*
X9211928Y-16226214D01*
X9183357Y-16226214D01*
X9154786Y-16211929D01*
X9140500Y-16197643D01*
X9126214Y-16169071D01*
X9111928Y-16111929D01*
X9111928Y-16040500D01*
X9126214Y-15983357D01*
X9140500Y-15954786D01*
X9154786Y-15940500D01*
X9183357Y-15926214D01*
X9469071Y-15926214D02*
X9497643Y-15926214D01*
X9526214Y-15940500D01*
X9540500Y-15954786D01*
X9554786Y-15983357D01*
X9569071Y-16040500D01*
X9569071Y-16111929D01*
X9554786Y-16169071D01*
X9540500Y-16197643D01*
X9526214Y-16211929D01*
X9497643Y-16226214D01*
X9469071Y-16226214D01*
X9440500Y-16211929D01*
X9426214Y-16197643D01*
X9411928Y-16169071D01*
X9397643Y-16111929D01*
X9397643Y-16040500D01*
X9411928Y-15983357D01*
X9426214Y-15954786D01*
X9440500Y-15940500D01*
X9469071Y-15926214D01*
X9697643Y-16226214D02*
X9697643Y-16026214D01*
X9697643Y-16054786D02*
X9711928Y-16040500D01*
X9740500Y-16026214D01*
X9783357Y-16026214D01*
X9811928Y-16040500D01*
X9826214Y-16069071D01*
X9826214Y-16226214D01*
X9826214Y-16069071D02*
X9840500Y-16040500D01*
X9869071Y-16026214D01*
X9911928Y-16026214D01*
X9940500Y-16040500D01*
X9954786Y-16069071D01*
X9954786Y-16226214D01*
X10097643Y-16226214D02*
X10097643Y-16026214D01*
X10097643Y-16054786D02*
X10111928Y-16040500D01*
X10140500Y-16026214D01*
X10183357Y-16026214D01*
X10211928Y-16040500D01*
X10226214Y-16069071D01*
X10226214Y-16226214D01*
X10226214Y-16069071D02*
X10240500Y-16040500D01*
X10269071Y-16026214D01*
X10311928Y-16026214D01*
X10340500Y-16040500D01*
X10354786Y-16069071D01*
X10354786Y-16226214D01*
X10940500Y-15911929D02*
X10683357Y-16297643D01*
X11326214Y-15926214D02*
X11354786Y-15926214D01*
X11383357Y-15940500D01*
X11397643Y-15954786D01*
X11411928Y-15983357D01*
X11426214Y-16040500D01*
X11426214Y-16111929D01*
X11411928Y-16169071D01*
X11397643Y-16197643D01*
X11383357Y-16211929D01*
X11354786Y-16226214D01*
X11326214Y-16226214D01*
X11297643Y-16211929D01*
X11283357Y-16197643D01*
X11269071Y-16169071D01*
X11254786Y-16111929D01*
X11254786Y-16040500D01*
X11269071Y-15983357D01*
X11283357Y-15954786D01*
X11297643Y-15940500D01*
X11326214Y-15926214D01*
X11554786Y-16197643D02*
X11569071Y-16211929D01*
X11554786Y-16226214D01*
X11540500Y-16211929D01*
X11554786Y-16197643D01*
X11554786Y-16226214D01*
X11754786Y-15926214D02*
X11783357Y-15926214D01*
X11811928Y-15940500D01*
X11826214Y-15954786D01*
X11840500Y-15983357D01*
X11854786Y-16040500D01*
X11854786Y-16111929D01*
X11840500Y-16169071D01*
X11826214Y-16197643D01*
X11811928Y-16211929D01*
X11783357Y-16226214D01*
X11754786Y-16226214D01*
X11726214Y-16211929D01*
X11711928Y-16197643D01*
X11697643Y-16169071D01*
X11683357Y-16111929D01*
X11683357Y-16040500D01*
X11697643Y-15983357D01*
X11711928Y-15954786D01*
X11726214Y-15940500D01*
X11754786Y-15926214D01*
X11954786Y-15926214D02*
X12140500Y-15926214D01*
X12040500Y-16040500D01*
X12083357Y-16040500D01*
X12111928Y-16054786D01*
X12126214Y-16069071D01*
X12140500Y-16097643D01*
X12140500Y-16169071D01*
X12126214Y-16197643D01*
X12111928Y-16211929D01*
X12083357Y-16226214D01*
X11997643Y-16226214D01*
X11969071Y-16211929D01*
X11954786Y-16197643D01*
X12426214Y-16226214D02*
X12254786Y-16226214D01*
X12340500Y-16226214D02*
X12340500Y-15926214D01*
X12311928Y-15969071D01*
X12283357Y-15997643D01*
X12254786Y-16011929D01*
X12697643Y-15926214D02*
X12554786Y-15926214D01*
X12540500Y-16069071D01*
X12554786Y-16054786D01*
X12583357Y-16040500D01*
X12654786Y-16040500D01*
X12683357Y-16054786D01*
X12697643Y-16069071D01*
X12711928Y-16097643D01*
X12711928Y-16169071D01*
X12697643Y-16197643D01*
X12683357Y-16211929D01*
X12654786Y-16226214D01*
X12583357Y-16226214D01*
X12554786Y-16211929D01*
X12540500Y-16197643D01*
X12826214Y-15926214D02*
X12826214Y-15983357D01*
X12940500Y-15926214D02*
X12940500Y-15983357D01*
X13383357Y-16340500D02*
X13369071Y-16326214D01*
X13340500Y-16283357D01*
X13326214Y-16254786D01*
X13311928Y-16211929D01*
X13297643Y-16140500D01*
X13297643Y-16083357D01*
X13311928Y-16011929D01*
X13326214Y-15969071D01*
X13340500Y-15940500D01*
X13369071Y-15897643D01*
X13383357Y-15883357D01*
X13654786Y-16226214D02*
X13483357Y-16226214D01*
X13569071Y-16226214D02*
X13569071Y-15926214D01*
X13540500Y-15969071D01*
X13511928Y-15997643D01*
X13483357Y-16011929D01*
X13754786Y-15926214D02*
X13954786Y-15926214D01*
X13826214Y-16226214D01*
X14083357Y-16226214D02*
X14140500Y-16226214D01*
X14169071Y-16211929D01*
X14183357Y-16197643D01*
X14211928Y-16154786D01*
X14226214Y-16097643D01*
X14226214Y-15983357D01*
X14211928Y-15954786D01*
X14197643Y-15940500D01*
X14169071Y-15926214D01*
X14111928Y-15926214D01*
X14083357Y-15940500D01*
X14069071Y-15954786D01*
X14054786Y-15983357D01*
X14054786Y-16054786D01*
X14069071Y-16083357D01*
X14083357Y-16097643D01*
X14111928Y-16111929D01*
X14169071Y-16111929D01*
X14197643Y-16097643D01*
X14211928Y-16083357D01*
X14226214Y-16054786D01*
X14583357Y-16226214D02*
X14583357Y-15926214D01*
X14711928Y-16226214D02*
X14711928Y-16069071D01*
X14697643Y-16040500D01*
X14669071Y-16026214D01*
X14626214Y-16026214D01*
X14597643Y-16040500D01*
X14583357Y-16054786D01*
X14897643Y-16226214D02*
X14869071Y-16211929D01*
X14854786Y-16197643D01*
X14840500Y-16169071D01*
X14840500Y-16083357D01*
X14854786Y-16054786D01*
X14869071Y-16040500D01*
X14897643Y-16026214D01*
X14940500Y-16026214D01*
X14969071Y-16040500D01*
X14983357Y-16054786D01*
X14997643Y-16083357D01*
X14997643Y-16169071D01*
X14983357Y-16197643D01*
X14969071Y-16211929D01*
X14940500Y-16226214D01*
X14897643Y-16226214D01*
X15169071Y-16226214D02*
X15140500Y-16211929D01*
X15126214Y-16183357D01*
X15126214Y-15926214D01*
X15397643Y-16211929D02*
X15369071Y-16226214D01*
X15311928Y-16226214D01*
X15283357Y-16211929D01*
X15269071Y-16183357D01*
X15269071Y-16069071D01*
X15283357Y-16040500D01*
X15311928Y-16026214D01*
X15369071Y-16026214D01*
X15397643Y-16040500D01*
X15411928Y-16069071D01*
X15411928Y-16097643D01*
X15269071Y-16126214D01*
X15526214Y-16211929D02*
X15554786Y-16226214D01*
X15611928Y-16226214D01*
X15640500Y-16211929D01*
X15654786Y-16183357D01*
X15654786Y-16169071D01*
X15640500Y-16140500D01*
X15611928Y-16126214D01*
X15569071Y-16126214D01*
X15540500Y-16111929D01*
X15526214Y-16083357D01*
X15526214Y-16069071D01*
X15540500Y-16040500D01*
X15569071Y-16026214D01*
X15611928Y-16026214D01*
X15640500Y-16040500D01*
X15754786Y-16340500D02*
X15769071Y-16326214D01*
X15797643Y-16283357D01*
X15811928Y-16254786D01*
X15826214Y-16211929D01*
X15840500Y-16140500D01*
X15840500Y-16083357D01*
X15826214Y-16011929D01*
X15811928Y-15969071D01*
X15797643Y-15940500D01*
X15769071Y-15897643D01*
X15754786Y-15883357D01*
X8075500Y-16436500D02*
X8075500Y-16536500D01*
X8025500Y-16486500D02*
X8125500Y-16486500D01*
X8569071Y-16622214D02*
X8397643Y-16622214D01*
X8483357Y-16622214D02*
X8483357Y-16322214D01*
X8454786Y-16365071D01*
X8426214Y-16393643D01*
X8397643Y-16407929D01*
X8697643Y-16593643D02*
X8711928Y-16607929D01*
X8697643Y-16622214D01*
X8683357Y-16607929D01*
X8697643Y-16593643D01*
X8697643Y-16622214D01*
X8897643Y-16322214D02*
X8926214Y-16322214D01*
X8954786Y-16336500D01*
X8969071Y-16350786D01*
X8983357Y-16379357D01*
X8997643Y-16436500D01*
X8997643Y-16507929D01*
X8983357Y-16565071D01*
X8969071Y-16593643D01*
X8954786Y-16607929D01*
X8926214Y-16622214D01*
X8897643Y-16622214D01*
X8869071Y-16607929D01*
X8854786Y-16593643D01*
X8840500Y-16565071D01*
X8826214Y-16507929D01*
X8826214Y-16436500D01*
X8840500Y-16379357D01*
X8854786Y-16350786D01*
X8869071Y-16336500D01*
X8897643Y-16322214D01*
X9183357Y-16322214D02*
X9211928Y-16322214D01*
X9240500Y-16336500D01*
X9254786Y-16350786D01*
X9269071Y-16379357D01*
X9283357Y-16436500D01*
X9283357Y-16507929D01*
X9269071Y-16565071D01*
X9254786Y-16593643D01*
X9240500Y-16607929D01*
X9211928Y-16622214D01*
X9183357Y-16622214D01*
X9154786Y-16607929D01*
X9140500Y-16593643D01*
X9126214Y-16565071D01*
X9111928Y-16507929D01*
X9111928Y-16436500D01*
X9126214Y-16379357D01*
X9140500Y-16350786D01*
X9154786Y-16336500D01*
X9183357Y-16322214D01*
X9469071Y-16322214D02*
X9497643Y-16322214D01*
X9526214Y-16336500D01*
X9540500Y-16350786D01*
X9554786Y-16379357D01*
X9569071Y-16436500D01*
X9569071Y-16507929D01*
X9554786Y-16565071D01*
X9540500Y-16593643D01*
X9526214Y-16607929D01*
X9497643Y-16622214D01*
X9469071Y-16622214D01*
X9440500Y-16607929D01*
X9426214Y-16593643D01*
X9411928Y-16565071D01*
X9397643Y-16507929D01*
X9397643Y-16436500D01*
X9411928Y-16379357D01*
X9426214Y-16350786D01*
X9440500Y-16336500D01*
X9469071Y-16322214D01*
X9697643Y-16622214D02*
X9697643Y-16422214D01*
X9697643Y-16450786D02*
X9711928Y-16436500D01*
X9740500Y-16422214D01*
X9783357Y-16422214D01*
X9811928Y-16436500D01*
X9826214Y-16465071D01*
X9826214Y-16622214D01*
X9826214Y-16465071D02*
X9840500Y-16436500D01*
X9869071Y-16422214D01*
X9911928Y-16422214D01*
X9940500Y-16436500D01*
X9954786Y-16465071D01*
X9954786Y-16622214D01*
X10097643Y-16622214D02*
X10097643Y-16422214D01*
X10097643Y-16450786D02*
X10111928Y-16436500D01*
X10140500Y-16422214D01*
X10183357Y-16422214D01*
X10211928Y-16436500D01*
X10226214Y-16465071D01*
X10226214Y-16622214D01*
X10226214Y-16465071D02*
X10240500Y-16436500D01*
X10269071Y-16422214D01*
X10311928Y-16422214D01*
X10340500Y-16436500D01*
X10354786Y-16465071D01*
X10354786Y-16622214D01*
X10940500Y-16307929D02*
X10683357Y-16693643D01*
X11326214Y-16322214D02*
X11354786Y-16322214D01*
X11383357Y-16336500D01*
X11397643Y-16350786D01*
X11411928Y-16379357D01*
X11426214Y-16436500D01*
X11426214Y-16507929D01*
X11411928Y-16565071D01*
X11397643Y-16593643D01*
X11383357Y-16607929D01*
X11354786Y-16622214D01*
X11326214Y-16622214D01*
X11297643Y-16607929D01*
X11283357Y-16593643D01*
X11269071Y-16565071D01*
X11254786Y-16507929D01*
X11254786Y-16436500D01*
X11269071Y-16379357D01*
X11283357Y-16350786D01*
X11297643Y-16336500D01*
X11326214Y-16322214D01*
X11554786Y-16593643D02*
X11569071Y-16607929D01*
X11554786Y-16622214D01*
X11540500Y-16607929D01*
X11554786Y-16593643D01*
X11554786Y-16622214D01*
X11754786Y-16322214D02*
X11783357Y-16322214D01*
X11811928Y-16336500D01*
X11826214Y-16350786D01*
X11840500Y-16379357D01*
X11854786Y-16436500D01*
X11854786Y-16507929D01*
X11840500Y-16565071D01*
X11826214Y-16593643D01*
X11811928Y-16607929D01*
X11783357Y-16622214D01*
X11754786Y-16622214D01*
X11726214Y-16607929D01*
X11711928Y-16593643D01*
X11697643Y-16565071D01*
X11683357Y-16507929D01*
X11683357Y-16436500D01*
X11697643Y-16379357D01*
X11711928Y-16350786D01*
X11726214Y-16336500D01*
X11754786Y-16322214D01*
X11954786Y-16322214D02*
X12140500Y-16322214D01*
X12040500Y-16436500D01*
X12083357Y-16436500D01*
X12111928Y-16450786D01*
X12126214Y-16465071D01*
X12140500Y-16493643D01*
X12140500Y-16565071D01*
X12126214Y-16593643D01*
X12111928Y-16607929D01*
X12083357Y-16622214D01*
X11997643Y-16622214D01*
X11969071Y-16607929D01*
X11954786Y-16593643D01*
X12283357Y-16622214D02*
X12340500Y-16622214D01*
X12369071Y-16607929D01*
X12383357Y-16593643D01*
X12411928Y-16550786D01*
X12426214Y-16493643D01*
X12426214Y-16379357D01*
X12411928Y-16350786D01*
X12397643Y-16336500D01*
X12369071Y-16322214D01*
X12311928Y-16322214D01*
X12283357Y-16336500D01*
X12269071Y-16350786D01*
X12254786Y-16379357D01*
X12254786Y-16450786D01*
X12269071Y-16479357D01*
X12283357Y-16493643D01*
X12311928Y-16507929D01*
X12369071Y-16507929D01*
X12397643Y-16493643D01*
X12411928Y-16479357D01*
X12426214Y-16450786D01*
X12683357Y-16422214D02*
X12683357Y-16622214D01*
X12611928Y-16307929D02*
X12540500Y-16522214D01*
X12726214Y-16522214D01*
X12826214Y-16322214D02*
X12826214Y-16379357D01*
X12940500Y-16322214D02*
X12940500Y-16379357D01*
X13383357Y-16736500D02*
X13369071Y-16722214D01*
X13340500Y-16679357D01*
X13326214Y-16650786D01*
X13311928Y-16607929D01*
X13297643Y-16536500D01*
X13297643Y-16479357D01*
X13311928Y-16407929D01*
X13326214Y-16365071D01*
X13340500Y-16336500D01*
X13369071Y-16293643D01*
X13383357Y-16279357D01*
X13654786Y-16622214D02*
X13483357Y-16622214D01*
X13569071Y-16622214D02*
X13569071Y-16322214D01*
X13540500Y-16365071D01*
X13511928Y-16393643D01*
X13483357Y-16407929D01*
X13926214Y-16322214D02*
X13783357Y-16322214D01*
X13769071Y-16465071D01*
X13783357Y-16450786D01*
X13811928Y-16436500D01*
X13883357Y-16436500D01*
X13911928Y-16450786D01*
X13926214Y-16465071D01*
X13940500Y-16493643D01*
X13940500Y-16565071D01*
X13926214Y-16593643D01*
X13911928Y-16607929D01*
X13883357Y-16622214D01*
X13811928Y-16622214D01*
X13783357Y-16607929D01*
X13769071Y-16593643D01*
X14197643Y-16322214D02*
X14140500Y-16322214D01*
X14111928Y-16336500D01*
X14097643Y-16350786D01*
X14069071Y-16393643D01*
X14054786Y-16450786D01*
X14054786Y-16565071D01*
X14069071Y-16593643D01*
X14083357Y-16607929D01*
X14111928Y-16622214D01*
X14169071Y-16622214D01*
X14197643Y-16607929D01*
X14211928Y-16593643D01*
X14226214Y-16565071D01*
X14226214Y-16493643D01*
X14211928Y-16465071D01*
X14197643Y-16450786D01*
X14169071Y-16436500D01*
X14111928Y-16436500D01*
X14083357Y-16450786D01*
X14069071Y-16465071D01*
X14054786Y-16493643D01*
X14583357Y-16622214D02*
X14583357Y-16322214D01*
X14711928Y-16622214D02*
X14711928Y-16465071D01*
X14697643Y-16436500D01*
X14669071Y-16422214D01*
X14626214Y-16422214D01*
X14597643Y-16436500D01*
X14583357Y-16450786D01*
X14897643Y-16622214D02*
X14869071Y-16607929D01*
X14854786Y-16593643D01*
X14840500Y-16565071D01*
X14840500Y-16479357D01*
X14854786Y-16450786D01*
X14869071Y-16436500D01*
X14897643Y-16422214D01*
X14940500Y-16422214D01*
X14969071Y-16436500D01*
X14983357Y-16450786D01*
X14997643Y-16479357D01*
X14997643Y-16565071D01*
X14983357Y-16593643D01*
X14969071Y-16607929D01*
X14940500Y-16622214D01*
X14897643Y-16622214D01*
X15169071Y-16622214D02*
X15140500Y-16607929D01*
X15126214Y-16579357D01*
X15126214Y-16322214D01*
X15397643Y-16607929D02*
X15369071Y-16622214D01*
X15311928Y-16622214D01*
X15283357Y-16607929D01*
X15269071Y-16579357D01*
X15269071Y-16465071D01*
X15283357Y-16436500D01*
X15311928Y-16422214D01*
X15369071Y-16422214D01*
X15397643Y-16436500D01*
X15411928Y-16465071D01*
X15411928Y-16493643D01*
X15269071Y-16522214D01*
X15526214Y-16607929D02*
X15554786Y-16622214D01*
X15611928Y-16622214D01*
X15640500Y-16607929D01*
X15654786Y-16579357D01*
X15654786Y-16565071D01*
X15640500Y-16536500D01*
X15611928Y-16522214D01*
X15569071Y-16522214D01*
X15540500Y-16507929D01*
X15526214Y-16479357D01*
X15526214Y-16465071D01*
X15540500Y-16436500D01*
X15569071Y-16422214D01*
X15611928Y-16422214D01*
X15640500Y-16436500D01*
X16011928Y-16507929D02*
X16240500Y-16507929D01*
X16126214Y-16622214D02*
X16126214Y-16393643D01*
X16583357Y-16322214D02*
X16769071Y-16322214D01*
X16669071Y-16436500D01*
X16711928Y-16436500D01*
X16740500Y-16450786D01*
X16754786Y-16465071D01*
X16769071Y-16493643D01*
X16769071Y-16565071D01*
X16754786Y-16593643D01*
X16740500Y-16607929D01*
X16711928Y-16622214D01*
X16626214Y-16622214D01*
X16597643Y-16607929D01*
X16583357Y-16593643D01*
X17111928Y-16607929D02*
X17140500Y-16622214D01*
X17197643Y-16622214D01*
X17226214Y-16607929D01*
X17240500Y-16579357D01*
X17240500Y-16565071D01*
X17226214Y-16536500D01*
X17197643Y-16522214D01*
X17154786Y-16522214D01*
X17126214Y-16507929D01*
X17111928Y-16479357D01*
X17111928Y-16465071D01*
X17126214Y-16436500D01*
X17154786Y-16422214D01*
X17197643Y-16422214D01*
X17226214Y-16436500D01*
X17411928Y-16622214D02*
X17383357Y-16607929D01*
X17369071Y-16579357D01*
X17369071Y-16322214D01*
X17569071Y-16622214D02*
X17540500Y-16607929D01*
X17526214Y-16593643D01*
X17511928Y-16565071D01*
X17511928Y-16479357D01*
X17526214Y-16450786D01*
X17540500Y-16436500D01*
X17569071Y-16422214D01*
X17611928Y-16422214D01*
X17640500Y-16436500D01*
X17654786Y-16450786D01*
X17669071Y-16479357D01*
X17669071Y-16565071D01*
X17654786Y-16593643D01*
X17640500Y-16607929D01*
X17611928Y-16622214D01*
X17569071Y-16622214D01*
X17754786Y-16422214D02*
X17869071Y-16422214D01*
X17797643Y-16322214D02*
X17797643Y-16579357D01*
X17811928Y-16607929D01*
X17840500Y-16622214D01*
X17869071Y-16622214D01*
X17954786Y-16607929D02*
X17983357Y-16622214D01*
X18040500Y-16622214D01*
X18069071Y-16607929D01*
X18083357Y-16579357D01*
X18083357Y-16565071D01*
X18069071Y-16536500D01*
X18040500Y-16522214D01*
X17997643Y-16522214D01*
X17969071Y-16507929D01*
X17954786Y-16479357D01*
X17954786Y-16465071D01*
X17969071Y-16436500D01*
X17997643Y-16422214D01*
X18040500Y-16422214D01*
X18069071Y-16436500D01*
X18183357Y-16736500D02*
X18197643Y-16722214D01*
X18226214Y-16679357D01*
X18240500Y-16650786D01*
X18254786Y-16607929D01*
X18269071Y-16536500D01*
X18269071Y-16479357D01*
X18254786Y-16407929D01*
X18240500Y-16365071D01*
X18226214Y-16336500D01*
X18197643Y-16293643D01*
X18183357Y-16279357D01*
X8110709Y-16918209D02*
X8110709Y-16846791D01*
X8039291Y-16846791D01*
X8039291Y-16918209D01*
X8110709Y-16918209D01*
X8569071Y-17018214D02*
X8397643Y-17018214D01*
X8483357Y-17018214D02*
X8483357Y-16718214D01*
X8454786Y-16761071D01*
X8426214Y-16789643D01*
X8397643Y-16803929D01*
X8697643Y-16989643D02*
X8711928Y-17003929D01*
X8697643Y-17018214D01*
X8683357Y-17003929D01*
X8697643Y-16989643D01*
X8697643Y-17018214D01*
X8897643Y-16718214D02*
X8926214Y-16718214D01*
X8954786Y-16732500D01*
X8969071Y-16746786D01*
X8983357Y-16775357D01*
X8997643Y-16832500D01*
X8997643Y-16903929D01*
X8983357Y-16961072D01*
X8969071Y-16989643D01*
X8954786Y-17003929D01*
X8926214Y-17018214D01*
X8897643Y-17018214D01*
X8869071Y-17003929D01*
X8854786Y-16989643D01*
X8840500Y-16961072D01*
X8826214Y-16903929D01*
X8826214Y-16832500D01*
X8840500Y-16775357D01*
X8854786Y-16746786D01*
X8869071Y-16732500D01*
X8897643Y-16718214D01*
X9283357Y-17018214D02*
X9111928Y-17018214D01*
X9197643Y-17018214D02*
X9197643Y-16718214D01*
X9169071Y-16761071D01*
X9140500Y-16789643D01*
X9111928Y-16803929D01*
X9469071Y-16718214D02*
X9497643Y-16718214D01*
X9526214Y-16732500D01*
X9540500Y-16746786D01*
X9554786Y-16775357D01*
X9569071Y-16832500D01*
X9569071Y-16903929D01*
X9554786Y-16961072D01*
X9540500Y-16989643D01*
X9526214Y-17003929D01*
X9497643Y-17018214D01*
X9469071Y-17018214D01*
X9440500Y-17003929D01*
X9426214Y-16989643D01*
X9411928Y-16961072D01*
X9397643Y-16903929D01*
X9397643Y-16832500D01*
X9411928Y-16775357D01*
X9426214Y-16746786D01*
X9440500Y-16732500D01*
X9469071Y-16718214D01*
X9697643Y-17018214D02*
X9697643Y-16818214D01*
X9697643Y-16846786D02*
X9711928Y-16832500D01*
X9740500Y-16818214D01*
X9783357Y-16818214D01*
X9811928Y-16832500D01*
X9826214Y-16861072D01*
X9826214Y-17018214D01*
X9826214Y-16861072D02*
X9840500Y-16832500D01*
X9869071Y-16818214D01*
X9911928Y-16818214D01*
X9940500Y-16832500D01*
X9954786Y-16861072D01*
X9954786Y-17018214D01*
X10097643Y-17018214D02*
X10097643Y-16818214D01*
X10097643Y-16846786D02*
X10111928Y-16832500D01*
X10140500Y-16818214D01*
X10183357Y-16818214D01*
X10211928Y-16832500D01*
X10226214Y-16861072D01*
X10226214Y-17018214D01*
X10226214Y-16861072D02*
X10240500Y-16832500D01*
X10269071Y-16818214D01*
X10311928Y-16818214D01*
X10340500Y-16832500D01*
X10354786Y-16861072D01*
X10354786Y-17018214D01*
X10940500Y-16703929D02*
X10683357Y-17089643D01*
X11326214Y-16718214D02*
X11354786Y-16718214D01*
X11383357Y-16732500D01*
X11397643Y-16746786D01*
X11411928Y-16775357D01*
X11426214Y-16832500D01*
X11426214Y-16903929D01*
X11411928Y-16961072D01*
X11397643Y-16989643D01*
X11383357Y-17003929D01*
X11354786Y-17018214D01*
X11326214Y-17018214D01*
X11297643Y-17003929D01*
X11283357Y-16989643D01*
X11269071Y-16961072D01*
X11254786Y-16903929D01*
X11254786Y-16832500D01*
X11269071Y-16775357D01*
X11283357Y-16746786D01*
X11297643Y-16732500D01*
X11326214Y-16718214D01*
X11554786Y-16989643D02*
X11569071Y-17003929D01*
X11554786Y-17018214D01*
X11540500Y-17003929D01*
X11554786Y-16989643D01*
X11554786Y-17018214D01*
X11754786Y-16718214D02*
X11783357Y-16718214D01*
X11811928Y-16732500D01*
X11826214Y-16746786D01*
X11840500Y-16775357D01*
X11854786Y-16832500D01*
X11854786Y-16903929D01*
X11840500Y-16961072D01*
X11826214Y-16989643D01*
X11811928Y-17003929D01*
X11783357Y-17018214D01*
X11754786Y-17018214D01*
X11726214Y-17003929D01*
X11711928Y-16989643D01*
X11697643Y-16961072D01*
X11683357Y-16903929D01*
X11683357Y-16832500D01*
X11697643Y-16775357D01*
X11711928Y-16746786D01*
X11726214Y-16732500D01*
X11754786Y-16718214D01*
X11954786Y-16718214D02*
X12140500Y-16718214D01*
X12040500Y-16832500D01*
X12083357Y-16832500D01*
X12111928Y-16846786D01*
X12126214Y-16861072D01*
X12140500Y-16889643D01*
X12140500Y-16961072D01*
X12126214Y-16989643D01*
X12111928Y-17003929D01*
X12083357Y-17018214D01*
X11997643Y-17018214D01*
X11969071Y-17003929D01*
X11954786Y-16989643D01*
X12283357Y-17018214D02*
X12340500Y-17018214D01*
X12369071Y-17003929D01*
X12383357Y-16989643D01*
X12411928Y-16946786D01*
X12426214Y-16889643D01*
X12426214Y-16775357D01*
X12411928Y-16746786D01*
X12397643Y-16732500D01*
X12369071Y-16718214D01*
X12311928Y-16718214D01*
X12283357Y-16732500D01*
X12269071Y-16746786D01*
X12254786Y-16775357D01*
X12254786Y-16846786D01*
X12269071Y-16875357D01*
X12283357Y-16889643D01*
X12311928Y-16903929D01*
X12369071Y-16903929D01*
X12397643Y-16889643D01*
X12411928Y-16875357D01*
X12426214Y-16846786D01*
X12597643Y-16846786D02*
X12569071Y-16832500D01*
X12554786Y-16818214D01*
X12540500Y-16789643D01*
X12540500Y-16775357D01*
X12554786Y-16746786D01*
X12569071Y-16732500D01*
X12597643Y-16718214D01*
X12654786Y-16718214D01*
X12683357Y-16732500D01*
X12697643Y-16746786D01*
X12711928Y-16775357D01*
X12711928Y-16789643D01*
X12697643Y-16818214D01*
X12683357Y-16832500D01*
X12654786Y-16846786D01*
X12597643Y-16846786D01*
X12569071Y-16861072D01*
X12554786Y-16875357D01*
X12540500Y-16903929D01*
X12540500Y-16961072D01*
X12554786Y-16989643D01*
X12569071Y-17003929D01*
X12597643Y-17018214D01*
X12654786Y-17018214D01*
X12683357Y-17003929D01*
X12697643Y-16989643D01*
X12711928Y-16961072D01*
X12711928Y-16903929D01*
X12697643Y-16875357D01*
X12683357Y-16861072D01*
X12654786Y-16846786D01*
X12826214Y-16718214D02*
X12826214Y-16775357D01*
X12940500Y-16718214D02*
X12940500Y-16775357D01*
X13383357Y-17132500D02*
X13369071Y-17118214D01*
X13340500Y-17075357D01*
X13326214Y-17046786D01*
X13311928Y-17003929D01*
X13297643Y-16932500D01*
X13297643Y-16875357D01*
X13311928Y-16803929D01*
X13326214Y-16761071D01*
X13340500Y-16732500D01*
X13369071Y-16689643D01*
X13383357Y-16675357D01*
X13483357Y-16746786D02*
X13497643Y-16732500D01*
X13526214Y-16718214D01*
X13597643Y-16718214D01*
X13626214Y-16732500D01*
X13640500Y-16746786D01*
X13654786Y-16775357D01*
X13654786Y-16803929D01*
X13640500Y-16846786D01*
X13469071Y-17018214D01*
X13654786Y-17018214D01*
X14011928Y-17018214D02*
X14011928Y-16718214D01*
X14140500Y-17018214D02*
X14140500Y-16861072D01*
X14126214Y-16832500D01*
X14097643Y-16818214D01*
X14054786Y-16818214D01*
X14026214Y-16832500D01*
X14011928Y-16846786D01*
X14326214Y-17018214D02*
X14297643Y-17003929D01*
X14283357Y-16989643D01*
X14269071Y-16961072D01*
X14269071Y-16875357D01*
X14283357Y-16846786D01*
X14297643Y-16832500D01*
X14326214Y-16818214D01*
X14369071Y-16818214D01*
X14397643Y-16832500D01*
X14411928Y-16846786D01*
X14426214Y-16875357D01*
X14426214Y-16961072D01*
X14411928Y-16989643D01*
X14397643Y-17003929D01*
X14369071Y-17018214D01*
X14326214Y-17018214D01*
X14597643Y-17018214D02*
X14569071Y-17003929D01*
X14554786Y-16975357D01*
X14554786Y-16718214D01*
X14826214Y-17003929D02*
X14797643Y-17018214D01*
X14740500Y-17018214D01*
X14711928Y-17003929D01*
X14697643Y-16975357D01*
X14697643Y-16861072D01*
X14711928Y-16832500D01*
X14740500Y-16818214D01*
X14797643Y-16818214D01*
X14826214Y-16832500D01*
X14840500Y-16861072D01*
X14840500Y-16889643D01*
X14697643Y-16918214D01*
X14954786Y-17003929D02*
X14983357Y-17018214D01*
X15040500Y-17018214D01*
X15069071Y-17003929D01*
X15083357Y-16975357D01*
X15083357Y-16961072D01*
X15069071Y-16932500D01*
X15040500Y-16918214D01*
X14997643Y-16918214D01*
X14969071Y-16903929D01*
X14954786Y-16875357D01*
X14954786Y-16861072D01*
X14969071Y-16832500D01*
X14997643Y-16818214D01*
X15040500Y-16818214D01*
X15069071Y-16832500D01*
X15183357Y-17132500D02*
X15197643Y-17118214D01*
X15226214Y-17075357D01*
X15240500Y-17046786D01*
X15254786Y-17003929D01*
X15269071Y-16932500D01*
X15269071Y-16875357D01*
X15254786Y-16803929D01*
X15240500Y-16761071D01*
X15226214Y-16732500D01*
X15197643Y-16689643D01*
X15183357Y-16675357D01*
X8070500Y-17333500D02*
X8125500Y-17278500D01*
X8070500Y-17223500D01*
X8015500Y-17278500D01*
X8070500Y-17333500D01*
X8569071Y-17414214D02*
X8397643Y-17414214D01*
X8483357Y-17414214D02*
X8483357Y-17114214D01*
X8454786Y-17157072D01*
X8426214Y-17185643D01*
X8397643Y-17199929D01*
X8697643Y-17385643D02*
X8711928Y-17399929D01*
X8697643Y-17414214D01*
X8683357Y-17399929D01*
X8697643Y-17385643D01*
X8697643Y-17414214D01*
X8997643Y-17414214D02*
X8826214Y-17414214D01*
X8911928Y-17414214D02*
X8911928Y-17114214D01*
X8883357Y-17157072D01*
X8854786Y-17185643D01*
X8826214Y-17199929D01*
X9183357Y-17114214D02*
X9211928Y-17114214D01*
X9240500Y-17128500D01*
X9254786Y-17142786D01*
X9269071Y-17171357D01*
X9283357Y-17228500D01*
X9283357Y-17299929D01*
X9269071Y-17357072D01*
X9254786Y-17385643D01*
X9240500Y-17399929D01*
X9211928Y-17414214D01*
X9183357Y-17414214D01*
X9154786Y-17399929D01*
X9140500Y-17385643D01*
X9126214Y-17357072D01*
X9111928Y-17299929D01*
X9111928Y-17228500D01*
X9126214Y-17171357D01*
X9140500Y-17142786D01*
X9154786Y-17128500D01*
X9183357Y-17114214D01*
X9469071Y-17114214D02*
X9497643Y-17114214D01*
X9526214Y-17128500D01*
X9540500Y-17142786D01*
X9554786Y-17171357D01*
X9569071Y-17228500D01*
X9569071Y-17299929D01*
X9554786Y-17357072D01*
X9540500Y-17385643D01*
X9526214Y-17399929D01*
X9497643Y-17414214D01*
X9469071Y-17414214D01*
X9440500Y-17399929D01*
X9426214Y-17385643D01*
X9411928Y-17357072D01*
X9397643Y-17299929D01*
X9397643Y-17228500D01*
X9411928Y-17171357D01*
X9426214Y-17142786D01*
X9440500Y-17128500D01*
X9469071Y-17114214D01*
X9697643Y-17414214D02*
X9697643Y-17214214D01*
X9697643Y-17242786D02*
X9711928Y-17228500D01*
X9740500Y-17214214D01*
X9783357Y-17214214D01*
X9811928Y-17228500D01*
X9826214Y-17257072D01*
X9826214Y-17414214D01*
X9826214Y-17257072D02*
X9840500Y-17228500D01*
X9869071Y-17214214D01*
X9911928Y-17214214D01*
X9940500Y-17228500D01*
X9954786Y-17257072D01*
X9954786Y-17414214D01*
X10097643Y-17414214D02*
X10097643Y-17214214D01*
X10097643Y-17242786D02*
X10111928Y-17228500D01*
X10140500Y-17214214D01*
X10183357Y-17214214D01*
X10211928Y-17228500D01*
X10226214Y-17257072D01*
X10226214Y-17414214D01*
X10226214Y-17257072D02*
X10240500Y-17228500D01*
X10269071Y-17214214D01*
X10311928Y-17214214D01*
X10340500Y-17228500D01*
X10354786Y-17257072D01*
X10354786Y-17414214D01*
X10940500Y-17099929D02*
X10683357Y-17485643D01*
X11326214Y-17114214D02*
X11354786Y-17114214D01*
X11383357Y-17128500D01*
X11397643Y-17142786D01*
X11411928Y-17171357D01*
X11426214Y-17228500D01*
X11426214Y-17299929D01*
X11411928Y-17357072D01*
X11397643Y-17385643D01*
X11383357Y-17399929D01*
X11354786Y-17414214D01*
X11326214Y-17414214D01*
X11297643Y-17399929D01*
X11283357Y-17385643D01*
X11269071Y-17357072D01*
X11254786Y-17299929D01*
X11254786Y-17228500D01*
X11269071Y-17171357D01*
X11283357Y-17142786D01*
X11297643Y-17128500D01*
X11326214Y-17114214D01*
X11554786Y-17385643D02*
X11569071Y-17399929D01*
X11554786Y-17414214D01*
X11540500Y-17399929D01*
X11554786Y-17385643D01*
X11554786Y-17414214D01*
X11754786Y-17114214D02*
X11783357Y-17114214D01*
X11811928Y-17128500D01*
X11826214Y-17142786D01*
X11840500Y-17171357D01*
X11854786Y-17228500D01*
X11854786Y-17299929D01*
X11840500Y-17357072D01*
X11826214Y-17385643D01*
X11811928Y-17399929D01*
X11783357Y-17414214D01*
X11754786Y-17414214D01*
X11726214Y-17399929D01*
X11711928Y-17385643D01*
X11697643Y-17357072D01*
X11683357Y-17299929D01*
X11683357Y-17228500D01*
X11697643Y-17171357D01*
X11711928Y-17142786D01*
X11726214Y-17128500D01*
X11754786Y-17114214D01*
X12111928Y-17214214D02*
X12111928Y-17414214D01*
X12040500Y-17099929D02*
X11969071Y-17314214D01*
X12154786Y-17314214D01*
X12240500Y-17114214D02*
X12426214Y-17114214D01*
X12326214Y-17228500D01*
X12369071Y-17228500D01*
X12397643Y-17242786D01*
X12411928Y-17257072D01*
X12426214Y-17285643D01*
X12426214Y-17357072D01*
X12411928Y-17385643D01*
X12397643Y-17399929D01*
X12369071Y-17414214D01*
X12283357Y-17414214D01*
X12254786Y-17399929D01*
X12240500Y-17385643D01*
X12526214Y-17114214D02*
X12711928Y-17114214D01*
X12611928Y-17228500D01*
X12654786Y-17228500D01*
X12683357Y-17242786D01*
X12697643Y-17257072D01*
X12711928Y-17285643D01*
X12711928Y-17357072D01*
X12697643Y-17385643D01*
X12683357Y-17399929D01*
X12654786Y-17414214D01*
X12569071Y-17414214D01*
X12540500Y-17399929D01*
X12526214Y-17385643D01*
X12826214Y-17114214D02*
X12826214Y-17171357D01*
X12940500Y-17114214D02*
X12940500Y-17171357D01*
X13383357Y-17528500D02*
X13369071Y-17514214D01*
X13340500Y-17471357D01*
X13326214Y-17442786D01*
X13311928Y-17399929D01*
X13297643Y-17328500D01*
X13297643Y-17271357D01*
X13311928Y-17199929D01*
X13326214Y-17157072D01*
X13340500Y-17128500D01*
X13369071Y-17085643D01*
X13383357Y-17071357D01*
X13483357Y-17142786D02*
X13497643Y-17128500D01*
X13526214Y-17114214D01*
X13597643Y-17114214D01*
X13626214Y-17128500D01*
X13640500Y-17142786D01*
X13654786Y-17171357D01*
X13654786Y-17199929D01*
X13640500Y-17242786D01*
X13469071Y-17414214D01*
X13654786Y-17414214D01*
X14011928Y-17414214D02*
X14011928Y-17114214D01*
X14140500Y-17414214D02*
X14140500Y-17257072D01*
X14126214Y-17228500D01*
X14097643Y-17214214D01*
X14054786Y-17214214D01*
X14026214Y-17228500D01*
X14011928Y-17242786D01*
X14326214Y-17414214D02*
X14297643Y-17399929D01*
X14283357Y-17385643D01*
X14269071Y-17357072D01*
X14269071Y-17271357D01*
X14283357Y-17242786D01*
X14297643Y-17228500D01*
X14326214Y-17214214D01*
X14369071Y-17214214D01*
X14397643Y-17228500D01*
X14411928Y-17242786D01*
X14426214Y-17271357D01*
X14426214Y-17357072D01*
X14411928Y-17385643D01*
X14397643Y-17399929D01*
X14369071Y-17414214D01*
X14326214Y-17414214D01*
X14597643Y-17414214D02*
X14569071Y-17399929D01*
X14554786Y-17371357D01*
X14554786Y-17114214D01*
X14826214Y-17399929D02*
X14797643Y-17414214D01*
X14740500Y-17414214D01*
X14711928Y-17399929D01*
X14697643Y-17371357D01*
X14697643Y-17257072D01*
X14711928Y-17228500D01*
X14740500Y-17214214D01*
X14797643Y-17214214D01*
X14826214Y-17228500D01*
X14840500Y-17257072D01*
X14840500Y-17285643D01*
X14697643Y-17314214D01*
X14954786Y-17399929D02*
X14983357Y-17414214D01*
X15040500Y-17414214D01*
X15069071Y-17399929D01*
X15083357Y-17371357D01*
X15083357Y-17357072D01*
X15069071Y-17328500D01*
X15040500Y-17314214D01*
X14997643Y-17314214D01*
X14969071Y-17299929D01*
X14954786Y-17271357D01*
X14954786Y-17257072D01*
X14969071Y-17228500D01*
X14997643Y-17214214D01*
X15040500Y-17214214D01*
X15069071Y-17228500D01*
X15183357Y-17528500D02*
X15197643Y-17514214D01*
X15226214Y-17471357D01*
X15240500Y-17442786D01*
X15254786Y-17399929D01*
X15269071Y-17328500D01*
X15269071Y-17271357D01*
X15254786Y-17199929D01*
X15240500Y-17157072D01*
X15226214Y-17128500D01*
X15197643Y-17085643D01*
X15183357Y-17071357D01*
X7995500Y-17609500D02*
X8125500Y-17739500D01*
X8125500Y-17609500D02*
X7995500Y-17739500D01*
X8125500Y-17674500D02*
G75*
G03*
X8125500Y-17674500I-65000J0D01*
G01*
X8569071Y-17810214D02*
X8397643Y-17810214D01*
X8483357Y-17810214D02*
X8483357Y-17510214D01*
X8454786Y-17553072D01*
X8426214Y-17581643D01*
X8397643Y-17595929D01*
X8697643Y-17781643D02*
X8711928Y-17795929D01*
X8697643Y-17810214D01*
X8683357Y-17795929D01*
X8697643Y-17781643D01*
X8697643Y-17810214D01*
X8811928Y-17510214D02*
X8997643Y-17510214D01*
X8897643Y-17624500D01*
X8940500Y-17624500D01*
X8969071Y-17638786D01*
X8983357Y-17653072D01*
X8997643Y-17681643D01*
X8997643Y-17753072D01*
X8983357Y-17781643D01*
X8969071Y-17795929D01*
X8940500Y-17810214D01*
X8854786Y-17810214D01*
X8826214Y-17795929D01*
X8811928Y-17781643D01*
X9183357Y-17510214D02*
X9211928Y-17510214D01*
X9240500Y-17524500D01*
X9254786Y-17538786D01*
X9269071Y-17567357D01*
X9283357Y-17624500D01*
X9283357Y-17695929D01*
X9269071Y-17753072D01*
X9254786Y-17781643D01*
X9240500Y-17795929D01*
X9211928Y-17810214D01*
X9183357Y-17810214D01*
X9154786Y-17795929D01*
X9140500Y-17781643D01*
X9126214Y-17753072D01*
X9111928Y-17695929D01*
X9111928Y-17624500D01*
X9126214Y-17567357D01*
X9140500Y-17538786D01*
X9154786Y-17524500D01*
X9183357Y-17510214D01*
X9469071Y-17510214D02*
X9497643Y-17510214D01*
X9526214Y-17524500D01*
X9540500Y-17538786D01*
X9554786Y-17567357D01*
X9569071Y-17624500D01*
X9569071Y-17695929D01*
X9554786Y-17753072D01*
X9540500Y-17781643D01*
X9526214Y-17795929D01*
X9497643Y-17810214D01*
X9469071Y-17810214D01*
X9440500Y-17795929D01*
X9426214Y-17781643D01*
X9411928Y-17753072D01*
X9397643Y-17695929D01*
X9397643Y-17624500D01*
X9411928Y-17567357D01*
X9426214Y-17538786D01*
X9440500Y-17524500D01*
X9469071Y-17510214D01*
X9697643Y-17810214D02*
X9697643Y-17610214D01*
X9697643Y-17638786D02*
X9711928Y-17624500D01*
X9740500Y-17610214D01*
X9783357Y-17610214D01*
X9811928Y-17624500D01*
X9826214Y-17653072D01*
X9826214Y-17810214D01*
X9826214Y-17653072D02*
X9840500Y-17624500D01*
X9869071Y-17610214D01*
X9911928Y-17610214D01*
X9940500Y-17624500D01*
X9954786Y-17653072D01*
X9954786Y-17810214D01*
X10097643Y-17810214D02*
X10097643Y-17610214D01*
X10097643Y-17638786D02*
X10111928Y-17624500D01*
X10140500Y-17610214D01*
X10183357Y-17610214D01*
X10211928Y-17624500D01*
X10226214Y-17653072D01*
X10226214Y-17810214D01*
X10226214Y-17653072D02*
X10240500Y-17624500D01*
X10269071Y-17610214D01*
X10311928Y-17610214D01*
X10340500Y-17624500D01*
X10354786Y-17653072D01*
X10354786Y-17810214D01*
X10940500Y-17495929D02*
X10683357Y-17881643D01*
X11326214Y-17510214D02*
X11354786Y-17510214D01*
X11383357Y-17524500D01*
X11397643Y-17538786D01*
X11411928Y-17567357D01*
X11426214Y-17624500D01*
X11426214Y-17695929D01*
X11411928Y-17753072D01*
X11397643Y-17781643D01*
X11383357Y-17795929D01*
X11354786Y-17810214D01*
X11326214Y-17810214D01*
X11297643Y-17795929D01*
X11283357Y-17781643D01*
X11269071Y-17753072D01*
X11254786Y-17695929D01*
X11254786Y-17624500D01*
X11269071Y-17567357D01*
X11283357Y-17538786D01*
X11297643Y-17524500D01*
X11326214Y-17510214D01*
X11554786Y-17781643D02*
X11569071Y-17795929D01*
X11554786Y-17810214D01*
X11540500Y-17795929D01*
X11554786Y-17781643D01*
X11554786Y-17810214D01*
X11754786Y-17510214D02*
X11783357Y-17510214D01*
X11811928Y-17524500D01*
X11826214Y-17538786D01*
X11840500Y-17567357D01*
X11854786Y-17624500D01*
X11854786Y-17695929D01*
X11840500Y-17753072D01*
X11826214Y-17781643D01*
X11811928Y-17795929D01*
X11783357Y-17810214D01*
X11754786Y-17810214D01*
X11726214Y-17795929D01*
X11711928Y-17781643D01*
X11697643Y-17753072D01*
X11683357Y-17695929D01*
X11683357Y-17624500D01*
X11697643Y-17567357D01*
X11711928Y-17538786D01*
X11726214Y-17524500D01*
X11754786Y-17510214D01*
X12126214Y-17510214D02*
X11983357Y-17510214D01*
X11969071Y-17653072D01*
X11983357Y-17638786D01*
X12011928Y-17624500D01*
X12083357Y-17624500D01*
X12111928Y-17638786D01*
X12126214Y-17653072D01*
X12140500Y-17681643D01*
X12140500Y-17753072D01*
X12126214Y-17781643D01*
X12111928Y-17795929D01*
X12083357Y-17810214D01*
X12011928Y-17810214D01*
X11983357Y-17795929D01*
X11969071Y-17781643D01*
X12426214Y-17810214D02*
X12254786Y-17810214D01*
X12340500Y-17810214D02*
X12340500Y-17510214D01*
X12311928Y-17553072D01*
X12283357Y-17581643D01*
X12254786Y-17595929D01*
X12540500Y-17538786D02*
X12554786Y-17524500D01*
X12583357Y-17510214D01*
X12654786Y-17510214D01*
X12683357Y-17524500D01*
X12697643Y-17538786D01*
X12711928Y-17567357D01*
X12711928Y-17595929D01*
X12697643Y-17638786D01*
X12526214Y-17810214D01*
X12711928Y-17810214D01*
X12826214Y-17510214D02*
X12826214Y-17567357D01*
X12940500Y-17510214D02*
X12940500Y-17567357D01*
X13383357Y-17924500D02*
X13369071Y-17910214D01*
X13340500Y-17867357D01*
X13326214Y-17838786D01*
X13311928Y-17795929D01*
X13297643Y-17724500D01*
X13297643Y-17667357D01*
X13311928Y-17595929D01*
X13326214Y-17553072D01*
X13340500Y-17524500D01*
X13369071Y-17481643D01*
X13383357Y-17467357D01*
X13483357Y-17538786D02*
X13497643Y-17524500D01*
X13526214Y-17510214D01*
X13597643Y-17510214D01*
X13626214Y-17524500D01*
X13640500Y-17538786D01*
X13654786Y-17567357D01*
X13654786Y-17595929D01*
X13640500Y-17638786D01*
X13469071Y-17810214D01*
X13654786Y-17810214D01*
X14011928Y-17810214D02*
X14011928Y-17510214D01*
X14140500Y-17810214D02*
X14140500Y-17653072D01*
X14126214Y-17624500D01*
X14097643Y-17610214D01*
X14054786Y-17610214D01*
X14026214Y-17624500D01*
X14011928Y-17638786D01*
X14326214Y-17810214D02*
X14297643Y-17795929D01*
X14283357Y-17781643D01*
X14269071Y-17753072D01*
X14269071Y-17667357D01*
X14283357Y-17638786D01*
X14297643Y-17624500D01*
X14326214Y-17610214D01*
X14369071Y-17610214D01*
X14397643Y-17624500D01*
X14411928Y-17638786D01*
X14426214Y-17667357D01*
X14426214Y-17753072D01*
X14411928Y-17781643D01*
X14397643Y-17795929D01*
X14369071Y-17810214D01*
X14326214Y-17810214D01*
X14597643Y-17810214D02*
X14569071Y-17795929D01*
X14554786Y-17767357D01*
X14554786Y-17510214D01*
X14826214Y-17795929D02*
X14797643Y-17810214D01*
X14740500Y-17810214D01*
X14711928Y-17795929D01*
X14697643Y-17767357D01*
X14697643Y-17653072D01*
X14711928Y-17624500D01*
X14740500Y-17610214D01*
X14797643Y-17610214D01*
X14826214Y-17624500D01*
X14840500Y-17653072D01*
X14840500Y-17681643D01*
X14697643Y-17710214D01*
X14954786Y-17795929D02*
X14983357Y-17810214D01*
X15040500Y-17810214D01*
X15069071Y-17795929D01*
X15083357Y-17767357D01*
X15083357Y-17753072D01*
X15069071Y-17724500D01*
X15040500Y-17710214D01*
X14997643Y-17710214D01*
X14969071Y-17695929D01*
X14954786Y-17667357D01*
X14954786Y-17653072D01*
X14969071Y-17624500D01*
X14997643Y-17610214D01*
X15040500Y-17610214D01*
X15069071Y-17624500D01*
X15183357Y-17924500D02*
X15197643Y-17910214D01*
X15226214Y-17867357D01*
X15240500Y-17838786D01*
X15254786Y-17795929D01*
X15269071Y-17724500D01*
X15269071Y-17667357D01*
X15254786Y-17595929D01*
X15240500Y-17553072D01*
X15226214Y-17524500D01*
X15197643Y-17481643D01*
X15183357Y-17467357D01*
M02*
