%FSLAX45Y45*%
G04 Gerber Fmt 4.5, Leading zero omitted, Abs format (unit mm)*
G04 Created by KiCad (PCBNEW (5.1.10)-1) date 2021-09-21 20:09:43*
%MOMM*%
%LPD*%
G01*
G04 APERTURE LIST*
%TA.AperFunction,Profile*%
%ADD10C,0.050000*%
%TD*%
%ADD11C,0.200000*%
%ADD12C,0.300000*%
G04 APERTURE END LIST*
D10*
X8128000Y-3556000D02*
G75*
G02*
X8636000Y-3048000I508000J0D01*
G01*
X21844000Y-3048000D02*
G75*
G02*
X22352000Y-3556000I0J-508000D01*
G01*
X22352000Y-14224000D02*
G75*
G02*
X21844000Y-14732000I-508000J0D01*
G01*
X8636000Y-14732000D02*
G75*
G02*
X8128000Y-14224000I0J508000D01*
G01*
X8128000Y-14224000D02*
X8128000Y-3556000D01*
X21844000Y-14732000D02*
X8636000Y-14732000D01*
X22352000Y-3556000D02*
X22352000Y-14224000D01*
X8636000Y-3048000D02*
X21844000Y-3048000D01*
D11*
X8476000Y-3396000D02*
X8796000Y-3716000D01*
X8796000Y-3396000D02*
X8476000Y-3716000D01*
X8476000Y-14064000D02*
X8796000Y-14384000D01*
X8796000Y-14064000D02*
X8476000Y-14384000D01*
X21684000Y-3396000D02*
X22004000Y-3716000D01*
X22004000Y-3396000D02*
X21684000Y-3716000D01*
X21684000Y-14064000D02*
X22004000Y-14384000D01*
X22004000Y-14064000D02*
X21684000Y-14384000D01*
D12*
X8411928Y-15200214D02*
X8411928Y-14900214D01*
X8483357Y-14900214D01*
X8526214Y-14914500D01*
X8554786Y-14943071D01*
X8569071Y-14971643D01*
X8583357Y-15028786D01*
X8583357Y-15071643D01*
X8569071Y-15128786D01*
X8554786Y-15157357D01*
X8526214Y-15185929D01*
X8483357Y-15200214D01*
X8411928Y-15200214D01*
X8711928Y-15200214D02*
X8711928Y-15000214D01*
X8711928Y-15057357D02*
X8726214Y-15028786D01*
X8740500Y-15014500D01*
X8769071Y-15000214D01*
X8797643Y-15000214D01*
X8897643Y-15200214D02*
X8897643Y-15000214D01*
X8897643Y-14900214D02*
X8883357Y-14914500D01*
X8897643Y-14928786D01*
X8911928Y-14914500D01*
X8897643Y-14900214D01*
X8897643Y-14928786D01*
X9083357Y-15200214D02*
X9054786Y-15185929D01*
X9040500Y-15157357D01*
X9040500Y-14900214D01*
X9240500Y-15200214D02*
X9211928Y-15185929D01*
X9197643Y-15157357D01*
X9197643Y-14900214D01*
X9583357Y-15200214D02*
X9583357Y-14900214D01*
X9683357Y-15114500D01*
X9783357Y-14900214D01*
X9783357Y-15200214D01*
X10054786Y-15200214D02*
X10054786Y-15043071D01*
X10040500Y-15014500D01*
X10011928Y-15000214D01*
X9954786Y-15000214D01*
X9926214Y-15014500D01*
X10054786Y-15185929D02*
X10026214Y-15200214D01*
X9954786Y-15200214D01*
X9926214Y-15185929D01*
X9911928Y-15157357D01*
X9911928Y-15128786D01*
X9926214Y-15100214D01*
X9954786Y-15085929D01*
X10026214Y-15085929D01*
X10054786Y-15071643D01*
X10197643Y-15000214D02*
X10197643Y-15300214D01*
X10197643Y-15014500D02*
X10226214Y-15000214D01*
X10283357Y-15000214D01*
X10311928Y-15014500D01*
X10326214Y-15028786D01*
X10340500Y-15057357D01*
X10340500Y-15143071D01*
X10326214Y-15171643D01*
X10311928Y-15185929D01*
X10283357Y-15200214D01*
X10226214Y-15200214D01*
X10197643Y-15185929D01*
X10469071Y-15171643D02*
X10483357Y-15185929D01*
X10469071Y-15200214D01*
X10454786Y-15185929D01*
X10469071Y-15171643D01*
X10469071Y-15200214D01*
X10469071Y-15014500D02*
X10483357Y-15028786D01*
X10469071Y-15043071D01*
X10454786Y-15028786D01*
X10469071Y-15014500D01*
X10469071Y-15043071D01*
X7805500Y-15534500D02*
X8125500Y-15854500D01*
X8125500Y-15534500D02*
X7805500Y-15854500D01*
X8383357Y-15530214D02*
X8569071Y-15530214D01*
X8469071Y-15644500D01*
X8511928Y-15644500D01*
X8540500Y-15658786D01*
X8554786Y-15673071D01*
X8569071Y-15701643D01*
X8569071Y-15773071D01*
X8554786Y-15801643D01*
X8540500Y-15815929D01*
X8511928Y-15830214D01*
X8426214Y-15830214D01*
X8397643Y-15815929D01*
X8383357Y-15801643D01*
X8697643Y-15801643D02*
X8711928Y-15815929D01*
X8697643Y-15830214D01*
X8683357Y-15815929D01*
X8697643Y-15801643D01*
X8697643Y-15830214D01*
X8826214Y-15558786D02*
X8840500Y-15544500D01*
X8869071Y-15530214D01*
X8940500Y-15530214D01*
X8969071Y-15544500D01*
X8983357Y-15558786D01*
X8997643Y-15587357D01*
X8997643Y-15615929D01*
X8983357Y-15658786D01*
X8811928Y-15830214D01*
X8997643Y-15830214D01*
X9183357Y-15530214D02*
X9211928Y-15530214D01*
X9240500Y-15544500D01*
X9254786Y-15558786D01*
X9269071Y-15587357D01*
X9283357Y-15644500D01*
X9283357Y-15715929D01*
X9269071Y-15773071D01*
X9254786Y-15801643D01*
X9240500Y-15815929D01*
X9211928Y-15830214D01*
X9183357Y-15830214D01*
X9154786Y-15815929D01*
X9140500Y-15801643D01*
X9126214Y-15773071D01*
X9111928Y-15715929D01*
X9111928Y-15644500D01*
X9126214Y-15587357D01*
X9140500Y-15558786D01*
X9154786Y-15544500D01*
X9183357Y-15530214D01*
X9469071Y-15530214D02*
X9497643Y-15530214D01*
X9526214Y-15544500D01*
X9540500Y-15558786D01*
X9554786Y-15587357D01*
X9569071Y-15644500D01*
X9569071Y-15715929D01*
X9554786Y-15773071D01*
X9540500Y-15801643D01*
X9526214Y-15815929D01*
X9497643Y-15830214D01*
X9469071Y-15830214D01*
X9440500Y-15815929D01*
X9426214Y-15801643D01*
X9411928Y-15773071D01*
X9397643Y-15715929D01*
X9397643Y-15644500D01*
X9411928Y-15587357D01*
X9426214Y-15558786D01*
X9440500Y-15544500D01*
X9469071Y-15530214D01*
X9697643Y-15830214D02*
X9697643Y-15630214D01*
X9697643Y-15658786D02*
X9711928Y-15644500D01*
X9740500Y-15630214D01*
X9783357Y-15630214D01*
X9811928Y-15644500D01*
X9826214Y-15673071D01*
X9826214Y-15830214D01*
X9826214Y-15673071D02*
X9840500Y-15644500D01*
X9869071Y-15630214D01*
X9911928Y-15630214D01*
X9940500Y-15644500D01*
X9954786Y-15673071D01*
X9954786Y-15830214D01*
X10097643Y-15830214D02*
X10097643Y-15630214D01*
X10097643Y-15658786D02*
X10111928Y-15644500D01*
X10140500Y-15630214D01*
X10183357Y-15630214D01*
X10211928Y-15644500D01*
X10226214Y-15673071D01*
X10226214Y-15830214D01*
X10226214Y-15673071D02*
X10240500Y-15644500D01*
X10269071Y-15630214D01*
X10311928Y-15630214D01*
X10340500Y-15644500D01*
X10354786Y-15673071D01*
X10354786Y-15830214D01*
X10940500Y-15515929D02*
X10683357Y-15901643D01*
X11326214Y-15530214D02*
X11354786Y-15530214D01*
X11383357Y-15544500D01*
X11397643Y-15558786D01*
X11411928Y-15587357D01*
X11426214Y-15644500D01*
X11426214Y-15715929D01*
X11411928Y-15773071D01*
X11397643Y-15801643D01*
X11383357Y-15815929D01*
X11354786Y-15830214D01*
X11326214Y-15830214D01*
X11297643Y-15815929D01*
X11283357Y-15801643D01*
X11269071Y-15773071D01*
X11254786Y-15715929D01*
X11254786Y-15644500D01*
X11269071Y-15587357D01*
X11283357Y-15558786D01*
X11297643Y-15544500D01*
X11326214Y-15530214D01*
X11554786Y-15801643D02*
X11569071Y-15815929D01*
X11554786Y-15830214D01*
X11540500Y-15815929D01*
X11554786Y-15801643D01*
X11554786Y-15830214D01*
X11854786Y-15830214D02*
X11683357Y-15830214D01*
X11769071Y-15830214D02*
X11769071Y-15530214D01*
X11740500Y-15573071D01*
X11711928Y-15601643D01*
X11683357Y-15615929D01*
X11969071Y-15558786D02*
X11983357Y-15544500D01*
X12011928Y-15530214D01*
X12083357Y-15530214D01*
X12111928Y-15544500D01*
X12126214Y-15558786D01*
X12140500Y-15587357D01*
X12140500Y-15615929D01*
X12126214Y-15658786D01*
X11954786Y-15830214D01*
X12140500Y-15830214D01*
X12397643Y-15530214D02*
X12340500Y-15530214D01*
X12311928Y-15544500D01*
X12297643Y-15558786D01*
X12269071Y-15601643D01*
X12254786Y-15658786D01*
X12254786Y-15773071D01*
X12269071Y-15801643D01*
X12283357Y-15815929D01*
X12311928Y-15830214D01*
X12369071Y-15830214D01*
X12397643Y-15815929D01*
X12411928Y-15801643D01*
X12426214Y-15773071D01*
X12426214Y-15701643D01*
X12411928Y-15673071D01*
X12397643Y-15658786D01*
X12369071Y-15644500D01*
X12311928Y-15644500D01*
X12283357Y-15658786D01*
X12269071Y-15673071D01*
X12254786Y-15701643D01*
X12611928Y-15530214D02*
X12640500Y-15530214D01*
X12669071Y-15544500D01*
X12683357Y-15558786D01*
X12697643Y-15587357D01*
X12711928Y-15644500D01*
X12711928Y-15715929D01*
X12697643Y-15773071D01*
X12683357Y-15801643D01*
X12669071Y-15815929D01*
X12640500Y-15830214D01*
X12611928Y-15830214D01*
X12583357Y-15815929D01*
X12569071Y-15801643D01*
X12554786Y-15773071D01*
X12540500Y-15715929D01*
X12540500Y-15644500D01*
X12554786Y-15587357D01*
X12569071Y-15558786D01*
X12583357Y-15544500D01*
X12611928Y-15530214D01*
X12826214Y-15530214D02*
X12826214Y-15587357D01*
X12940500Y-15530214D02*
X12940500Y-15587357D01*
X13383357Y-15944500D02*
X13369071Y-15930214D01*
X13340500Y-15887357D01*
X13326214Y-15858786D01*
X13311928Y-15815929D01*
X13297643Y-15744500D01*
X13297643Y-15687357D01*
X13311928Y-15615929D01*
X13326214Y-15573071D01*
X13340500Y-15544500D01*
X13369071Y-15501643D01*
X13383357Y-15487357D01*
X13626214Y-15630214D02*
X13626214Y-15830214D01*
X13554786Y-15515929D02*
X13483357Y-15730214D01*
X13669071Y-15730214D01*
X14011928Y-15830214D02*
X14011928Y-15530214D01*
X14140500Y-15830214D02*
X14140500Y-15673071D01*
X14126214Y-15644500D01*
X14097643Y-15630214D01*
X14054786Y-15630214D01*
X14026214Y-15644500D01*
X14011928Y-15658786D01*
X14326214Y-15830214D02*
X14297643Y-15815929D01*
X14283357Y-15801643D01*
X14269071Y-15773071D01*
X14269071Y-15687357D01*
X14283357Y-15658786D01*
X14297643Y-15644500D01*
X14326214Y-15630214D01*
X14369071Y-15630214D01*
X14397643Y-15644500D01*
X14411928Y-15658786D01*
X14426214Y-15687357D01*
X14426214Y-15773071D01*
X14411928Y-15801643D01*
X14397643Y-15815929D01*
X14369071Y-15830214D01*
X14326214Y-15830214D01*
X14597643Y-15830214D02*
X14569071Y-15815929D01*
X14554786Y-15787357D01*
X14554786Y-15530214D01*
X14826214Y-15815929D02*
X14797643Y-15830214D01*
X14740500Y-15830214D01*
X14711928Y-15815929D01*
X14697643Y-15787357D01*
X14697643Y-15673071D01*
X14711928Y-15644500D01*
X14740500Y-15630214D01*
X14797643Y-15630214D01*
X14826214Y-15644500D01*
X14840500Y-15673071D01*
X14840500Y-15701643D01*
X14697643Y-15730214D01*
X14954786Y-15815929D02*
X14983357Y-15830214D01*
X15040500Y-15830214D01*
X15069071Y-15815929D01*
X15083357Y-15787357D01*
X15083357Y-15773071D01*
X15069071Y-15744500D01*
X15040500Y-15730214D01*
X14997643Y-15730214D01*
X14969071Y-15715929D01*
X14954786Y-15687357D01*
X14954786Y-15673071D01*
X14969071Y-15644500D01*
X14997643Y-15630214D01*
X15040500Y-15630214D01*
X15069071Y-15644500D01*
X15183357Y-15944500D02*
X15197643Y-15930214D01*
X15226214Y-15887357D01*
X15240500Y-15858786D01*
X15254786Y-15815929D01*
X15269071Y-15744500D01*
X15269071Y-15687357D01*
X15254786Y-15615929D01*
X15240500Y-15573071D01*
X15226214Y-15544500D01*
X15197643Y-15501643D01*
X15183357Y-15487357D01*
X15726214Y-15944500D02*
X15711928Y-15930214D01*
X15683357Y-15887357D01*
X15669071Y-15858786D01*
X15654786Y-15815929D01*
X15640500Y-15744500D01*
X15640500Y-15687357D01*
X15654786Y-15615929D01*
X15669071Y-15573071D01*
X15683357Y-15544500D01*
X15711928Y-15501643D01*
X15726214Y-15487357D01*
X15840500Y-15630214D02*
X15840500Y-15830214D01*
X15840500Y-15658786D02*
X15854786Y-15644500D01*
X15883357Y-15630214D01*
X15926214Y-15630214D01*
X15954786Y-15644500D01*
X15969071Y-15673071D01*
X15969071Y-15830214D01*
X16154786Y-15830214D02*
X16126214Y-15815929D01*
X16111928Y-15801643D01*
X16097643Y-15773071D01*
X16097643Y-15687357D01*
X16111928Y-15658786D01*
X16126214Y-15644500D01*
X16154786Y-15630214D01*
X16197643Y-15630214D01*
X16226214Y-15644500D01*
X16240500Y-15658786D01*
X16254786Y-15687357D01*
X16254786Y-15773071D01*
X16240500Y-15801643D01*
X16226214Y-15815929D01*
X16197643Y-15830214D01*
X16154786Y-15830214D01*
X16340500Y-15630214D02*
X16454786Y-15630214D01*
X16383357Y-15530214D02*
X16383357Y-15787357D01*
X16397643Y-15815929D01*
X16426214Y-15830214D01*
X16454786Y-15830214D01*
X16783357Y-15630214D02*
X16783357Y-15930214D01*
X16783357Y-15644500D02*
X16811928Y-15630214D01*
X16869071Y-15630214D01*
X16897643Y-15644500D01*
X16911928Y-15658786D01*
X16926214Y-15687357D01*
X16926214Y-15773071D01*
X16911928Y-15801643D01*
X16897643Y-15815929D01*
X16869071Y-15830214D01*
X16811928Y-15830214D01*
X16783357Y-15815929D01*
X17097643Y-15830214D02*
X17069071Y-15815929D01*
X17054786Y-15787357D01*
X17054786Y-15530214D01*
X17340500Y-15830214D02*
X17340500Y-15673071D01*
X17326214Y-15644500D01*
X17297643Y-15630214D01*
X17240500Y-15630214D01*
X17211928Y-15644500D01*
X17340500Y-15815929D02*
X17311928Y-15830214D01*
X17240500Y-15830214D01*
X17211928Y-15815929D01*
X17197643Y-15787357D01*
X17197643Y-15758786D01*
X17211928Y-15730214D01*
X17240500Y-15715929D01*
X17311928Y-15715929D01*
X17340500Y-15701643D01*
X17440500Y-15630214D02*
X17554786Y-15630214D01*
X17483357Y-15530214D02*
X17483357Y-15787357D01*
X17497643Y-15815929D01*
X17526214Y-15830214D01*
X17554786Y-15830214D01*
X17769071Y-15815929D02*
X17740500Y-15830214D01*
X17683357Y-15830214D01*
X17654786Y-15815929D01*
X17640500Y-15787357D01*
X17640500Y-15673071D01*
X17654786Y-15644500D01*
X17683357Y-15630214D01*
X17740500Y-15630214D01*
X17769071Y-15644500D01*
X17783357Y-15673071D01*
X17783357Y-15701643D01*
X17640500Y-15730214D01*
X18040500Y-15830214D02*
X18040500Y-15530214D01*
X18040500Y-15815929D02*
X18011928Y-15830214D01*
X17954786Y-15830214D01*
X17926214Y-15815929D01*
X17911928Y-15801643D01*
X17897643Y-15773071D01*
X17897643Y-15687357D01*
X17911928Y-15658786D01*
X17926214Y-15644500D01*
X17954786Y-15630214D01*
X18011928Y-15630214D01*
X18040500Y-15644500D01*
X18154786Y-15944500D02*
X18169071Y-15930214D01*
X18197643Y-15887357D01*
X18211928Y-15858786D01*
X18226214Y-15815929D01*
X18240500Y-15744500D01*
X18240500Y-15687357D01*
X18226214Y-15615929D01*
X18211928Y-15573071D01*
X18197643Y-15544500D01*
X18169071Y-15501643D01*
X18154786Y-15487357D01*
M02*
