G04 #@! TF.GenerationSoftware,KiCad,Pcbnew,(5.1.10)-1*
G04 #@! TF.CreationDate,2021-10-03T18:26:13+02:00*
G04 #@! TF.ProjectId,LED Strip clock,4c454420-5374-4726-9970-20636c6f636b,V1.0*
G04 #@! TF.SameCoordinates,Original*
G04 #@! TF.FileFunction,Paste,Top*
G04 #@! TF.FilePolarity,Positive*
%FSLAX46Y46*%
G04 Gerber Fmt 4.6, Leading zero omitted, Abs format (unit mm)*
G04 Created by KiCad (PCBNEW (5.1.10)-1) date 2021-10-03 18:26:13*
%MOMM*%
%LPD*%
G01*
G04 APERTURE LIST*
%ADD10R,5.250000X4.550000*%
%ADD11R,1.100000X4.600000*%
%ADD12R,0.900000X0.800000*%
G04 APERTURE END LIST*
D10*
X212325000Y-122030000D03*
X206775000Y-117180000D03*
X206775000Y-122030000D03*
X212325000Y-117180000D03*
D11*
X212090000Y-128755000D03*
X207010000Y-128755000D03*
G36*
G01*
X199620000Y-61745000D02*
X199620000Y-61445000D01*
G75*
G02*
X199770000Y-61295000I150000J0D01*
G01*
X201420000Y-61295000D01*
G75*
G02*
X201570000Y-61445000I0J-150000D01*
G01*
X201570000Y-61745000D01*
G75*
G02*
X201420000Y-61895000I-150000J0D01*
G01*
X199770000Y-61895000D01*
G75*
G02*
X199620000Y-61745000I0J150000D01*
G01*
G37*
G36*
G01*
X199620000Y-63015000D02*
X199620000Y-62715000D01*
G75*
G02*
X199770000Y-62565000I150000J0D01*
G01*
X201420000Y-62565000D01*
G75*
G02*
X201570000Y-62715000I0J-150000D01*
G01*
X201570000Y-63015000D01*
G75*
G02*
X201420000Y-63165000I-150000J0D01*
G01*
X199770000Y-63165000D01*
G75*
G02*
X199620000Y-63015000I0J150000D01*
G01*
G37*
G36*
G01*
X199620000Y-64285000D02*
X199620000Y-63985000D01*
G75*
G02*
X199770000Y-63835000I150000J0D01*
G01*
X201420000Y-63835000D01*
G75*
G02*
X201570000Y-63985000I0J-150000D01*
G01*
X201570000Y-64285000D01*
G75*
G02*
X201420000Y-64435000I-150000J0D01*
G01*
X199770000Y-64435000D01*
G75*
G02*
X199620000Y-64285000I0J150000D01*
G01*
G37*
G36*
G01*
X199620000Y-65555000D02*
X199620000Y-65255000D01*
G75*
G02*
X199770000Y-65105000I150000J0D01*
G01*
X201420000Y-65105000D01*
G75*
G02*
X201570000Y-65255000I0J-150000D01*
G01*
X201570000Y-65555000D01*
G75*
G02*
X201420000Y-65705000I-150000J0D01*
G01*
X199770000Y-65705000D01*
G75*
G02*
X199620000Y-65555000I0J150000D01*
G01*
G37*
G36*
G01*
X194670000Y-65555000D02*
X194670000Y-65255000D01*
G75*
G02*
X194820000Y-65105000I150000J0D01*
G01*
X196470000Y-65105000D01*
G75*
G02*
X196620000Y-65255000I0J-150000D01*
G01*
X196620000Y-65555000D01*
G75*
G02*
X196470000Y-65705000I-150000J0D01*
G01*
X194820000Y-65705000D01*
G75*
G02*
X194670000Y-65555000I0J150000D01*
G01*
G37*
G36*
G01*
X194670000Y-64285000D02*
X194670000Y-63985000D01*
G75*
G02*
X194820000Y-63835000I150000J0D01*
G01*
X196470000Y-63835000D01*
G75*
G02*
X196620000Y-63985000I0J-150000D01*
G01*
X196620000Y-64285000D01*
G75*
G02*
X196470000Y-64435000I-150000J0D01*
G01*
X194820000Y-64435000D01*
G75*
G02*
X194670000Y-64285000I0J150000D01*
G01*
G37*
G36*
G01*
X194670000Y-63015000D02*
X194670000Y-62715000D01*
G75*
G02*
X194820000Y-62565000I150000J0D01*
G01*
X196470000Y-62565000D01*
G75*
G02*
X196620000Y-62715000I0J-150000D01*
G01*
X196620000Y-63015000D01*
G75*
G02*
X196470000Y-63165000I-150000J0D01*
G01*
X194820000Y-63165000D01*
G75*
G02*
X194670000Y-63015000I0J150000D01*
G01*
G37*
G36*
G01*
X194670000Y-61745000D02*
X194670000Y-61445000D01*
G75*
G02*
X194820000Y-61295000I150000J0D01*
G01*
X196470000Y-61295000D01*
G75*
G02*
X196620000Y-61445000I0J-150000D01*
G01*
X196620000Y-61745000D01*
G75*
G02*
X196470000Y-61895000I-150000J0D01*
G01*
X194820000Y-61895000D01*
G75*
G02*
X194670000Y-61745000I0J150000D01*
G01*
G37*
G36*
G01*
X191295000Y-63950000D02*
X192245000Y-63950000D01*
G75*
G02*
X192495000Y-64200000I0J-250000D01*
G01*
X192495000Y-64875000D01*
G75*
G02*
X192245000Y-65125000I-250000J0D01*
G01*
X191295000Y-65125000D01*
G75*
G02*
X191045000Y-64875000I0J250000D01*
G01*
X191045000Y-64200000D01*
G75*
G02*
X191295000Y-63950000I250000J0D01*
G01*
G37*
G36*
G01*
X191295000Y-61875000D02*
X192245000Y-61875000D01*
G75*
G02*
X192495000Y-62125000I0J-250000D01*
G01*
X192495000Y-62800000D01*
G75*
G02*
X192245000Y-63050000I-250000J0D01*
G01*
X191295000Y-63050000D01*
G75*
G02*
X191045000Y-62800000I0J250000D01*
G01*
X191045000Y-62125000D01*
G75*
G02*
X191295000Y-61875000I250000J0D01*
G01*
G37*
G36*
G01*
X188779999Y-63900000D02*
X189680001Y-63900000D01*
G75*
G02*
X189930000Y-64149999I0J-249999D01*
G01*
X189930000Y-64850001D01*
G75*
G02*
X189680001Y-65100000I-249999J0D01*
G01*
X188779999Y-65100000D01*
G75*
G02*
X188530000Y-64850001I0J249999D01*
G01*
X188530000Y-64149999D01*
G75*
G02*
X188779999Y-63900000I249999J0D01*
G01*
G37*
G36*
G01*
X188779999Y-61900000D02*
X189680001Y-61900000D01*
G75*
G02*
X189930000Y-62149999I0J-249999D01*
G01*
X189930000Y-62850001D01*
G75*
G02*
X189680001Y-63100000I-249999J0D01*
G01*
X188779999Y-63100000D01*
G75*
G02*
X188530000Y-62850001I0J249999D01*
G01*
X188530000Y-62149999D01*
G75*
G02*
X188779999Y-61900000I249999J0D01*
G01*
G37*
G36*
G01*
X166820001Y-37700000D02*
X165919999Y-37700000D01*
G75*
G02*
X165670000Y-37450001I0J249999D01*
G01*
X165670000Y-36749999D01*
G75*
G02*
X165919999Y-36500000I249999J0D01*
G01*
X166820001Y-36500000D01*
G75*
G02*
X167070000Y-36749999I0J-249999D01*
G01*
X167070000Y-37450001D01*
G75*
G02*
X166820001Y-37700000I-249999J0D01*
G01*
G37*
G36*
G01*
X166820001Y-39700000D02*
X165919999Y-39700000D01*
G75*
G02*
X165670000Y-39450001I0J249999D01*
G01*
X165670000Y-38749999D01*
G75*
G02*
X165919999Y-38500000I249999J0D01*
G01*
X166820001Y-38500000D01*
G75*
G02*
X167070000Y-38749999I0J-249999D01*
G01*
X167070000Y-39450001D01*
G75*
G02*
X166820001Y-39700000I-249999J0D01*
G01*
G37*
G36*
G01*
X179520001Y-37700000D02*
X178619999Y-37700000D01*
G75*
G02*
X178370000Y-37450001I0J249999D01*
G01*
X178370000Y-36749999D01*
G75*
G02*
X178619999Y-36500000I249999J0D01*
G01*
X179520001Y-36500000D01*
G75*
G02*
X179770000Y-36749999I0J-249999D01*
G01*
X179770000Y-37450001D01*
G75*
G02*
X179520001Y-37700000I-249999J0D01*
G01*
G37*
G36*
G01*
X179520001Y-39700000D02*
X178619999Y-39700000D01*
G75*
G02*
X178370000Y-39450001I0J249999D01*
G01*
X178370000Y-38749999D01*
G75*
G02*
X178619999Y-38500000I249999J0D01*
G01*
X179520001Y-38500000D01*
G75*
G02*
X179770000Y-38749999I0J-249999D01*
G01*
X179770000Y-39450001D01*
G75*
G02*
X179520001Y-39700000I-249999J0D01*
G01*
G37*
G36*
G01*
X176079999Y-63900000D02*
X176980001Y-63900000D01*
G75*
G02*
X177230000Y-64149999I0J-249999D01*
G01*
X177230000Y-64850001D01*
G75*
G02*
X176980001Y-65100000I-249999J0D01*
G01*
X176079999Y-65100000D01*
G75*
G02*
X175830000Y-64850001I0J249999D01*
G01*
X175830000Y-64149999D01*
G75*
G02*
X176079999Y-63900000I249999J0D01*
G01*
G37*
G36*
G01*
X176079999Y-61900000D02*
X176980001Y-61900000D01*
G75*
G02*
X177230000Y-62149999I0J-249999D01*
G01*
X177230000Y-62850001D01*
G75*
G02*
X176980001Y-63100000I-249999J0D01*
G01*
X176079999Y-63100000D01*
G75*
G02*
X175830000Y-62850001I0J249999D01*
G01*
X175830000Y-62149999D01*
G75*
G02*
X176079999Y-61900000I249999J0D01*
G01*
G37*
G36*
G01*
X182060001Y-37700000D02*
X181159999Y-37700000D01*
G75*
G02*
X180910000Y-37450001I0J249999D01*
G01*
X180910000Y-36749999D01*
G75*
G02*
X181159999Y-36500000I249999J0D01*
G01*
X182060001Y-36500000D01*
G75*
G02*
X182310000Y-36749999I0J-249999D01*
G01*
X182310000Y-37450001D01*
G75*
G02*
X182060001Y-37700000I-249999J0D01*
G01*
G37*
G36*
G01*
X182060001Y-39700000D02*
X181159999Y-39700000D01*
G75*
G02*
X180910000Y-39450001I0J249999D01*
G01*
X180910000Y-38749999D01*
G75*
G02*
X181159999Y-38500000I249999J0D01*
G01*
X182060001Y-38500000D01*
G75*
G02*
X182310000Y-38749999I0J-249999D01*
G01*
X182310000Y-39450001D01*
G75*
G02*
X182060001Y-39700000I-249999J0D01*
G01*
G37*
G36*
G01*
X173539999Y-63900000D02*
X174440001Y-63900000D01*
G75*
G02*
X174690000Y-64149999I0J-249999D01*
G01*
X174690000Y-64850001D01*
G75*
G02*
X174440001Y-65100000I-249999J0D01*
G01*
X173539999Y-65100000D01*
G75*
G02*
X173290000Y-64850001I0J249999D01*
G01*
X173290000Y-64149999D01*
G75*
G02*
X173539999Y-63900000I249999J0D01*
G01*
G37*
G36*
G01*
X173539999Y-61900000D02*
X174440001Y-61900000D01*
G75*
G02*
X174690000Y-62149999I0J-249999D01*
G01*
X174690000Y-62850001D01*
G75*
G02*
X174440001Y-63100000I-249999J0D01*
G01*
X173539999Y-63100000D01*
G75*
G02*
X173290000Y-62850001I0J249999D01*
G01*
X173290000Y-62149999D01*
G75*
G02*
X173539999Y-61900000I249999J0D01*
G01*
G37*
G36*
G01*
X178619999Y-63900000D02*
X179520001Y-63900000D01*
G75*
G02*
X179770000Y-64149999I0J-249999D01*
G01*
X179770000Y-64850001D01*
G75*
G02*
X179520001Y-65100000I-249999J0D01*
G01*
X178619999Y-65100000D01*
G75*
G02*
X178370000Y-64850001I0J249999D01*
G01*
X178370000Y-64149999D01*
G75*
G02*
X178619999Y-63900000I249999J0D01*
G01*
G37*
G36*
G01*
X178619999Y-61900000D02*
X179520001Y-61900000D01*
G75*
G02*
X179770000Y-62149999I0J-249999D01*
G01*
X179770000Y-62850001D01*
G75*
G02*
X179520001Y-63100000I-249999J0D01*
G01*
X178619999Y-63100000D01*
G75*
G02*
X178370000Y-62850001I0J249999D01*
G01*
X178370000Y-62149999D01*
G75*
G02*
X178619999Y-61900000I249999J0D01*
G01*
G37*
G36*
G01*
X176980001Y-37700000D02*
X176079999Y-37700000D01*
G75*
G02*
X175830000Y-37450001I0J249999D01*
G01*
X175830000Y-36749999D01*
G75*
G02*
X176079999Y-36500000I249999J0D01*
G01*
X176980001Y-36500000D01*
G75*
G02*
X177230000Y-36749999I0J-249999D01*
G01*
X177230000Y-37450001D01*
G75*
G02*
X176980001Y-37700000I-249999J0D01*
G01*
G37*
G36*
G01*
X176980001Y-39700000D02*
X176079999Y-39700000D01*
G75*
G02*
X175830000Y-39450001I0J249999D01*
G01*
X175830000Y-38749999D01*
G75*
G02*
X176079999Y-38500000I249999J0D01*
G01*
X176980001Y-38500000D01*
G75*
G02*
X177230000Y-38749999I0J-249999D01*
G01*
X177230000Y-39450001D01*
G75*
G02*
X176980001Y-39700000I-249999J0D01*
G01*
G37*
G36*
G01*
X181159999Y-63900000D02*
X182060001Y-63900000D01*
G75*
G02*
X182310000Y-64149999I0J-249999D01*
G01*
X182310000Y-64850001D01*
G75*
G02*
X182060001Y-65100000I-249999J0D01*
G01*
X181159999Y-65100000D01*
G75*
G02*
X180910000Y-64850001I0J249999D01*
G01*
X180910000Y-64149999D01*
G75*
G02*
X181159999Y-63900000I249999J0D01*
G01*
G37*
G36*
G01*
X181159999Y-61900000D02*
X182060001Y-61900000D01*
G75*
G02*
X182310000Y-62149999I0J-249999D01*
G01*
X182310000Y-62850001D01*
G75*
G02*
X182060001Y-63100000I-249999J0D01*
G01*
X181159999Y-63100000D01*
G75*
G02*
X180910000Y-62850001I0J249999D01*
G01*
X180910000Y-62149999D01*
G75*
G02*
X181159999Y-61900000I249999J0D01*
G01*
G37*
G36*
G01*
X174440001Y-37700000D02*
X173539999Y-37700000D01*
G75*
G02*
X173290000Y-37450001I0J249999D01*
G01*
X173290000Y-36749999D01*
G75*
G02*
X173539999Y-36500000I249999J0D01*
G01*
X174440001Y-36500000D01*
G75*
G02*
X174690000Y-36749999I0J-249999D01*
G01*
X174690000Y-37450001D01*
G75*
G02*
X174440001Y-37700000I-249999J0D01*
G01*
G37*
G36*
G01*
X174440001Y-39700000D02*
X173539999Y-39700000D01*
G75*
G02*
X173290000Y-39450001I0J249999D01*
G01*
X173290000Y-38749999D01*
G75*
G02*
X173539999Y-38500000I249999J0D01*
G01*
X174440001Y-38500000D01*
G75*
G02*
X174690000Y-38749999I0J-249999D01*
G01*
X174690000Y-39450001D01*
G75*
G02*
X174440001Y-39700000I-249999J0D01*
G01*
G37*
G36*
G01*
X186239999Y-63900000D02*
X187140001Y-63900000D01*
G75*
G02*
X187390000Y-64149999I0J-249999D01*
G01*
X187390000Y-64850001D01*
G75*
G02*
X187140001Y-65100000I-249999J0D01*
G01*
X186239999Y-65100000D01*
G75*
G02*
X185990000Y-64850001I0J249999D01*
G01*
X185990000Y-64149999D01*
G75*
G02*
X186239999Y-63900000I249999J0D01*
G01*
G37*
G36*
G01*
X186239999Y-61900000D02*
X187140001Y-61900000D01*
G75*
G02*
X187390000Y-62149999I0J-249999D01*
G01*
X187390000Y-62850001D01*
G75*
G02*
X187140001Y-63100000I-249999J0D01*
G01*
X186239999Y-63100000D01*
G75*
G02*
X185990000Y-62850001I0J249999D01*
G01*
X185990000Y-62149999D01*
G75*
G02*
X186239999Y-61900000I249999J0D01*
G01*
G37*
G36*
G01*
X169360001Y-37700000D02*
X168459999Y-37700000D01*
G75*
G02*
X168210000Y-37450001I0J249999D01*
G01*
X168210000Y-36749999D01*
G75*
G02*
X168459999Y-36500000I249999J0D01*
G01*
X169360001Y-36500000D01*
G75*
G02*
X169610000Y-36749999I0J-249999D01*
G01*
X169610000Y-37450001D01*
G75*
G02*
X169360001Y-37700000I-249999J0D01*
G01*
G37*
G36*
G01*
X169360001Y-39700000D02*
X168459999Y-39700000D01*
G75*
G02*
X168210000Y-39450001I0J249999D01*
G01*
X168210000Y-38749999D01*
G75*
G02*
X168459999Y-38500000I249999J0D01*
G01*
X169360001Y-38500000D01*
G75*
G02*
X169610000Y-38749999I0J-249999D01*
G01*
X169610000Y-39450001D01*
G75*
G02*
X169360001Y-39700000I-249999J0D01*
G01*
G37*
G36*
G01*
X189680001Y-37700000D02*
X188779999Y-37700000D01*
G75*
G02*
X188530000Y-37450001I0J249999D01*
G01*
X188530000Y-36749999D01*
G75*
G02*
X188779999Y-36500000I249999J0D01*
G01*
X189680001Y-36500000D01*
G75*
G02*
X189930000Y-36749999I0J-249999D01*
G01*
X189930000Y-37450001D01*
G75*
G02*
X189680001Y-37700000I-249999J0D01*
G01*
G37*
G36*
G01*
X189680001Y-39700000D02*
X188779999Y-39700000D01*
G75*
G02*
X188530000Y-39450001I0J249999D01*
G01*
X188530000Y-38749999D01*
G75*
G02*
X188779999Y-38500000I249999J0D01*
G01*
X189680001Y-38500000D01*
G75*
G02*
X189930000Y-38749999I0J-249999D01*
G01*
X189930000Y-39450001D01*
G75*
G02*
X189680001Y-39700000I-249999J0D01*
G01*
G37*
G36*
G01*
X165919999Y-63900000D02*
X166820001Y-63900000D01*
G75*
G02*
X167070000Y-64149999I0J-249999D01*
G01*
X167070000Y-64850001D01*
G75*
G02*
X166820001Y-65100000I-249999J0D01*
G01*
X165919999Y-65100000D01*
G75*
G02*
X165670000Y-64850001I0J249999D01*
G01*
X165670000Y-64149999D01*
G75*
G02*
X165919999Y-63900000I249999J0D01*
G01*
G37*
G36*
G01*
X165919999Y-61900000D02*
X166820001Y-61900000D01*
G75*
G02*
X167070000Y-62149999I0J-249999D01*
G01*
X167070000Y-62850001D01*
G75*
G02*
X166820001Y-63100000I-249999J0D01*
G01*
X165919999Y-63100000D01*
G75*
G02*
X165670000Y-62850001I0J249999D01*
G01*
X165670000Y-62149999D01*
G75*
G02*
X165919999Y-61900000I249999J0D01*
G01*
G37*
G36*
G01*
X187140001Y-37700000D02*
X186239999Y-37700000D01*
G75*
G02*
X185990000Y-37450001I0J249999D01*
G01*
X185990000Y-36749999D01*
G75*
G02*
X186239999Y-36500000I249999J0D01*
G01*
X187140001Y-36500000D01*
G75*
G02*
X187390000Y-36749999I0J-249999D01*
G01*
X187390000Y-37450001D01*
G75*
G02*
X187140001Y-37700000I-249999J0D01*
G01*
G37*
G36*
G01*
X187140001Y-39700000D02*
X186239999Y-39700000D01*
G75*
G02*
X185990000Y-39450001I0J249999D01*
G01*
X185990000Y-38749999D01*
G75*
G02*
X186239999Y-38500000I249999J0D01*
G01*
X187140001Y-38500000D01*
G75*
G02*
X187390000Y-38749999I0J-249999D01*
G01*
X187390000Y-39450001D01*
G75*
G02*
X187140001Y-39700000I-249999J0D01*
G01*
G37*
G36*
G01*
X168459999Y-63900000D02*
X169360001Y-63900000D01*
G75*
G02*
X169610000Y-64149999I0J-249999D01*
G01*
X169610000Y-64850001D01*
G75*
G02*
X169360001Y-65100000I-249999J0D01*
G01*
X168459999Y-65100000D01*
G75*
G02*
X168210000Y-64850001I0J249999D01*
G01*
X168210000Y-64149999D01*
G75*
G02*
X168459999Y-63900000I249999J0D01*
G01*
G37*
G36*
G01*
X168459999Y-61900000D02*
X169360001Y-61900000D01*
G75*
G02*
X169610000Y-62149999I0J-249999D01*
G01*
X169610000Y-62850001D01*
G75*
G02*
X169360001Y-63100000I-249999J0D01*
G01*
X168459999Y-63100000D01*
G75*
G02*
X168210000Y-62850001I0J249999D01*
G01*
X168210000Y-62149999D01*
G75*
G02*
X168459999Y-61900000I249999J0D01*
G01*
G37*
G36*
G01*
X210000000Y-108425000D02*
X210000000Y-107475000D01*
G75*
G02*
X210250000Y-107225000I250000J0D01*
G01*
X210925000Y-107225000D01*
G75*
G02*
X211175000Y-107475000I0J-250000D01*
G01*
X211175000Y-108425000D01*
G75*
G02*
X210925000Y-108675000I-250000J0D01*
G01*
X210250000Y-108675000D01*
G75*
G02*
X210000000Y-108425000I0J250000D01*
G01*
G37*
G36*
G01*
X207925000Y-108425000D02*
X207925000Y-107475000D01*
G75*
G02*
X208175000Y-107225000I250000J0D01*
G01*
X208850000Y-107225000D01*
G75*
G02*
X209100000Y-107475000I0J-250000D01*
G01*
X209100000Y-108425000D01*
G75*
G02*
X208850000Y-108675000I-250000J0D01*
G01*
X208175000Y-108675000D01*
G75*
G02*
X207925000Y-108425000I0J250000D01*
G01*
G37*
G36*
G01*
X187140000Y-108425000D02*
X187140000Y-107475000D01*
G75*
G02*
X187390000Y-107225000I250000J0D01*
G01*
X188065000Y-107225000D01*
G75*
G02*
X188315000Y-107475000I0J-250000D01*
G01*
X188315000Y-108425000D01*
G75*
G02*
X188065000Y-108675000I-250000J0D01*
G01*
X187390000Y-108675000D01*
G75*
G02*
X187140000Y-108425000I0J250000D01*
G01*
G37*
G36*
G01*
X185065000Y-108425000D02*
X185065000Y-107475000D01*
G75*
G02*
X185315000Y-107225000I250000J0D01*
G01*
X185990000Y-107225000D01*
G75*
G02*
X186240000Y-107475000I0J-250000D01*
G01*
X186240000Y-108425000D01*
G75*
G02*
X185990000Y-108675000I-250000J0D01*
G01*
X185315000Y-108675000D01*
G75*
G02*
X185065000Y-108425000I0J250000D01*
G01*
G37*
G36*
G01*
X196030001Y-121520000D02*
X195129999Y-121520000D01*
G75*
G02*
X194880000Y-121270001I0J249999D01*
G01*
X194880000Y-120569999D01*
G75*
G02*
X195129999Y-120320000I249999J0D01*
G01*
X196030001Y-120320000D01*
G75*
G02*
X196280000Y-120569999I0J-249999D01*
G01*
X196280000Y-121270001D01*
G75*
G02*
X196030001Y-121520000I-249999J0D01*
G01*
G37*
G36*
G01*
X196030001Y-123520000D02*
X195129999Y-123520000D01*
G75*
G02*
X194880000Y-123270001I0J249999D01*
G01*
X194880000Y-122569999D01*
G75*
G02*
X195129999Y-122320000I249999J0D01*
G01*
X196030001Y-122320000D01*
G75*
G02*
X196280000Y-122569999I0J-249999D01*
G01*
X196280000Y-123270001D01*
G75*
G02*
X196030001Y-123520000I-249999J0D01*
G01*
G37*
G36*
G01*
X100560000Y-61745000D02*
X100560000Y-61445000D01*
G75*
G02*
X100710000Y-61295000I150000J0D01*
G01*
X102360000Y-61295000D01*
G75*
G02*
X102510000Y-61445000I0J-150000D01*
G01*
X102510000Y-61745000D01*
G75*
G02*
X102360000Y-61895000I-150000J0D01*
G01*
X100710000Y-61895000D01*
G75*
G02*
X100560000Y-61745000I0J150000D01*
G01*
G37*
G36*
G01*
X100560000Y-63015000D02*
X100560000Y-62715000D01*
G75*
G02*
X100710000Y-62565000I150000J0D01*
G01*
X102360000Y-62565000D01*
G75*
G02*
X102510000Y-62715000I0J-150000D01*
G01*
X102510000Y-63015000D01*
G75*
G02*
X102360000Y-63165000I-150000J0D01*
G01*
X100710000Y-63165000D01*
G75*
G02*
X100560000Y-63015000I0J150000D01*
G01*
G37*
G36*
G01*
X100560000Y-64285000D02*
X100560000Y-63985000D01*
G75*
G02*
X100710000Y-63835000I150000J0D01*
G01*
X102360000Y-63835000D01*
G75*
G02*
X102510000Y-63985000I0J-150000D01*
G01*
X102510000Y-64285000D01*
G75*
G02*
X102360000Y-64435000I-150000J0D01*
G01*
X100710000Y-64435000D01*
G75*
G02*
X100560000Y-64285000I0J150000D01*
G01*
G37*
G36*
G01*
X100560000Y-65555000D02*
X100560000Y-65255000D01*
G75*
G02*
X100710000Y-65105000I150000J0D01*
G01*
X102360000Y-65105000D01*
G75*
G02*
X102510000Y-65255000I0J-150000D01*
G01*
X102510000Y-65555000D01*
G75*
G02*
X102360000Y-65705000I-150000J0D01*
G01*
X100710000Y-65705000D01*
G75*
G02*
X100560000Y-65555000I0J150000D01*
G01*
G37*
G36*
G01*
X95610000Y-65555000D02*
X95610000Y-65255000D01*
G75*
G02*
X95760000Y-65105000I150000J0D01*
G01*
X97410000Y-65105000D01*
G75*
G02*
X97560000Y-65255000I0J-150000D01*
G01*
X97560000Y-65555000D01*
G75*
G02*
X97410000Y-65705000I-150000J0D01*
G01*
X95760000Y-65705000D01*
G75*
G02*
X95610000Y-65555000I0J150000D01*
G01*
G37*
G36*
G01*
X95610000Y-64285000D02*
X95610000Y-63985000D01*
G75*
G02*
X95760000Y-63835000I150000J0D01*
G01*
X97410000Y-63835000D01*
G75*
G02*
X97560000Y-63985000I0J-150000D01*
G01*
X97560000Y-64285000D01*
G75*
G02*
X97410000Y-64435000I-150000J0D01*
G01*
X95760000Y-64435000D01*
G75*
G02*
X95610000Y-64285000I0J150000D01*
G01*
G37*
G36*
G01*
X95610000Y-63015000D02*
X95610000Y-62715000D01*
G75*
G02*
X95760000Y-62565000I150000J0D01*
G01*
X97410000Y-62565000D01*
G75*
G02*
X97560000Y-62715000I0J-150000D01*
G01*
X97560000Y-63015000D01*
G75*
G02*
X97410000Y-63165000I-150000J0D01*
G01*
X95760000Y-63165000D01*
G75*
G02*
X95610000Y-63015000I0J150000D01*
G01*
G37*
G36*
G01*
X95610000Y-61745000D02*
X95610000Y-61445000D01*
G75*
G02*
X95760000Y-61295000I150000J0D01*
G01*
X97410000Y-61295000D01*
G75*
G02*
X97560000Y-61445000I0J-150000D01*
G01*
X97560000Y-61745000D01*
G75*
G02*
X97410000Y-61895000I-150000J0D01*
G01*
X95760000Y-61895000D01*
G75*
G02*
X95610000Y-61745000I0J150000D01*
G01*
G37*
G36*
G01*
X112579999Y-63900000D02*
X113480001Y-63900000D01*
G75*
G02*
X113730000Y-64149999I0J-249999D01*
G01*
X113730000Y-64850001D01*
G75*
G02*
X113480001Y-65100000I-249999J0D01*
G01*
X112579999Y-65100000D01*
G75*
G02*
X112330000Y-64850001I0J249999D01*
G01*
X112330000Y-64149999D01*
G75*
G02*
X112579999Y-63900000I249999J0D01*
G01*
G37*
G36*
G01*
X112579999Y-61900000D02*
X113480001Y-61900000D01*
G75*
G02*
X113730000Y-62149999I0J-249999D01*
G01*
X113730000Y-62850001D01*
G75*
G02*
X113480001Y-63100000I-249999J0D01*
G01*
X112579999Y-63100000D01*
G75*
G02*
X112330000Y-62850001I0J249999D01*
G01*
X112330000Y-62149999D01*
G75*
G02*
X112579999Y-61900000I249999J0D01*
G01*
G37*
G36*
G01*
X110940001Y-63100000D02*
X110039999Y-63100000D01*
G75*
G02*
X109790000Y-62850001I0J249999D01*
G01*
X109790000Y-62149999D01*
G75*
G02*
X110039999Y-61900000I249999J0D01*
G01*
X110940001Y-61900000D01*
G75*
G02*
X111190000Y-62149999I0J-249999D01*
G01*
X111190000Y-62850001D01*
G75*
G02*
X110940001Y-63100000I-249999J0D01*
G01*
G37*
G36*
G01*
X110940001Y-65100000D02*
X110039999Y-65100000D01*
G75*
G02*
X109790000Y-64850001I0J249999D01*
G01*
X109790000Y-64149999D01*
G75*
G02*
X110039999Y-63900000I249999J0D01*
G01*
X110940001Y-63900000D01*
G75*
G02*
X111190000Y-64149999I0J-249999D01*
G01*
X111190000Y-64850001D01*
G75*
G02*
X110940001Y-65100000I-249999J0D01*
G01*
G37*
G36*
G01*
X111915001Y-48575000D02*
X109064999Y-48575000D01*
G75*
G02*
X108815000Y-48325001I0J249999D01*
G01*
X108815000Y-47299999D01*
G75*
G02*
X109064999Y-47050000I249999J0D01*
G01*
X111915001Y-47050000D01*
G75*
G02*
X112165000Y-47299999I0J-249999D01*
G01*
X112165000Y-48325001D01*
G75*
G02*
X111915001Y-48575000I-249999J0D01*
G01*
G37*
G36*
G01*
X111915001Y-54550000D02*
X109064999Y-54550000D01*
G75*
G02*
X108815000Y-54300001I0J249999D01*
G01*
X108815000Y-53274999D01*
G75*
G02*
X109064999Y-53025000I249999J0D01*
G01*
X111915001Y-53025000D01*
G75*
G02*
X112165000Y-53274999I0J-249999D01*
G01*
X112165000Y-54300001D01*
G75*
G02*
X111915001Y-54550000I-249999J0D01*
G01*
G37*
G36*
G01*
X107475000Y-63950000D02*
X108425000Y-63950000D01*
G75*
G02*
X108675000Y-64200000I0J-250000D01*
G01*
X108675000Y-64875000D01*
G75*
G02*
X108425000Y-65125000I-250000J0D01*
G01*
X107475000Y-65125000D01*
G75*
G02*
X107225000Y-64875000I0J250000D01*
G01*
X107225000Y-64200000D01*
G75*
G02*
X107475000Y-63950000I250000J0D01*
G01*
G37*
G36*
G01*
X107475000Y-61875000D02*
X108425000Y-61875000D01*
G75*
G02*
X108675000Y-62125000I0J-250000D01*
G01*
X108675000Y-62800000D01*
G75*
G02*
X108425000Y-63050000I-250000J0D01*
G01*
X107475000Y-63050000D01*
G75*
G02*
X107225000Y-62800000I0J250000D01*
G01*
X107225000Y-62125000D01*
G75*
G02*
X107475000Y-61875000I250000J0D01*
G01*
G37*
G36*
G01*
X105885000Y-63050000D02*
X104935000Y-63050000D01*
G75*
G02*
X104685000Y-62800000I0J250000D01*
G01*
X104685000Y-62125000D01*
G75*
G02*
X104935000Y-61875000I250000J0D01*
G01*
X105885000Y-61875000D01*
G75*
G02*
X106135000Y-62125000I0J-250000D01*
G01*
X106135000Y-62800000D01*
G75*
G02*
X105885000Y-63050000I-250000J0D01*
G01*
G37*
G36*
G01*
X105885000Y-65125000D02*
X104935000Y-65125000D01*
G75*
G02*
X104685000Y-64875000I0J250000D01*
G01*
X104685000Y-64200000D01*
G75*
G02*
X104935000Y-63950000I250000J0D01*
G01*
X105885000Y-63950000D01*
G75*
G02*
X106135000Y-64200000I0J-250000D01*
G01*
X106135000Y-64875000D01*
G75*
G02*
X105885000Y-65125000I-250000J0D01*
G01*
G37*
G36*
G01*
X111610000Y-125545000D02*
X111910000Y-125545000D01*
G75*
G02*
X112060000Y-125695000I0J-150000D01*
G01*
X112060000Y-127445000D01*
G75*
G02*
X111910000Y-127595000I-150000J0D01*
G01*
X111610000Y-127595000D01*
G75*
G02*
X111460000Y-127445000I0J150000D01*
G01*
X111460000Y-125695000D01*
G75*
G02*
X111610000Y-125545000I150000J0D01*
G01*
G37*
G36*
G01*
X110340000Y-125545000D02*
X110640000Y-125545000D01*
G75*
G02*
X110790000Y-125695000I0J-150000D01*
G01*
X110790000Y-127445000D01*
G75*
G02*
X110640000Y-127595000I-150000J0D01*
G01*
X110340000Y-127595000D01*
G75*
G02*
X110190000Y-127445000I0J150000D01*
G01*
X110190000Y-125695000D01*
G75*
G02*
X110340000Y-125545000I150000J0D01*
G01*
G37*
G36*
G01*
X109070000Y-125545000D02*
X109370000Y-125545000D01*
G75*
G02*
X109520000Y-125695000I0J-150000D01*
G01*
X109520000Y-127445000D01*
G75*
G02*
X109370000Y-127595000I-150000J0D01*
G01*
X109070000Y-127595000D01*
G75*
G02*
X108920000Y-127445000I0J150000D01*
G01*
X108920000Y-125695000D01*
G75*
G02*
X109070000Y-125545000I150000J0D01*
G01*
G37*
G36*
G01*
X107800000Y-125545000D02*
X108100000Y-125545000D01*
G75*
G02*
X108250000Y-125695000I0J-150000D01*
G01*
X108250000Y-127445000D01*
G75*
G02*
X108100000Y-127595000I-150000J0D01*
G01*
X107800000Y-127595000D01*
G75*
G02*
X107650000Y-127445000I0J150000D01*
G01*
X107650000Y-125695000D01*
G75*
G02*
X107800000Y-125545000I150000J0D01*
G01*
G37*
G36*
G01*
X106530000Y-125545000D02*
X106830000Y-125545000D01*
G75*
G02*
X106980000Y-125695000I0J-150000D01*
G01*
X106980000Y-127445000D01*
G75*
G02*
X106830000Y-127595000I-150000J0D01*
G01*
X106530000Y-127595000D01*
G75*
G02*
X106380000Y-127445000I0J150000D01*
G01*
X106380000Y-125695000D01*
G75*
G02*
X106530000Y-125545000I150000J0D01*
G01*
G37*
G36*
G01*
X105260000Y-125545000D02*
X105560000Y-125545000D01*
G75*
G02*
X105710000Y-125695000I0J-150000D01*
G01*
X105710000Y-127445000D01*
G75*
G02*
X105560000Y-127595000I-150000J0D01*
G01*
X105260000Y-127595000D01*
G75*
G02*
X105110000Y-127445000I0J150000D01*
G01*
X105110000Y-125695000D01*
G75*
G02*
X105260000Y-125545000I150000J0D01*
G01*
G37*
G36*
G01*
X103990000Y-125545000D02*
X104290000Y-125545000D01*
G75*
G02*
X104440000Y-125695000I0J-150000D01*
G01*
X104440000Y-127445000D01*
G75*
G02*
X104290000Y-127595000I-150000J0D01*
G01*
X103990000Y-127595000D01*
G75*
G02*
X103840000Y-127445000I0J150000D01*
G01*
X103840000Y-125695000D01*
G75*
G02*
X103990000Y-125545000I150000J0D01*
G01*
G37*
G36*
G01*
X102720000Y-125545000D02*
X103020000Y-125545000D01*
G75*
G02*
X103170000Y-125695000I0J-150000D01*
G01*
X103170000Y-127445000D01*
G75*
G02*
X103020000Y-127595000I-150000J0D01*
G01*
X102720000Y-127595000D01*
G75*
G02*
X102570000Y-127445000I0J150000D01*
G01*
X102570000Y-125695000D01*
G75*
G02*
X102720000Y-125545000I150000J0D01*
G01*
G37*
G36*
G01*
X101450000Y-125545000D02*
X101750000Y-125545000D01*
G75*
G02*
X101900000Y-125695000I0J-150000D01*
G01*
X101900000Y-127445000D01*
G75*
G02*
X101750000Y-127595000I-150000J0D01*
G01*
X101450000Y-127595000D01*
G75*
G02*
X101300000Y-127445000I0J150000D01*
G01*
X101300000Y-125695000D01*
G75*
G02*
X101450000Y-125545000I150000J0D01*
G01*
G37*
G36*
G01*
X101450000Y-116245000D02*
X101750000Y-116245000D01*
G75*
G02*
X101900000Y-116395000I0J-150000D01*
G01*
X101900000Y-118145000D01*
G75*
G02*
X101750000Y-118295000I-150000J0D01*
G01*
X101450000Y-118295000D01*
G75*
G02*
X101300000Y-118145000I0J150000D01*
G01*
X101300000Y-116395000D01*
G75*
G02*
X101450000Y-116245000I150000J0D01*
G01*
G37*
G36*
G01*
X102720000Y-116245000D02*
X103020000Y-116245000D01*
G75*
G02*
X103170000Y-116395000I0J-150000D01*
G01*
X103170000Y-118145000D01*
G75*
G02*
X103020000Y-118295000I-150000J0D01*
G01*
X102720000Y-118295000D01*
G75*
G02*
X102570000Y-118145000I0J150000D01*
G01*
X102570000Y-116395000D01*
G75*
G02*
X102720000Y-116245000I150000J0D01*
G01*
G37*
G36*
G01*
X103990000Y-116245000D02*
X104290000Y-116245000D01*
G75*
G02*
X104440000Y-116395000I0J-150000D01*
G01*
X104440000Y-118145000D01*
G75*
G02*
X104290000Y-118295000I-150000J0D01*
G01*
X103990000Y-118295000D01*
G75*
G02*
X103840000Y-118145000I0J150000D01*
G01*
X103840000Y-116395000D01*
G75*
G02*
X103990000Y-116245000I150000J0D01*
G01*
G37*
G36*
G01*
X105260000Y-116245000D02*
X105560000Y-116245000D01*
G75*
G02*
X105710000Y-116395000I0J-150000D01*
G01*
X105710000Y-118145000D01*
G75*
G02*
X105560000Y-118295000I-150000J0D01*
G01*
X105260000Y-118295000D01*
G75*
G02*
X105110000Y-118145000I0J150000D01*
G01*
X105110000Y-116395000D01*
G75*
G02*
X105260000Y-116245000I150000J0D01*
G01*
G37*
G36*
G01*
X106530000Y-116245000D02*
X106830000Y-116245000D01*
G75*
G02*
X106980000Y-116395000I0J-150000D01*
G01*
X106980000Y-118145000D01*
G75*
G02*
X106830000Y-118295000I-150000J0D01*
G01*
X106530000Y-118295000D01*
G75*
G02*
X106380000Y-118145000I0J150000D01*
G01*
X106380000Y-116395000D01*
G75*
G02*
X106530000Y-116245000I150000J0D01*
G01*
G37*
G36*
G01*
X107800000Y-116245000D02*
X108100000Y-116245000D01*
G75*
G02*
X108250000Y-116395000I0J-150000D01*
G01*
X108250000Y-118145000D01*
G75*
G02*
X108100000Y-118295000I-150000J0D01*
G01*
X107800000Y-118295000D01*
G75*
G02*
X107650000Y-118145000I0J150000D01*
G01*
X107650000Y-116395000D01*
G75*
G02*
X107800000Y-116245000I150000J0D01*
G01*
G37*
G36*
G01*
X109070000Y-116245000D02*
X109370000Y-116245000D01*
G75*
G02*
X109520000Y-116395000I0J-150000D01*
G01*
X109520000Y-118145000D01*
G75*
G02*
X109370000Y-118295000I-150000J0D01*
G01*
X109070000Y-118295000D01*
G75*
G02*
X108920000Y-118145000I0J150000D01*
G01*
X108920000Y-116395000D01*
G75*
G02*
X109070000Y-116245000I150000J0D01*
G01*
G37*
G36*
G01*
X110340000Y-116245000D02*
X110640000Y-116245000D01*
G75*
G02*
X110790000Y-116395000I0J-150000D01*
G01*
X110790000Y-118145000D01*
G75*
G02*
X110640000Y-118295000I-150000J0D01*
G01*
X110340000Y-118295000D01*
G75*
G02*
X110190000Y-118145000I0J150000D01*
G01*
X110190000Y-116395000D01*
G75*
G02*
X110340000Y-116245000I150000J0D01*
G01*
G37*
G36*
G01*
X111610000Y-116245000D02*
X111910000Y-116245000D01*
G75*
G02*
X112060000Y-116395000I0J-150000D01*
G01*
X112060000Y-118145000D01*
G75*
G02*
X111910000Y-118295000I-150000J0D01*
G01*
X111610000Y-118295000D01*
G75*
G02*
X111460000Y-118145000I0J150000D01*
G01*
X111460000Y-116395000D01*
G75*
G02*
X111610000Y-116245000I150000J0D01*
G01*
G37*
G36*
G01*
X135490000Y-130359999D02*
X135490000Y-131260001D01*
G75*
G02*
X135240001Y-131510000I-249999J0D01*
G01*
X134539999Y-131510000D01*
G75*
G02*
X134290000Y-131260001I0J249999D01*
G01*
X134290000Y-130359999D01*
G75*
G02*
X134539999Y-130110000I249999J0D01*
G01*
X135240001Y-130110000D01*
G75*
G02*
X135490000Y-130359999I0J-249999D01*
G01*
G37*
G36*
G01*
X137490000Y-130359999D02*
X137490000Y-131260001D01*
G75*
G02*
X137240001Y-131510000I-249999J0D01*
G01*
X136539999Y-131510000D01*
G75*
G02*
X136290000Y-131260001I0J249999D01*
G01*
X136290000Y-130359999D01*
G75*
G02*
X136539999Y-130110000I249999J0D01*
G01*
X137240001Y-130110000D01*
G75*
G02*
X137490000Y-130359999I0J-249999D01*
G01*
G37*
G36*
G01*
X135490000Y-132899999D02*
X135490000Y-133800001D01*
G75*
G02*
X135240001Y-134050000I-249999J0D01*
G01*
X134539999Y-134050000D01*
G75*
G02*
X134290000Y-133800001I0J249999D01*
G01*
X134290000Y-132899999D01*
G75*
G02*
X134539999Y-132650000I249999J0D01*
G01*
X135240001Y-132650000D01*
G75*
G02*
X135490000Y-132899999I0J-249999D01*
G01*
G37*
G36*
G01*
X137490000Y-132899999D02*
X137490000Y-133800001D01*
G75*
G02*
X137240001Y-134050000I-249999J0D01*
G01*
X136539999Y-134050000D01*
G75*
G02*
X136290000Y-133800001I0J249999D01*
G01*
X136290000Y-132899999D01*
G75*
G02*
X136539999Y-132650000I249999J0D01*
G01*
X137240001Y-132650000D01*
G75*
G02*
X137490000Y-132899999I0J-249999D01*
G01*
G37*
G36*
G01*
X118585000Y-121470000D02*
X117635000Y-121470000D01*
G75*
G02*
X117385000Y-121220000I0J250000D01*
G01*
X117385000Y-120545000D01*
G75*
G02*
X117635000Y-120295000I250000J0D01*
G01*
X118585000Y-120295000D01*
G75*
G02*
X118835000Y-120545000I0J-250000D01*
G01*
X118835000Y-121220000D01*
G75*
G02*
X118585000Y-121470000I-250000J0D01*
G01*
G37*
G36*
G01*
X118585000Y-123545000D02*
X117635000Y-123545000D01*
G75*
G02*
X117385000Y-123295000I0J250000D01*
G01*
X117385000Y-122620000D01*
G75*
G02*
X117635000Y-122370000I250000J0D01*
G01*
X118585000Y-122370000D01*
G75*
G02*
X118835000Y-122620000I0J-250000D01*
G01*
X118835000Y-123295000D01*
G75*
G02*
X118585000Y-123545000I-250000J0D01*
G01*
G37*
G36*
G01*
X163379999Y-63900000D02*
X164280001Y-63900000D01*
G75*
G02*
X164530000Y-64149999I0J-249999D01*
G01*
X164530000Y-64850001D01*
G75*
G02*
X164280001Y-65100000I-249999J0D01*
G01*
X163379999Y-65100000D01*
G75*
G02*
X163130000Y-64850001I0J249999D01*
G01*
X163130000Y-64149999D01*
G75*
G02*
X163379999Y-63900000I249999J0D01*
G01*
G37*
G36*
G01*
X163379999Y-61900000D02*
X164280001Y-61900000D01*
G75*
G02*
X164530000Y-62149999I0J-249999D01*
G01*
X164530000Y-62850001D01*
G75*
G02*
X164280001Y-63100000I-249999J0D01*
G01*
X163379999Y-63100000D01*
G75*
G02*
X163130000Y-62850001I0J249999D01*
G01*
X163130000Y-62149999D01*
G75*
G02*
X163379999Y-61900000I249999J0D01*
G01*
G37*
G36*
G01*
X141420001Y-37700000D02*
X140519999Y-37700000D01*
G75*
G02*
X140270000Y-37450001I0J249999D01*
G01*
X140270000Y-36749999D01*
G75*
G02*
X140519999Y-36500000I249999J0D01*
G01*
X141420001Y-36500000D01*
G75*
G02*
X141670000Y-36749999I0J-249999D01*
G01*
X141670000Y-37450001D01*
G75*
G02*
X141420001Y-37700000I-249999J0D01*
G01*
G37*
G36*
G01*
X141420001Y-39700000D02*
X140519999Y-39700000D01*
G75*
G02*
X140270000Y-39450001I0J249999D01*
G01*
X140270000Y-38749999D01*
G75*
G02*
X140519999Y-38500000I249999J0D01*
G01*
X141420001Y-38500000D01*
G75*
G02*
X141670000Y-38749999I0J-249999D01*
G01*
X141670000Y-39450001D01*
G75*
G02*
X141420001Y-39700000I-249999J0D01*
G01*
G37*
G36*
G01*
X137979999Y-63900000D02*
X138880001Y-63900000D01*
G75*
G02*
X139130000Y-64149999I0J-249999D01*
G01*
X139130000Y-64850001D01*
G75*
G02*
X138880001Y-65100000I-249999J0D01*
G01*
X137979999Y-65100000D01*
G75*
G02*
X137730000Y-64850001I0J249999D01*
G01*
X137730000Y-64149999D01*
G75*
G02*
X137979999Y-63900000I249999J0D01*
G01*
G37*
G36*
G01*
X137979999Y-61900000D02*
X138880001Y-61900000D01*
G75*
G02*
X139130000Y-62149999I0J-249999D01*
G01*
X139130000Y-62850001D01*
G75*
G02*
X138880001Y-63100000I-249999J0D01*
G01*
X137979999Y-63100000D01*
G75*
G02*
X137730000Y-62850001I0J249999D01*
G01*
X137730000Y-62149999D01*
G75*
G02*
X137979999Y-61900000I249999J0D01*
G01*
G37*
G36*
G01*
X125279999Y-63900000D02*
X126180001Y-63900000D01*
G75*
G02*
X126430000Y-64149999I0J-249999D01*
G01*
X126430000Y-64850001D01*
G75*
G02*
X126180001Y-65100000I-249999J0D01*
G01*
X125279999Y-65100000D01*
G75*
G02*
X125030000Y-64850001I0J249999D01*
G01*
X125030000Y-64149999D01*
G75*
G02*
X125279999Y-63900000I249999J0D01*
G01*
G37*
G36*
G01*
X125279999Y-61900000D02*
X126180001Y-61900000D01*
G75*
G02*
X126430000Y-62149999I0J-249999D01*
G01*
X126430000Y-62850001D01*
G75*
G02*
X126180001Y-63100000I-249999J0D01*
G01*
X125279999Y-63100000D01*
G75*
G02*
X125030000Y-62850001I0J249999D01*
G01*
X125030000Y-62149999D01*
G75*
G02*
X125279999Y-61900000I249999J0D01*
G01*
G37*
G36*
G01*
X154120001Y-37700000D02*
X153219999Y-37700000D01*
G75*
G02*
X152970000Y-37450001I0J249999D01*
G01*
X152970000Y-36749999D01*
G75*
G02*
X153219999Y-36500000I249999J0D01*
G01*
X154120001Y-36500000D01*
G75*
G02*
X154370000Y-36749999I0J-249999D01*
G01*
X154370000Y-37450001D01*
G75*
G02*
X154120001Y-37700000I-249999J0D01*
G01*
G37*
G36*
G01*
X154120001Y-39700000D02*
X153219999Y-39700000D01*
G75*
G02*
X152970000Y-39450001I0J249999D01*
G01*
X152970000Y-38749999D01*
G75*
G02*
X153219999Y-38500000I249999J0D01*
G01*
X154120001Y-38500000D01*
G75*
G02*
X154370000Y-38749999I0J-249999D01*
G01*
X154370000Y-39450001D01*
G75*
G02*
X154120001Y-39700000I-249999J0D01*
G01*
G37*
G36*
G01*
X150679999Y-63900000D02*
X151580001Y-63900000D01*
G75*
G02*
X151830000Y-64149999I0J-249999D01*
G01*
X151830000Y-64850001D01*
G75*
G02*
X151580001Y-65100000I-249999J0D01*
G01*
X150679999Y-65100000D01*
G75*
G02*
X150430000Y-64850001I0J249999D01*
G01*
X150430000Y-64149999D01*
G75*
G02*
X150679999Y-63900000I249999J0D01*
G01*
G37*
G36*
G01*
X150679999Y-61900000D02*
X151580001Y-61900000D01*
G75*
G02*
X151830000Y-62149999I0J-249999D01*
G01*
X151830000Y-62850001D01*
G75*
G02*
X151580001Y-63100000I-249999J0D01*
G01*
X150679999Y-63100000D01*
G75*
G02*
X150430000Y-62850001I0J249999D01*
G01*
X150430000Y-62149999D01*
G75*
G02*
X150679999Y-61900000I249999J0D01*
G01*
G37*
G36*
G01*
X128720001Y-37700000D02*
X127819999Y-37700000D01*
G75*
G02*
X127570000Y-37450001I0J249999D01*
G01*
X127570000Y-36749999D01*
G75*
G02*
X127819999Y-36500000I249999J0D01*
G01*
X128720001Y-36500000D01*
G75*
G02*
X128970000Y-36749999I0J-249999D01*
G01*
X128970000Y-37450001D01*
G75*
G02*
X128720001Y-37700000I-249999J0D01*
G01*
G37*
G36*
G01*
X128720001Y-39700000D02*
X127819999Y-39700000D01*
G75*
G02*
X127570000Y-39450001I0J249999D01*
G01*
X127570000Y-38749999D01*
G75*
G02*
X127819999Y-38500000I249999J0D01*
G01*
X128720001Y-38500000D01*
G75*
G02*
X128970000Y-38749999I0J-249999D01*
G01*
X128970000Y-39450001D01*
G75*
G02*
X128720001Y-39700000I-249999J0D01*
G01*
G37*
G36*
G01*
X116020001Y-37700000D02*
X115119999Y-37700000D01*
G75*
G02*
X114870000Y-37450001I0J249999D01*
G01*
X114870000Y-36749999D01*
G75*
G02*
X115119999Y-36500000I249999J0D01*
G01*
X116020001Y-36500000D01*
G75*
G02*
X116270000Y-36749999I0J-249999D01*
G01*
X116270000Y-37450001D01*
G75*
G02*
X116020001Y-37700000I-249999J0D01*
G01*
G37*
G36*
G01*
X116020001Y-39700000D02*
X115119999Y-39700000D01*
G75*
G02*
X114870000Y-39450001I0J249999D01*
G01*
X114870000Y-38749999D01*
G75*
G02*
X115119999Y-38500000I249999J0D01*
G01*
X116020001Y-38500000D01*
G75*
G02*
X116270000Y-38749999I0J-249999D01*
G01*
X116270000Y-39450001D01*
G75*
G02*
X116020001Y-39700000I-249999J0D01*
G01*
G37*
G36*
G01*
X156660001Y-37700000D02*
X155759999Y-37700000D01*
G75*
G02*
X155510000Y-37450001I0J249999D01*
G01*
X155510000Y-36749999D01*
G75*
G02*
X155759999Y-36500000I249999J0D01*
G01*
X156660001Y-36500000D01*
G75*
G02*
X156910000Y-36749999I0J-249999D01*
G01*
X156910000Y-37450001D01*
G75*
G02*
X156660001Y-37700000I-249999J0D01*
G01*
G37*
G36*
G01*
X156660001Y-39700000D02*
X155759999Y-39700000D01*
G75*
G02*
X155510000Y-39450001I0J249999D01*
G01*
X155510000Y-38749999D01*
G75*
G02*
X155759999Y-38500000I249999J0D01*
G01*
X156660001Y-38500000D01*
G75*
G02*
X156910000Y-38749999I0J-249999D01*
G01*
X156910000Y-39450001D01*
G75*
G02*
X156660001Y-39700000I-249999J0D01*
G01*
G37*
G36*
G01*
X148139999Y-63900000D02*
X149040001Y-63900000D01*
G75*
G02*
X149290000Y-64149999I0J-249999D01*
G01*
X149290000Y-64850001D01*
G75*
G02*
X149040001Y-65100000I-249999J0D01*
G01*
X148139999Y-65100000D01*
G75*
G02*
X147890000Y-64850001I0J249999D01*
G01*
X147890000Y-64149999D01*
G75*
G02*
X148139999Y-63900000I249999J0D01*
G01*
G37*
G36*
G01*
X148139999Y-61900000D02*
X149040001Y-61900000D01*
G75*
G02*
X149290000Y-62149999I0J-249999D01*
G01*
X149290000Y-62850001D01*
G75*
G02*
X149040001Y-63100000I-249999J0D01*
G01*
X148139999Y-63100000D01*
G75*
G02*
X147890000Y-62850001I0J249999D01*
G01*
X147890000Y-62149999D01*
G75*
G02*
X148139999Y-61900000I249999J0D01*
G01*
G37*
G36*
G01*
X131260001Y-37700000D02*
X130359999Y-37700000D01*
G75*
G02*
X130110000Y-37450001I0J249999D01*
G01*
X130110000Y-36749999D01*
G75*
G02*
X130359999Y-36500000I249999J0D01*
G01*
X131260001Y-36500000D01*
G75*
G02*
X131510000Y-36749999I0J-249999D01*
G01*
X131510000Y-37450001D01*
G75*
G02*
X131260001Y-37700000I-249999J0D01*
G01*
G37*
G36*
G01*
X131260001Y-39700000D02*
X130359999Y-39700000D01*
G75*
G02*
X130110000Y-39450001I0J249999D01*
G01*
X130110000Y-38749999D01*
G75*
G02*
X130359999Y-38500000I249999J0D01*
G01*
X131260001Y-38500000D01*
G75*
G02*
X131510000Y-38749999I0J-249999D01*
G01*
X131510000Y-39450001D01*
G75*
G02*
X131260001Y-39700000I-249999J0D01*
G01*
G37*
G36*
G01*
X118560001Y-37700000D02*
X117659999Y-37700000D01*
G75*
G02*
X117410000Y-37450001I0J249999D01*
G01*
X117410000Y-36749999D01*
G75*
G02*
X117659999Y-36500000I249999J0D01*
G01*
X118560001Y-36500000D01*
G75*
G02*
X118810000Y-36749999I0J-249999D01*
G01*
X118810000Y-37450001D01*
G75*
G02*
X118560001Y-37700000I-249999J0D01*
G01*
G37*
G36*
G01*
X118560001Y-39700000D02*
X117659999Y-39700000D01*
G75*
G02*
X117410000Y-39450001I0J249999D01*
G01*
X117410000Y-38749999D01*
G75*
G02*
X117659999Y-38500000I249999J0D01*
G01*
X118560001Y-38500000D01*
G75*
G02*
X118810000Y-38749999I0J-249999D01*
G01*
X118810000Y-39450001D01*
G75*
G02*
X118560001Y-39700000I-249999J0D01*
G01*
G37*
G36*
G01*
X153219999Y-63900000D02*
X154120001Y-63900000D01*
G75*
G02*
X154370000Y-64149999I0J-249999D01*
G01*
X154370000Y-64850001D01*
G75*
G02*
X154120001Y-65100000I-249999J0D01*
G01*
X153219999Y-65100000D01*
G75*
G02*
X152970000Y-64850001I0J249999D01*
G01*
X152970000Y-64149999D01*
G75*
G02*
X153219999Y-63900000I249999J0D01*
G01*
G37*
G36*
G01*
X153219999Y-61900000D02*
X154120001Y-61900000D01*
G75*
G02*
X154370000Y-62149999I0J-249999D01*
G01*
X154370000Y-62850001D01*
G75*
G02*
X154120001Y-63100000I-249999J0D01*
G01*
X153219999Y-63100000D01*
G75*
G02*
X152970000Y-62850001I0J249999D01*
G01*
X152970000Y-62149999D01*
G75*
G02*
X153219999Y-61900000I249999J0D01*
G01*
G37*
G36*
G01*
X151580001Y-37700000D02*
X150679999Y-37700000D01*
G75*
G02*
X150430000Y-37450001I0J249999D01*
G01*
X150430000Y-36749999D01*
G75*
G02*
X150679999Y-36500000I249999J0D01*
G01*
X151580001Y-36500000D01*
G75*
G02*
X151830000Y-36749999I0J-249999D01*
G01*
X151830000Y-37450001D01*
G75*
G02*
X151580001Y-37700000I-249999J0D01*
G01*
G37*
G36*
G01*
X151580001Y-39700000D02*
X150679999Y-39700000D01*
G75*
G02*
X150430000Y-39450001I0J249999D01*
G01*
X150430000Y-38749999D01*
G75*
G02*
X150679999Y-38500000I249999J0D01*
G01*
X151580001Y-38500000D01*
G75*
G02*
X151830000Y-38749999I0J-249999D01*
G01*
X151830000Y-39450001D01*
G75*
G02*
X151580001Y-39700000I-249999J0D01*
G01*
G37*
G36*
G01*
X127819999Y-63900000D02*
X128720001Y-63900000D01*
G75*
G02*
X128970000Y-64149999I0J-249999D01*
G01*
X128970000Y-64850001D01*
G75*
G02*
X128720001Y-65100000I-249999J0D01*
G01*
X127819999Y-65100000D01*
G75*
G02*
X127570000Y-64850001I0J249999D01*
G01*
X127570000Y-64149999D01*
G75*
G02*
X127819999Y-63900000I249999J0D01*
G01*
G37*
G36*
G01*
X127819999Y-61900000D02*
X128720001Y-61900000D01*
G75*
G02*
X128970000Y-62149999I0J-249999D01*
G01*
X128970000Y-62850001D01*
G75*
G02*
X128720001Y-63100000I-249999J0D01*
G01*
X127819999Y-63100000D01*
G75*
G02*
X127570000Y-62850001I0J249999D01*
G01*
X127570000Y-62149999D01*
G75*
G02*
X127819999Y-61900000I249999J0D01*
G01*
G37*
G36*
G01*
X115119999Y-63900000D02*
X116020001Y-63900000D01*
G75*
G02*
X116270000Y-64149999I0J-249999D01*
G01*
X116270000Y-64850001D01*
G75*
G02*
X116020001Y-65100000I-249999J0D01*
G01*
X115119999Y-65100000D01*
G75*
G02*
X114870000Y-64850001I0J249999D01*
G01*
X114870000Y-64149999D01*
G75*
G02*
X115119999Y-63900000I249999J0D01*
G01*
G37*
G36*
G01*
X115119999Y-61900000D02*
X116020001Y-61900000D01*
G75*
G02*
X116270000Y-62149999I0J-249999D01*
G01*
X116270000Y-62850001D01*
G75*
G02*
X116020001Y-63100000I-249999J0D01*
G01*
X115119999Y-63100000D01*
G75*
G02*
X114870000Y-62850001I0J249999D01*
G01*
X114870000Y-62149999D01*
G75*
G02*
X115119999Y-61900000I249999J0D01*
G01*
G37*
G36*
G01*
X155759999Y-63900000D02*
X156660001Y-63900000D01*
G75*
G02*
X156910000Y-64149999I0J-249999D01*
G01*
X156910000Y-64850001D01*
G75*
G02*
X156660001Y-65100000I-249999J0D01*
G01*
X155759999Y-65100000D01*
G75*
G02*
X155510000Y-64850001I0J249999D01*
G01*
X155510000Y-64149999D01*
G75*
G02*
X155759999Y-63900000I249999J0D01*
G01*
G37*
G36*
G01*
X155759999Y-61900000D02*
X156660001Y-61900000D01*
G75*
G02*
X156910000Y-62149999I0J-249999D01*
G01*
X156910000Y-62850001D01*
G75*
G02*
X156660001Y-63100000I-249999J0D01*
G01*
X155759999Y-63100000D01*
G75*
G02*
X155510000Y-62850001I0J249999D01*
G01*
X155510000Y-62149999D01*
G75*
G02*
X155759999Y-61900000I249999J0D01*
G01*
G37*
G36*
G01*
X149040001Y-37700000D02*
X148139999Y-37700000D01*
G75*
G02*
X147890000Y-37450001I0J249999D01*
G01*
X147890000Y-36749999D01*
G75*
G02*
X148139999Y-36500000I249999J0D01*
G01*
X149040001Y-36500000D01*
G75*
G02*
X149290000Y-36749999I0J-249999D01*
G01*
X149290000Y-37450001D01*
G75*
G02*
X149040001Y-37700000I-249999J0D01*
G01*
G37*
G36*
G01*
X149040001Y-39700000D02*
X148139999Y-39700000D01*
G75*
G02*
X147890000Y-39450001I0J249999D01*
G01*
X147890000Y-38749999D01*
G75*
G02*
X148139999Y-38500000I249999J0D01*
G01*
X149040001Y-38500000D01*
G75*
G02*
X149290000Y-38749999I0J-249999D01*
G01*
X149290000Y-39450001D01*
G75*
G02*
X149040001Y-39700000I-249999J0D01*
G01*
G37*
G36*
G01*
X130359999Y-63900000D02*
X131260001Y-63900000D01*
G75*
G02*
X131510000Y-64149999I0J-249999D01*
G01*
X131510000Y-64850001D01*
G75*
G02*
X131260001Y-65100000I-249999J0D01*
G01*
X130359999Y-65100000D01*
G75*
G02*
X130110000Y-64850001I0J249999D01*
G01*
X130110000Y-64149999D01*
G75*
G02*
X130359999Y-63900000I249999J0D01*
G01*
G37*
G36*
G01*
X130359999Y-61900000D02*
X131260001Y-61900000D01*
G75*
G02*
X131510000Y-62149999I0J-249999D01*
G01*
X131510000Y-62850001D01*
G75*
G02*
X131260001Y-63100000I-249999J0D01*
G01*
X130359999Y-63100000D01*
G75*
G02*
X130110000Y-62850001I0J249999D01*
G01*
X130110000Y-62149999D01*
G75*
G02*
X130359999Y-61900000I249999J0D01*
G01*
G37*
G36*
G01*
X117659999Y-63900000D02*
X118560001Y-63900000D01*
G75*
G02*
X118810000Y-64149999I0J-249999D01*
G01*
X118810000Y-64850001D01*
G75*
G02*
X118560001Y-65100000I-249999J0D01*
G01*
X117659999Y-65100000D01*
G75*
G02*
X117410000Y-64850001I0J249999D01*
G01*
X117410000Y-64149999D01*
G75*
G02*
X117659999Y-63900000I249999J0D01*
G01*
G37*
G36*
G01*
X117659999Y-61900000D02*
X118560001Y-61900000D01*
G75*
G02*
X118810000Y-62149999I0J-249999D01*
G01*
X118810000Y-62850001D01*
G75*
G02*
X118560001Y-63100000I-249999J0D01*
G01*
X117659999Y-63100000D01*
G75*
G02*
X117410000Y-62850001I0J249999D01*
G01*
X117410000Y-62149999D01*
G75*
G02*
X117659999Y-61900000I249999J0D01*
G01*
G37*
G36*
G01*
X160839999Y-63900000D02*
X161740001Y-63900000D01*
G75*
G02*
X161990000Y-64149999I0J-249999D01*
G01*
X161990000Y-64850001D01*
G75*
G02*
X161740001Y-65100000I-249999J0D01*
G01*
X160839999Y-65100000D01*
G75*
G02*
X160590000Y-64850001I0J249999D01*
G01*
X160590000Y-64149999D01*
G75*
G02*
X160839999Y-63900000I249999J0D01*
G01*
G37*
G36*
G01*
X160839999Y-61900000D02*
X161740001Y-61900000D01*
G75*
G02*
X161990000Y-62149999I0J-249999D01*
G01*
X161990000Y-62850001D01*
G75*
G02*
X161740001Y-63100000I-249999J0D01*
G01*
X160839999Y-63100000D01*
G75*
G02*
X160590000Y-62850001I0J249999D01*
G01*
X160590000Y-62149999D01*
G75*
G02*
X160839999Y-61900000I249999J0D01*
G01*
G37*
G36*
G01*
X143960001Y-37700000D02*
X143059999Y-37700000D01*
G75*
G02*
X142810000Y-37450001I0J249999D01*
G01*
X142810000Y-36749999D01*
G75*
G02*
X143059999Y-36500000I249999J0D01*
G01*
X143960001Y-36500000D01*
G75*
G02*
X144210000Y-36749999I0J-249999D01*
G01*
X144210000Y-37450001D01*
G75*
G02*
X143960001Y-37700000I-249999J0D01*
G01*
G37*
G36*
G01*
X143960001Y-39700000D02*
X143059999Y-39700000D01*
G75*
G02*
X142810000Y-39450001I0J249999D01*
G01*
X142810000Y-38749999D01*
G75*
G02*
X143059999Y-38500000I249999J0D01*
G01*
X143960001Y-38500000D01*
G75*
G02*
X144210000Y-38749999I0J-249999D01*
G01*
X144210000Y-39450001D01*
G75*
G02*
X143960001Y-39700000I-249999J0D01*
G01*
G37*
G36*
G01*
X135439999Y-63900000D02*
X136340001Y-63900000D01*
G75*
G02*
X136590000Y-64149999I0J-249999D01*
G01*
X136590000Y-64850001D01*
G75*
G02*
X136340001Y-65100000I-249999J0D01*
G01*
X135439999Y-65100000D01*
G75*
G02*
X135190000Y-64850001I0J249999D01*
G01*
X135190000Y-64149999D01*
G75*
G02*
X135439999Y-63900000I249999J0D01*
G01*
G37*
G36*
G01*
X135439999Y-61900000D02*
X136340001Y-61900000D01*
G75*
G02*
X136590000Y-62149999I0J-249999D01*
G01*
X136590000Y-62850001D01*
G75*
G02*
X136340001Y-63100000I-249999J0D01*
G01*
X135439999Y-63100000D01*
G75*
G02*
X135190000Y-62850001I0J249999D01*
G01*
X135190000Y-62149999D01*
G75*
G02*
X135439999Y-61900000I249999J0D01*
G01*
G37*
G36*
G01*
X122739999Y-63900000D02*
X123640001Y-63900000D01*
G75*
G02*
X123890000Y-64149999I0J-249999D01*
G01*
X123890000Y-64850001D01*
G75*
G02*
X123640001Y-65100000I-249999J0D01*
G01*
X122739999Y-65100000D01*
G75*
G02*
X122490000Y-64850001I0J249999D01*
G01*
X122490000Y-64149999D01*
G75*
G02*
X122739999Y-63900000I249999J0D01*
G01*
G37*
G36*
G01*
X122739999Y-61900000D02*
X123640001Y-61900000D01*
G75*
G02*
X123890000Y-62149999I0J-249999D01*
G01*
X123890000Y-62850001D01*
G75*
G02*
X123640001Y-63100000I-249999J0D01*
G01*
X122739999Y-63100000D01*
G75*
G02*
X122490000Y-62850001I0J249999D01*
G01*
X122490000Y-62149999D01*
G75*
G02*
X122739999Y-61900000I249999J0D01*
G01*
G37*
G36*
G01*
X164280001Y-37700000D02*
X163379999Y-37700000D01*
G75*
G02*
X163130000Y-37450001I0J249999D01*
G01*
X163130000Y-36749999D01*
G75*
G02*
X163379999Y-36500000I249999J0D01*
G01*
X164280001Y-36500000D01*
G75*
G02*
X164530000Y-36749999I0J-249999D01*
G01*
X164530000Y-37450001D01*
G75*
G02*
X164280001Y-37700000I-249999J0D01*
G01*
G37*
G36*
G01*
X164280001Y-39700000D02*
X163379999Y-39700000D01*
G75*
G02*
X163130000Y-39450001I0J249999D01*
G01*
X163130000Y-38749999D01*
G75*
G02*
X163379999Y-38500000I249999J0D01*
G01*
X164280001Y-38500000D01*
G75*
G02*
X164530000Y-38749999I0J-249999D01*
G01*
X164530000Y-39450001D01*
G75*
G02*
X164280001Y-39700000I-249999J0D01*
G01*
G37*
G36*
G01*
X140519999Y-63900000D02*
X141420001Y-63900000D01*
G75*
G02*
X141670000Y-64149999I0J-249999D01*
G01*
X141670000Y-64850001D01*
G75*
G02*
X141420001Y-65100000I-249999J0D01*
G01*
X140519999Y-65100000D01*
G75*
G02*
X140270000Y-64850001I0J249999D01*
G01*
X140270000Y-64149999D01*
G75*
G02*
X140519999Y-63900000I249999J0D01*
G01*
G37*
G36*
G01*
X140519999Y-61900000D02*
X141420001Y-61900000D01*
G75*
G02*
X141670000Y-62149999I0J-249999D01*
G01*
X141670000Y-62850001D01*
G75*
G02*
X141420001Y-63100000I-249999J0D01*
G01*
X140519999Y-63100000D01*
G75*
G02*
X140270000Y-62850001I0J249999D01*
G01*
X140270000Y-62149999D01*
G75*
G02*
X140519999Y-61900000I249999J0D01*
G01*
G37*
G36*
G01*
X138880001Y-37700000D02*
X137979999Y-37700000D01*
G75*
G02*
X137730000Y-37450001I0J249999D01*
G01*
X137730000Y-36749999D01*
G75*
G02*
X137979999Y-36500000I249999J0D01*
G01*
X138880001Y-36500000D01*
G75*
G02*
X139130000Y-36749999I0J-249999D01*
G01*
X139130000Y-37450001D01*
G75*
G02*
X138880001Y-37700000I-249999J0D01*
G01*
G37*
G36*
G01*
X138880001Y-39700000D02*
X137979999Y-39700000D01*
G75*
G02*
X137730000Y-39450001I0J249999D01*
G01*
X137730000Y-38749999D01*
G75*
G02*
X137979999Y-38500000I249999J0D01*
G01*
X138880001Y-38500000D01*
G75*
G02*
X139130000Y-38749999I0J-249999D01*
G01*
X139130000Y-39450001D01*
G75*
G02*
X138880001Y-39700000I-249999J0D01*
G01*
G37*
G36*
G01*
X126180001Y-37700000D02*
X125279999Y-37700000D01*
G75*
G02*
X125030000Y-37450001I0J249999D01*
G01*
X125030000Y-36749999D01*
G75*
G02*
X125279999Y-36500000I249999J0D01*
G01*
X126180001Y-36500000D01*
G75*
G02*
X126430000Y-36749999I0J-249999D01*
G01*
X126430000Y-37450001D01*
G75*
G02*
X126180001Y-37700000I-249999J0D01*
G01*
G37*
G36*
G01*
X126180001Y-39700000D02*
X125279999Y-39700000D01*
G75*
G02*
X125030000Y-39450001I0J249999D01*
G01*
X125030000Y-38749999D01*
G75*
G02*
X125279999Y-38500000I249999J0D01*
G01*
X126180001Y-38500000D01*
G75*
G02*
X126430000Y-38749999I0J-249999D01*
G01*
X126430000Y-39450001D01*
G75*
G02*
X126180001Y-39700000I-249999J0D01*
G01*
G37*
G36*
G01*
X161740001Y-37700000D02*
X160839999Y-37700000D01*
G75*
G02*
X160590000Y-37450001I0J249999D01*
G01*
X160590000Y-36749999D01*
G75*
G02*
X160839999Y-36500000I249999J0D01*
G01*
X161740001Y-36500000D01*
G75*
G02*
X161990000Y-36749999I0J-249999D01*
G01*
X161990000Y-37450001D01*
G75*
G02*
X161740001Y-37700000I-249999J0D01*
G01*
G37*
G36*
G01*
X161740001Y-39700000D02*
X160839999Y-39700000D01*
G75*
G02*
X160590000Y-39450001I0J249999D01*
G01*
X160590000Y-38749999D01*
G75*
G02*
X160839999Y-38500000I249999J0D01*
G01*
X161740001Y-38500000D01*
G75*
G02*
X161990000Y-38749999I0J-249999D01*
G01*
X161990000Y-39450001D01*
G75*
G02*
X161740001Y-39700000I-249999J0D01*
G01*
G37*
G36*
G01*
X143059999Y-63900000D02*
X143960001Y-63900000D01*
G75*
G02*
X144210000Y-64149999I0J-249999D01*
G01*
X144210000Y-64850001D01*
G75*
G02*
X143960001Y-65100000I-249999J0D01*
G01*
X143059999Y-65100000D01*
G75*
G02*
X142810000Y-64850001I0J249999D01*
G01*
X142810000Y-64149999D01*
G75*
G02*
X143059999Y-63900000I249999J0D01*
G01*
G37*
G36*
G01*
X143059999Y-61900000D02*
X143960001Y-61900000D01*
G75*
G02*
X144210000Y-62149999I0J-249999D01*
G01*
X144210000Y-62850001D01*
G75*
G02*
X143960001Y-63100000I-249999J0D01*
G01*
X143059999Y-63100000D01*
G75*
G02*
X142810000Y-62850001I0J249999D01*
G01*
X142810000Y-62149999D01*
G75*
G02*
X143059999Y-61900000I249999J0D01*
G01*
G37*
G36*
G01*
X136340001Y-37700000D02*
X135439999Y-37700000D01*
G75*
G02*
X135190000Y-37450001I0J249999D01*
G01*
X135190000Y-36749999D01*
G75*
G02*
X135439999Y-36500000I249999J0D01*
G01*
X136340001Y-36500000D01*
G75*
G02*
X136590000Y-36749999I0J-249999D01*
G01*
X136590000Y-37450001D01*
G75*
G02*
X136340001Y-37700000I-249999J0D01*
G01*
G37*
G36*
G01*
X136340001Y-39700000D02*
X135439999Y-39700000D01*
G75*
G02*
X135190000Y-39450001I0J249999D01*
G01*
X135190000Y-38749999D01*
G75*
G02*
X135439999Y-38500000I249999J0D01*
G01*
X136340001Y-38500000D01*
G75*
G02*
X136590000Y-38749999I0J-249999D01*
G01*
X136590000Y-39450001D01*
G75*
G02*
X136340001Y-39700000I-249999J0D01*
G01*
G37*
G36*
G01*
X123640001Y-37700000D02*
X122739999Y-37700000D01*
G75*
G02*
X122490000Y-37450001I0J249999D01*
G01*
X122490000Y-36749999D01*
G75*
G02*
X122739999Y-36500000I249999J0D01*
G01*
X123640001Y-36500000D01*
G75*
G02*
X123890000Y-36749999I0J-249999D01*
G01*
X123890000Y-37450001D01*
G75*
G02*
X123640001Y-37700000I-249999J0D01*
G01*
G37*
G36*
G01*
X123640001Y-39700000D02*
X122739999Y-39700000D01*
G75*
G02*
X122490000Y-39450001I0J249999D01*
G01*
X122490000Y-38749999D01*
G75*
G02*
X122739999Y-38500000I249999J0D01*
G01*
X123640001Y-38500000D01*
G75*
G02*
X123890000Y-38749999I0J-249999D01*
G01*
X123890000Y-39450001D01*
G75*
G02*
X123640001Y-39700000I-249999J0D01*
G01*
G37*
G36*
G01*
X168459999Y-136925000D02*
X169360001Y-136925000D01*
G75*
G02*
X169610000Y-137174999I0J-249999D01*
G01*
X169610000Y-137875001D01*
G75*
G02*
X169360001Y-138125000I-249999J0D01*
G01*
X168459999Y-138125000D01*
G75*
G02*
X168210000Y-137875001I0J249999D01*
G01*
X168210000Y-137174999D01*
G75*
G02*
X168459999Y-136925000I249999J0D01*
G01*
G37*
G36*
G01*
X168459999Y-134925000D02*
X169360001Y-134925000D01*
G75*
G02*
X169610000Y-135174999I0J-249999D01*
G01*
X169610000Y-135875001D01*
G75*
G02*
X169360001Y-136125000I-249999J0D01*
G01*
X168459999Y-136125000D01*
G75*
G02*
X168210000Y-135875001I0J249999D01*
G01*
X168210000Y-135174999D01*
G75*
G02*
X168459999Y-134925000I249999J0D01*
G01*
G37*
G36*
G01*
X186240000Y-111285000D02*
X186240000Y-112235000D01*
G75*
G02*
X185990000Y-112485000I-250000J0D01*
G01*
X185315000Y-112485000D01*
G75*
G02*
X185065000Y-112235000I0J250000D01*
G01*
X185065000Y-111285000D01*
G75*
G02*
X185315000Y-111035000I250000J0D01*
G01*
X185990000Y-111035000D01*
G75*
G02*
X186240000Y-111285000I0J-250000D01*
G01*
G37*
G36*
G01*
X188315000Y-111285000D02*
X188315000Y-112235000D01*
G75*
G02*
X188065000Y-112485000I-250000J0D01*
G01*
X187390000Y-112485000D01*
G75*
G02*
X187140000Y-112235000I0J250000D01*
G01*
X187140000Y-111285000D01*
G75*
G02*
X187390000Y-111035000I250000J0D01*
G01*
X188065000Y-111035000D01*
G75*
G02*
X188315000Y-111285000I0J-250000D01*
G01*
G37*
G36*
G01*
X164280000Y-108425000D02*
X164280000Y-107475000D01*
G75*
G02*
X164530000Y-107225000I250000J0D01*
G01*
X165205000Y-107225000D01*
G75*
G02*
X165455000Y-107475000I0J-250000D01*
G01*
X165455000Y-108425000D01*
G75*
G02*
X165205000Y-108675000I-250000J0D01*
G01*
X164530000Y-108675000D01*
G75*
G02*
X164280000Y-108425000I0J250000D01*
G01*
G37*
G36*
G01*
X162205000Y-108425000D02*
X162205000Y-107475000D01*
G75*
G02*
X162455000Y-107225000I250000J0D01*
G01*
X163130000Y-107225000D01*
G75*
G02*
X163380000Y-107475000I0J-250000D01*
G01*
X163380000Y-108425000D01*
G75*
G02*
X163130000Y-108675000I-250000J0D01*
G01*
X162455000Y-108675000D01*
G75*
G02*
X162205000Y-108425000I0J250000D01*
G01*
G37*
G36*
G01*
X141420000Y-108425000D02*
X141420000Y-107475000D01*
G75*
G02*
X141670000Y-107225000I250000J0D01*
G01*
X142345000Y-107225000D01*
G75*
G02*
X142595000Y-107475000I0J-250000D01*
G01*
X142595000Y-108425000D01*
G75*
G02*
X142345000Y-108675000I-250000J0D01*
G01*
X141670000Y-108675000D01*
G75*
G02*
X141420000Y-108425000I0J250000D01*
G01*
G37*
G36*
G01*
X139345000Y-108425000D02*
X139345000Y-107475000D01*
G75*
G02*
X139595000Y-107225000I250000J0D01*
G01*
X140270000Y-107225000D01*
G75*
G02*
X140520000Y-107475000I0J-250000D01*
G01*
X140520000Y-108425000D01*
G75*
G02*
X140270000Y-108675000I-250000J0D01*
G01*
X139595000Y-108675000D01*
G75*
G02*
X139345000Y-108425000I0J250000D01*
G01*
G37*
G36*
G01*
X118560000Y-108425000D02*
X118560000Y-107475000D01*
G75*
G02*
X118810000Y-107225000I250000J0D01*
G01*
X119485000Y-107225000D01*
G75*
G02*
X119735000Y-107475000I0J-250000D01*
G01*
X119735000Y-108425000D01*
G75*
G02*
X119485000Y-108675000I-250000J0D01*
G01*
X118810000Y-108675000D01*
G75*
G02*
X118560000Y-108425000I0J250000D01*
G01*
G37*
G36*
G01*
X116485000Y-108425000D02*
X116485000Y-107475000D01*
G75*
G02*
X116735000Y-107225000I250000J0D01*
G01*
X117410000Y-107225000D01*
G75*
G02*
X117660000Y-107475000I0J-250000D01*
G01*
X117660000Y-108425000D01*
G75*
G02*
X117410000Y-108675000I-250000J0D01*
G01*
X116735000Y-108675000D01*
G75*
G02*
X116485000Y-108425000I0J250000D01*
G01*
G37*
G36*
G01*
X95700000Y-108425000D02*
X95700000Y-107475000D01*
G75*
G02*
X95950000Y-107225000I250000J0D01*
G01*
X96625000Y-107225000D01*
G75*
G02*
X96875000Y-107475000I0J-250000D01*
G01*
X96875000Y-108425000D01*
G75*
G02*
X96625000Y-108675000I-250000J0D01*
G01*
X95950000Y-108675000D01*
G75*
G02*
X95700000Y-108425000I0J250000D01*
G01*
G37*
G36*
G01*
X93625000Y-108425000D02*
X93625000Y-107475000D01*
G75*
G02*
X93875000Y-107225000I250000J0D01*
G01*
X94550000Y-107225000D01*
G75*
G02*
X94800000Y-107475000I0J-250000D01*
G01*
X94800000Y-108425000D01*
G75*
G02*
X94550000Y-108675000I-250000J0D01*
G01*
X93875000Y-108675000D01*
G75*
G02*
X93625000Y-108425000I0J250000D01*
G01*
G37*
D12*
X169910000Y-132080000D03*
X167910000Y-133030000D03*
X167910000Y-131130000D03*
M02*
