M48
; DRILL file {KiCad (5.1.10)-1} date 09/21/21 20:09:43
; FORMAT={-:-/ absolute / metric / decimal}
; #@! TF.CreationDate,2021-09-21T20:09:43+02:00
; #@! TF.GenerationSoftware,Kicad,Pcbnew,(5.1.10)-1
; #@! TF.FileFunction,Plated,1,2,PTH
FMAT,2
METRIC
T1C0.400
T2C0.800
T3C1.000
T4C1.010
T5C1.100
T6C1.300
%
G90
G05
T1
X87.884Y-110.49
X88.138Y-86.36
X88.791Y-129.685
X88.9Y-69.85
X89.662Y-110.49
X91.44Y-69.85
X93.218Y-110.49
X93.472Y-68.834
X93.98Y-69.85
X94.234Y-120.65
X94.742Y-68.072
X95.25Y-110.49
X95.43Y-69.316
X96.52Y-72.485
X97.409Y-67.945
X98.235Y-70.016
X98.303Y-69.018
X99.06Y-71.287
X99.06Y-72.935
X100.965Y-57.023
X101.346Y-33.909
X101.346Y-69.088
X101.46Y-66.986
X101.6Y-70.104
X101.6Y-73.152
X101.6Y-79.756
X101.981Y-44.196
X102.743Y-58.547
X102.87Y-124.206
X102.997Y-35.687
X102.997Y-78.359
X103.378Y-61.468
X103.505Y-42.418
X103.754Y-69.567
X104.14Y-119.126
X105.41Y-123.19
X105.918Y-110.998
X106.934Y-58.928
X107.442Y-110.998
X107.95Y-61.214
X107.95Y-74.385
X108.077Y-49.276
X108.712Y-58.801
X108.839Y-78.994
X109.22Y-72.898
X109.347Y-52.07
X110.236Y-110.998
X110.49Y-119.126
X111.66Y-123.19
X111.76Y-72.898
X112.268Y-110.998
X112.395Y-99.949
X112.449Y-69.501
X113.03Y-122.301
X113.284Y-119.38
X113.284Y-136.144
X114.046Y-57.023
X114.137Y-67.035
X114.26Y-68.485
X114.3Y-60.706
X114.3Y-127.0
X114.307Y-69.484
X114.465Y-65.875
X114.935Y-118.999
X115.07Y-126.362
X115.57Y-137.16
X115.951Y-120.65
X116.078Y-110.998
X116.332Y-69.342
X116.555Y-67.307
X116.586Y-123.19
X116.84Y-72.898
X116.84Y-125.73
X117.81Y-69.498
X117.983Y-99.695
X118.11Y-110.998
X119.38Y-73.914
X119.634Y-67.818
X120.523Y-40.767
X120.65Y-35.814
X120.65Y-118.11
X120.65Y-125.73
X120.777Y-33.02
X121.084Y-68.055
X121.412Y-64.008
X122.777Y-74.367
X124.46Y-68.62
X125.73Y-111.252
X126.275Y-65.71
X126.863Y-68.161
X128.016Y-69.85
X128.27Y-111.252
X129.286Y-68.443
X129.558Y-69.405
X130.601Y-69.387
X131.572Y-40.259
X131.826Y-124.206
X131.826Y-128.27
X132.08Y-66.512
X133.477Y-33.02
X133.477Y-35.687
X133.604Y-118.11
X134.62Y-48.514
X135.89Y-127.508
X135.89Y-69.342
X136.906Y-126.676
X137.142Y-65.955
X137.16Y-60.706
X137.16Y-67.31
X137.16Y-69.051
X138.684Y-111.633
X139.7Y-66.548
X140.97Y-99.695
X141.351Y-111.506
X142.113Y-65.659
X142.24Y-66.802
X142.494Y-137.16
X146.177Y-40.767
X146.304Y-32.893
X146.304Y-35.941
X147.066Y-67.564
X148.59Y-69.342
X149.098Y-48.514
X152.4Y-67.818
X152.4Y-69.342
X152.908Y-72.898
X153.543Y-56.134
X153.67Y-69.342
X154.94Y-46.99
X156.21Y-56.134
X156.21Y-69.07
X157.48Y-48.26
X157.48Y-49.784
X157.607Y-74.168
X158.75Y-35.687
X158.75Y-40.894
X158.877Y-32.766
X160.02Y-46.99
X160.02Y-74.422
X161.29Y-46.99
X161.544Y-118.11
X161.544Y-124.46
X162.56Y-49.784
X162.56Y-68.58
X163.83Y-69.342
X163.83Y-113.03
X165.1Y-48.26
X165.1Y-67.818
X165.1Y-74.295
X166.243Y-55.88
X167.005Y-123.19
X167.005Y-134.62
X167.64Y-68.326
X167.645Y-67.051
X168.91Y-69.342
X170.434Y-65.024
X171.554Y-66.257
X171.583Y-67.781
X171.958Y-33.02
X171.958Y-35.56
X173.355Y-54.483
X175.26Y-66.294
X175.26Y-125.73
X175.26Y-128.27
X177.075Y-69.346
X177.8Y-115.57
X177.8Y-133.35
X179.07Y-123.19
X179.07Y-130.81
X179.705Y-133.35
X179.705Y-134.62
X180.104Y-68.681
X180.34Y-66.04
X182.626Y-65.786
X182.88Y-74.295
X183.584Y-65.246
X184.277Y-35.814
X184.404Y-67.31
X184.534Y-64.933
X184.785Y-32.766
X185.166Y-128.27
X185.42Y-68.326
X186.309Y-54.356
X186.69Y-99.568
X186.69Y-115.57
X186.69Y-118.11
X187.706Y-74.168
X187.706Y-113.03
X187.96Y-68.595
X187.96Y-67.595
X190.246Y-66.61
X190.314Y-65.613
X191.396Y-65.669
X191.549Y-69.513
X192.151Y-40.005
X192.659Y-111.506
X192.913Y-54.102
X193.04Y-115.443
X193.095Y-63.711
X194.056Y-121.158
X194.818Y-52.324
X194.818Y-111.506
X195.072Y-40.132
X195.457Y-67.469
X195.834Y-117.348
X195.834Y-119.126
X196.215Y-128.778
X196.342Y-101.6
X197.199Y-102.87
X197.358Y-135.89
X198.12Y-61.468
X198.12Y-127.0
X198.374Y-128.778
X198.882Y-65.532
X198.882Y-97.79
X198.882Y-125.73
X199.517Y-111.506
X200.152Y-67.818
X200.914Y-74.168
X202.438Y-66.294
X203.454Y-74.295
X204.978Y-67.818
X205.994Y-66.167
X205.994Y-74.168
X208.179Y-66.003
X208.407Y-74.295
X208.534Y-113.03
X209.55Y-68.58
X210.058Y-65.151
X210.82Y-68.834
X210.82Y-74.168
X212.598Y-64.262
X213.487Y-68.707
X213.741Y-74.295
X214.63Y-66.294
X216.154Y-74.295
X217.17Y-67.056
X218.186Y-108.204
X219.202Y-130.302
X221.234Y-108.204
X221.488Y-132.842
T2
X86.36Y-120.65
X91.44Y-81.28
X91.44Y-83.82
X91.44Y-86.36
X91.44Y-88.9
X91.44Y-91.44
X91.44Y-93.98
X91.44Y-96.52
X91.44Y-99.06
X91.44Y-101.6
X91.44Y-104.14
X95.25Y-95.25
X96.52Y-104.14
X99.06Y-81.28
X99.06Y-83.82
X99.06Y-86.36
X99.06Y-88.9
X99.06Y-91.44
X99.06Y-93.98
X99.06Y-96.52
X99.06Y-99.06
X99.06Y-101.6
X99.06Y-104.14
X104.14Y-99.06
X109.22Y-99.06
X110.49Y-55.88
X110.49Y-57.785
X110.49Y-59.69
X114.3Y-81.28
X114.3Y-83.82
X114.3Y-86.36
X114.3Y-88.9
X114.3Y-91.44
X114.3Y-93.98
X114.3Y-96.52
X114.3Y-99.06
X114.3Y-101.6
X114.3Y-104.14
X118.11Y-95.25
X119.38Y-104.14
X121.92Y-81.28
X121.92Y-83.82
X121.92Y-86.36
X121.92Y-88.9
X121.92Y-91.44
X121.92Y-93.98
X121.92Y-96.52
X121.92Y-99.06
X121.92Y-101.6
X121.92Y-104.14
X121.92Y-120.65
X127.0Y-93.98
X129.54Y-99.06
X133.35Y-99.06
X135.89Y-120.65
X135.89Y-122.65
X137.16Y-81.28
X137.16Y-83.82
X137.16Y-86.36
X137.16Y-88.9
X137.16Y-91.44
X137.16Y-93.98
X137.16Y-96.52
X137.16Y-99.06
X137.16Y-101.6
X137.16Y-104.14
X140.97Y-95.25
X142.24Y-104.14
X144.78Y-81.28
X144.78Y-83.82
X144.78Y-86.36
X144.78Y-88.9
X144.78Y-91.44
X144.78Y-93.98
X144.78Y-96.52
X144.78Y-99.06
X144.78Y-101.6
X144.78Y-104.14
X149.86Y-99.06
X154.94Y-113.03
X154.94Y-120.65
X156.21Y-99.06
X160.02Y-81.28
X160.02Y-83.82
X160.02Y-86.36
X160.02Y-88.9
X160.02Y-91.44
X160.02Y-93.98
X160.02Y-96.52
X160.02Y-99.06
X160.02Y-101.6
X160.02Y-104.14
X163.83Y-95.25
X165.1Y-104.14
X167.64Y-81.28
X167.64Y-83.82
X167.64Y-86.36
X167.64Y-88.9
X167.64Y-91.44
X167.64Y-93.98
X167.64Y-96.52
X167.64Y-99.06
X167.64Y-101.6
X167.64Y-104.14
X168.91Y-120.65
X168.91Y-122.65
X172.72Y-99.06
X179.07Y-99.06
X182.88Y-81.28
X182.88Y-83.82
X182.88Y-86.36
X182.88Y-88.9
X182.88Y-91.44
X182.88Y-93.98
X182.88Y-96.52
X182.88Y-99.06
X182.88Y-101.6
X182.88Y-104.14
X182.88Y-115.57
X182.88Y-118.11
X182.88Y-120.65
X182.88Y-123.19
X182.88Y-125.73
X182.88Y-128.27
X182.88Y-130.81
X182.88Y-133.35
X182.88Y-135.89
X182.88Y-138.43
X186.69Y-95.25
X187.96Y-104.14
X190.5Y-81.28
X190.5Y-83.82
X190.5Y-86.36
X190.5Y-88.9
X190.5Y-91.44
X190.5Y-93.98
X190.5Y-96.52
X190.5Y-99.06
X190.5Y-101.6
X190.5Y-104.14
X190.5Y-115.57
X190.5Y-118.11
X190.5Y-120.65
X190.5Y-123.19
X190.5Y-125.73
X190.5Y-128.27
X190.5Y-130.81
X190.5Y-133.35
X190.5Y-135.89
X190.5Y-138.43
X195.58Y-99.06
X201.2Y-121.92
X201.93Y-99.06
X203.2Y-121.92
X205.74Y-81.28
X205.74Y-83.82
X205.74Y-86.36
X205.74Y-88.9
X205.74Y-91.44
X205.74Y-93.98
X205.74Y-96.52
X205.74Y-99.06
X205.74Y-101.6
X205.74Y-104.14
X209.55Y-95.25
X210.82Y-104.14
X213.36Y-81.28
X213.36Y-83.82
X213.36Y-86.36
X213.36Y-88.9
X213.36Y-91.44
X213.36Y-93.98
X213.36Y-96.52
X213.36Y-99.06
X213.36Y-101.6
X213.36Y-104.14
X215.9Y-121.92
X217.17Y-113.03
X217.9Y-121.92
T3
X85.09Y-76.2
X86.36Y-132.08
X87.63Y-76.2
X88.9Y-132.08
X90.17Y-76.2
X91.44Y-132.08
X92.71Y-76.2
X93.98Y-132.08
X95.25Y-76.2
X96.52Y-132.08
X97.79Y-76.2
X99.06Y-132.08
X100.33Y-76.2
X101.6Y-132.08
X102.87Y-76.2
X104.14Y-132.08
X104.22Y-86.36
X105.41Y-76.2
X106.68Y-132.08
X107.95Y-76.2
X109.22Y-86.36
X109.22Y-132.08
X110.49Y-76.2
X111.76Y-132.08
X113.03Y-76.2
X114.3Y-132.08
X115.57Y-43.18
X115.57Y-58.42
X115.57Y-76.2
X116.84Y-132.08
X118.11Y-43.18
X118.11Y-58.42
X118.11Y-76.2
X119.38Y-132.08
X120.65Y-43.18
X120.65Y-58.42
X120.65Y-76.2
X121.92Y-132.08
X123.19Y-43.18
X123.19Y-58.42
X123.19Y-76.2
X124.46Y-132.08
X125.73Y-43.18
X125.73Y-58.42
X125.73Y-76.2
X127.0Y-132.08
X127.08Y-86.36
X128.27Y-43.18
X128.27Y-58.42
X128.27Y-76.2
X129.54Y-132.08
X130.81Y-43.18
X130.81Y-58.42
X130.81Y-76.2
X132.08Y-86.36
X133.35Y-43.18
X133.35Y-58.42
X133.35Y-76.2
X135.89Y-43.18
X135.89Y-58.42
X135.89Y-76.2
X138.43Y-43.18
X138.43Y-58.42
X138.43Y-76.2
X140.97Y-43.18
X140.97Y-58.42
X140.97Y-76.2
X140.97Y-120.65
X140.97Y-123.19
X140.97Y-125.73
X140.97Y-128.27
X140.97Y-130.81
X140.97Y-133.35
X140.97Y-135.89
X140.97Y-138.43
X143.51Y-43.18
X143.51Y-58.42
X143.51Y-76.2
X146.05Y-43.18
X146.05Y-58.42
X146.05Y-76.2
X148.59Y-43.18
X148.59Y-58.42
X148.59Y-76.2
X151.13Y-43.18
X151.13Y-58.42
X151.13Y-76.2
X153.67Y-43.18
X153.67Y-58.42
X153.67Y-76.2
X156.21Y-43.18
X156.21Y-58.42
X156.21Y-76.2
X158.75Y-43.18
X158.75Y-58.42
X158.75Y-76.2
X161.29Y-43.18
X161.29Y-58.42
X161.29Y-76.2
X163.83Y-43.18
X163.83Y-58.42
X163.83Y-76.2
X163.83Y-120.65
X163.83Y-123.19
X163.83Y-125.73
X163.83Y-128.27
X163.83Y-130.81
X163.83Y-133.35
X163.83Y-135.89
X163.83Y-138.43
X166.37Y-43.18
X166.37Y-58.42
X166.37Y-76.2
X168.91Y-43.18
X168.91Y-58.42
X168.91Y-76.2
X171.45Y-43.18
X171.45Y-58.42
X171.45Y-76.2
X172.8Y-86.36
X173.99Y-43.18
X173.99Y-58.42
X173.99Y-76.2
X176.53Y-43.18
X176.53Y-58.42
X176.53Y-76.2
X177.8Y-86.36
X179.07Y-43.18
X179.07Y-58.42
X179.07Y-76.2
X181.61Y-43.18
X181.61Y-58.42
X181.61Y-76.2
X184.15Y-43.18
X184.15Y-58.42
X184.15Y-76.2
X186.69Y-43.18
X186.69Y-58.42
X186.69Y-76.2
X189.23Y-43.18
X189.23Y-58.42
X189.23Y-76.2
X191.77Y-76.2
X194.31Y-76.2
X195.66Y-86.36
X196.85Y-76.2
X199.39Y-76.2
X200.66Y-86.36
X201.93Y-76.2
X204.47Y-76.2
X207.01Y-76.2
X209.55Y-76.2
X212.09Y-76.2
X214.63Y-76.2
X217.17Y-76.2
X219.71Y-76.2
T4
X97.135Y-37.535
X102.235Y-38.735
T5
X204.47Y-132.08
X214.63Y-132.08
T6
X197.485Y-50.8
X217.485Y-50.8
T3
X94.33Y-49.8G85X94.33Y-51.8
G05
X96.33Y-55.5G85X98.33Y-55.5
G05
X100.33Y-49.8G85X100.33Y-51.8
G05
T0
M30
